SplineFontDB: 3.0
FontName: Rosario-Italic
FullName: Rosario
FamilyName: Rosario
Weight: Normal
Copyright: Copyright (c) 2011 by Omnibus-Type (www.omnibus-type.com) with Reserved Font Name "Rosario".\n
Version: 001.002
ItalicAngle: -12
UnderlinePosition: -111
UnderlineWidth: 19
Ascent: 800
Descent: 200
LayerCount: 2
Layer: 0 1 "Back"  1
Layer: 1 1 "Fore"  0
XUID: [1021 288 713564382 2103414]
FSType: 0
OS2Version: 2
OS2_WeightWidthSlopeOnly: 0
OS2_UseTypoMetrics: 1
CreationTime: 1314731286
ModificationTime: 1314727886
PfmFamily: 33
TTFWeight: 400
TTFWidth: 5
LineGap: 0
VLineGap: 0
Panose: 2 0 5 6 5 0 0 2 0 3
OS2TypoAscent: 948
OS2TypoAOffset: 0
OS2TypoDescent: -235
OS2TypoDOffset: 0
OS2TypoLinegap: 0
OS2WinAscent: 948
OS2WinAOffset: 0
OS2WinDescent: 235
OS2WinDOffset: 0
HheadAscent: 948
HheadAOffset: 0
HheadDescent: -235
HheadDOffset: 0
OS2SubXSize: 700
OS2SubYSize: 650
OS2SubXOff: 0
OS2SubYOff: 140
OS2SupXSize: 700
OS2SupYSize: 650
OS2SupXOff: 0
OS2SupYOff: 477
OS2StrikeYSize: 50
OS2StrikeYPos: 250
OS2Vendor: 'PfEd'
OS2CodePages: 00000001.00000000
OS2UnicodeRanges: 00000001.00000000.00000000.00000000
Lookup: 4 0 1 "'liga' Standard Ligatures in Latin lookup 0"  {"'liga' Standard Ligatures in Latin lookup 0 subtable"  } ['liga' ('latn' <'dflt' > ) ]
Lookup: 258 0 0 "'kern' Horizontal Kerning in Latin lookup 0"  {"'kern' Horizontal Kerning in Latin lookup 0 per glyph data 0"  "'kern' Horizontal Kerning in Latin lookup 0 kerning class 1"  } ['kern' ('latn' <'dflt' > ) ]
MarkAttachClasses: 1
DEI: 91125
KernClass2: 21+ 22 "'kern' Horizontal Kerning in Latin lookup 0 kerning class 1" 
 75 quotedbl quotesingle degree quotedblleft quotedblright quoteleft quoteright
 50 A Agrave Aacute Acircumflex Atilde Adieresis Aring
 15 C Euro Ccedilla
 59 D O Q Oslash Eth Ograve Oacute Ocircumflex Otilde Odieresis
 43 E AE OE Egrave Eacute Ecircumflex Edieresis
 14 H J M N Ntilde
 1 L
 8 S Scaron
 37 U Ugrave Uacute Ucircumflex Udieresis
 3 V W
 18 Y Yacute Ydieresis
 8 Z Zcaron

StartChar: exclam
Encoding: 33 33 1
Width: 246
Flags: HMW
HStem: -13 132<83 119> 705 20G<172.5 200.5>
VStem: 35 132<35 71 35 71.5> 113 132
LayerCount: 2
Fore
SplineSet
167 53 m 128,-1,1
 167 26 167 26 147.5 6.5 c 128,-1,2
 128 -13 128 -13 101 -13 c 128,-1,3
 74 -13 74 -13 54.5 6.5 c 128,-1,4
 35 26 35 26 35 53.5 c 128,-1,5
 35 81 35 81 54 100 c 128,-1,6
 73 119 73 119 100.5 119 c 128,-1,7
 128 119 128 119 147.5 99.5 c 128,-1,0
 167 80 167 80 167 53 c 128,-1,1
245 677 m 1,8,-1
 244 671 l 1,9,-1
 244 667 l 1,10,-1
 153 207 l 1,11,-1
 95 216 l 1,12,-1
 132 683 l 2,13,14
 134 701 134 701 149.5 713 c 128,-1,15
 165 725 165 725 187 725 c 128,-1,16
 209 725 209 725 227 712 c 128,-1,17
 245 699 245 699 245 677 c 1,8,-1
EndSplineSet
EndChar

StartChar: quotedbl
Encoding: 34 34 2
Width: 300
Flags: HMW
HStem: 436 21G<79 107 79 79 218 246 218 218> 704 20G<95 175 175 175 234 314 314 314>
LayerCount: 2
Fore
SplineSet
314 724 m 1,0,-1
 289 548 l 1,1,-1
 246 436 l 1,2,-1
 218 436 l 1,3,-1
 209 550 l 1,4,-1
 234 724 l 1,5,-1
 314 724 l 1,0,-1
175 724 m 1,6,-1
 150 548 l 1,7,-1
 107 436 l 1,8,-1
 79 436 l 1,9,-1
 70 550 l 1,10,-1
 95 724 l 1,11,-1
 175 724 l 1,6,-1
EndSplineSet
EndChar

StartChar: numbersign
Encoding: 35 35 3
Width: 640
Flags: HMW
HStem: 0 21G<151 211 151 151 333 394 333 333> 241 55<57 184 57 192 253 366 57 245 435 559> 426 57<83 209 83 217 83 270 278 392 460 584> 696 20G<248 310 310 310 431 491 491 491>
LayerCount: 2
Fore
SplineSet
584 426 m 1,0,-1
 453 426 l 1,1,-1
 435 296 l 1,2,-1
 559 296 l 1,3,-1
 559 241 l 1,4,-1
 428 241 l 1,5,-1
 394 0 l 1,6,-1
 333 0 l 1,7,-1
 366 241 l 1,8,-1
 245 241 l 1,9,-1
 211 0 l 1,10,-1
 151 0 l 1,11,-1
 184 241 l 1,12,-1
 57 241 l 1,13,-1
 57 296 l 1,14,-1
 192 296 l 1,15,-1
 209 426 l 1,16,-1
 83 426 l 1,17,-1
 83 483 l 1,18,-1
 217 483 l 1,19,-1
 248 716 l 1,20,-1
 310 716 l 1,21,-1
 278 483 l 1,22,-1
 400 483 l 1,23,-1
 431 716 l 1,24,-1
 491 716 l 1,25,-1
 460 483 l 1,26,-1
 584 483 l 1,27,-1
 584 426 l 1,0,-1
392 426 m 1,28,-1
 270 426 l 1,29,-1
 253 296 l 1,30,-1
 374 296 l 1,31,-1
 392 426 l 1,28,-1
EndSplineSet
EndChar

StartChar: dollar
Encoding: 36 36 4
Width: 399
Flags: HMW
HStem: -124 171<137.5 163 85 178.5> 440 173<242 257.5>
VStem: 64 83<322.5 388.5 322.5 398.5> 254 83<103 176.5>
LayerCount: 2
Fore
SplineSet
373 466 m 1,0,-1
 337 405 l 1,1,2
 286 440 286 440 244.5 440 c 128,-1,3
 203 440 203 440 175 419.5 c 128,-1,4
 147 399 147 399 147 363 c 0,5,6
 147 325.589285714 147 325.589285714 214 288.5 c 0,7,8
 242 273 242 273 270 255 c 128,-1,9
 298 237 298 237 317.5 207 c 128,-1,10
 337 177 337 177 337 138 c 0,11,12
 337 73 337 73 293 32.5 c 128,-1,13
 249 -8 249 -8 183 -14 c 1,14,-1
 163 -124 l 1,15,-1
 85 -124 l 1,16,-1
 119 -13 l 1,17,18
 71 -7 71 -7 12 25 c 1,19,-1
 56 89 l 1,20,21
 110 47 110 47 151.5 47 c 128,-1,22
 193 47 193 47 223.5 69.5 c 128,-1,23
 254 92 254 92 254 123.5 c 128,-1,24
 254 155 254 155 234.5 175.5 c 128,-1,25
 215 196 215 196 187 211.5 c 128,-1,26
 159 227 159 227 131 244 c 128,-1,27
 103 261 103 261 83.5 289 c 128,-1,28
 64 317 64 317 64 353 c 0,29,30
 64 418 64 418 108.5 457 c 128,-1,31
 153 496 153 496 220 502 c 1,32,-1
 242 613 l 1,33,-1
 320 613 l 1,34,-1
 285 500 l 1,35,36
 332 494 332 494 373 466 c 1,0,-1
EndSplineSet
EndChar

StartChar: percent
Encoding: 37 37 5
Width: 791
Flags: HMW
HStem: -13 21G<137 205 137 137> -5 60<546.5 606 546.5 622.5> 322 62 653 56<230 249 334 543 334 334>
VStem: 45 72<463 517.5 463 533> 288 73<523 570.5 505 573> 429 72<136 189.5 136 207.5> 673 73<194.5 245.5>
LayerCount: 2
Fore
SplineSet
712 337 m 128,-1,1
 746 290 746 290 746 233 c 128,-1,2
 746 176 746 176 725.5 124 c 128,-1,3
 705 72 705 72 662 33.5 c 128,-1,4
 619 -5 619 -5 560 -5 c 128,-1,5
 501 -5 501 -5 465 42 c 128,-1,6
 429 89 429 89 429 154 c 0,7,8
 429 243 429 243 479 313.5 c 128,-1,9
 529 384 529 384 615 384 c 0,10,0
 678 384 678 384 712 337 c 128,-1,1
644 709 m 1,11,-1
 205 -13 l 1,12,-1
 137 -13 l 1,13,-1
 543 653 l 1,14,-1
 334 653 l 1,15,16
 361 609 361 609 361 556 c 128,-1,17
 361 503 361 503 340.5 451 c 128,-1,18
 320 399 320 399 277.5 360.5 c 128,-1,19
 235 322 235 322 176 322 c 128,-1,20
 117 322 117 322 81 369 c 128,-1,21
 45 416 45 416 45 481 c 0,22,23
 45 568 45 568 94.5 638.5 c 128,-1,24
 144 709 144 709 230 709 c 2,25,-1
 644 709 l 1,11,-1
645.5 112 m 128,-1,27
 673 169 673 169 673 216 c 128,-1,28
 673 263 673 263 657 294.5 c 128,-1,29
 641 326 641 326 609 326 c 0,30,31
 563 326 563 326 532 269.5 c 128,-1,32
 501 213 501 213 501 166.5 c 128,-1,33
 501 120 501 120 519 87.5 c 128,-1,34
 537 55 537 55 571 55 c 0,35,26
 618 55 618 55 645.5 112 c 128,-1,27
278 482.5 m 128,-1,37
 288 520 288 520 288 555.5 c 128,-1,38
 288 591 288 591 273 622 c 128,-1,39
 258 653 258 653 225 653 c 0,40,41
 179 653 179 653 148 597 c 128,-1,42
 117 541 117 541 117 494 c 128,-1,43
 117 447 117 447 135 414.5 c 128,-1,44
 153 382 153 382 186 382 c 128,-1,45
 219 382 219 382 243.5 413.5 c 128,-1,36
 268 445 268 445 278 482.5 c 128,-1,37
EndSplineSet
EndChar

StartChar: ampersand
Encoding: 38 38 6
Width: 659
Flags: HMW
HStem: -13 74<217.5 308.5> 192 89<308 421> 210 71 210 93<532 654 532 654> 228 53<397.5 421 397 427> 311 53<291 327 291 347.5> 410 52<314 336.5> 630 59<341 415 319.5 423>
VStem: 37 92<146.5 210 146.5 219.5> 128 84<460.5 509.5 455.5 544> 457 197<166 303>
LayerCount: 2
Fore
SplineSet
593 303 m 1,0,-1
 654 303 l 1,1,2
 649 210 649 210 547 210 c 2,3,-1
 532 210 l 1,4,5
 505 109 505 109 425 48 c 128,-1,6
 345 -13 345 -13 230 -13 c 0,7,8
 150 -13 150 -13 93.5 39.5 c 128,-1,9
 37 92 37 92 37 171 c 0,10,11
 37 309 37 309 149 397 c 1,12,13
 128 434 128 434 128 476 c 0,14,15
 128 574 128 574 204 631.5 c 128,-1,16
 280 689 280 689 387 689 c 0,17,18
 433 689 433 689 481.5 673.5 c 128,-1,19
 530 658 530 658 553 631 c 1,20,-1
 511 584 l 1,21,22
 463 630 463 630 388 630 c 128,-1,23
 313 630 313 630 262.5 582.5 c 128,-1,24
 212 535 212 535 212 459 c 0,25,26
 212 448 212 448 216 436 c 1,27,28
 276 462 276 462 328.5 462 c 0,29,30
 434 462 434 462 434 396 c 0,31,32
 434 362 434 362 399 336.5 c 128,-1,33
 364 311 364 311 304 311 c 128,-1,34
 244 311 244 311 193 350 c 1,35,36
 162 315 162 315 145.5 270 c 128,-1,37
 129 225 129 225 129 186 c 0,38,39
 129 127 129 127 163.5 94 c 128,-1,40
 198 61 198 61 266 61 c 128,-1,41
 334 61 334 61 395.5 105.5 c 128,-1,42
 457 150 457 150 457 187 c 0,43,44
 457 228 457 228 411 228 c 0,45,46
 393 228 393 228 382.5 216.5 c 128,-1,47
 372 205 372 205 369 192 c 1,48,-1
 308 192 l 1,49,50
 310 236 310 236 344.5 258.5 c 128,-1,51
 379 281 379 281 421 281 c 1,52,-1
 553 270 l 1,53,54
 569 270 569 270 580.5 278.5 c 128,-1,55
 592 287 592 287 593 303 c 1,0,-1
364 391 m 0,56,57
 364 410 364 410 323 410 c 128,-1,58
 282 410 282 410 243 389 c 1,59,60
 268 364 268 364 301.5 364 c 128,-1,61
 335 364 335 364 349.5 372 c 128,-1,62
 364 380 364 380 364 391 c 0,56,57
EndSplineSet
EndChar

StartChar: quotesingle
Encoding: 39 39 7
Width: 157
Flags: HMW
HStem: 436 21G<73 101 73 73> 704 20G<89 169 169 169>
LayerCount: 2
Fore
SplineSet
169 724 m 1,0,-1
 144 548 l 1,1,-1
 101 436 l 1,2,-1
 73 436 l 1,3,-1
 64 550 l 1,4,-1
 89 724 l 1,5,-1
 169 724 l 1,0,-1
EndSplineSet
EndChar

StartChar: parenleft
Encoding: 40 40 8
Width: 323
Flags: HMW
HStem: -140 21G<169 169> 717 20G<292 292>
VStem: 59 82<147.5 289.5 132.5 309.5>
LayerCount: 2
Fore
SplineSet
292 737 m 1,0,-1
 356 727 l 1,1,2
 141 489 141 489 141 189 c 0,3,4
 141 20 141 20 234 -130 c 1,5,-1
 169 -140 l 1,6,7
 59 20 59 20 59 210 c 0,8,9
 59 353 59 353 121.5 488 c 128,-1,10
 184 623 184 623 292 737 c 1,0,-1
EndSplineSet
EndChar

StartChar: parenright
Encoding: 41 41 9
Width: 328
Flags: HMW
HStem: -140 21G<65 65> 717 20G<187 187>
VStem: 215 82<307 448.5 286.5 464.5>
LayerCount: 2
Fore
SplineSet
297 386 m 0,0,1
 297 106 297 106 65 -140 c 1,2,-1
 0 -130 l 1,3,4
 215 106 215 106 215 407 c 0,5,6
 215 577 215 577 122 727 c 1,7,-1
 187 737 l 1,8,9
 297 577 297 577 297 386 c 0,0,1
EndSplineSet
EndChar

StartChar: asterisk
Encoding: 42 42 10
Width: 405
Flags: HMW
HStem: 377 21G<306 306> 704 20G<238 317 317 317>
LayerCount: 2
Fore
SplineSet
440 565 m 1,0,-1
 299 537 l 1,1,-1
 293 580 l 1,2,-1
 421 642 l 1,3,-1
 440 565 l 1,0,-1
317 724 m 1,4,-1
 280 587 l 1,5,-1
 238 587 l 1,6,-1
 238 724 l 1,7,-1
 317 724 l 1,4,-1
375 425 m 1,8,-1
 306 377 l 1,9,-1
 255 501 l 1,10,-1
 290 523 l 1,11,-1
 375 425 l 1,8,-1
227 578 m 1,12,-1
 208 542 l 1,13,-1
 75 563 l 1,14,-1
 106 638 l 1,15,-1
 227 578 l 1,12,-1
240 500 m 1,16,-1
 155 379 l 1,17,-1
 100 425 l 1,18,-1
 209 526 l 1,19,-1
 240 500 l 1,16,-1
EndSplineSet
EndChar

StartChar: plus
Encoding: 43 43 11
Width: 642
Flags: HMW
HStem: 0 21G<282 352 282 282> 211 69<68 282 68 282 352 567> 470 20G<282 352 352 352>
VStem: 282 70<0 211 0 211 280 490>
LayerCount: 2
Fore
SplineSet
567 211 m 1,0,-1
 352 211 l 1,1,-1
 352 0 l 1,2,-1
 282 0 l 1,3,-1
 282 211 l 1,4,-1
 68 211 l 1,5,-1
 68 280 l 1,6,-1
 282 280 l 1,7,-1
 282 490 l 1,8,-1
 352 490 l 1,9,-1
 352 280 l 1,10,-1
 567 280 l 1,11,-1
 567 211 l 1,0,-1
EndSplineSet
EndChar

StartChar: comma
Encoding: 44 44 12
Width: 251
Flags: HMW
HStem: -125 21G<48 48> 100 20G<87 126.5>
VStem: 36 135<35 69.5 14 75.5>
LayerCount: 2
Fore
SplineSet
171 50 m 0,0,1
 171 -42 171 -42 48 -125 c 1,2,-1
 18 -92 l 1,3,-1
 24 -87 l 1,4,5
 76 -45 76 -45 76 -18 c 0,6,7
 76 -11 76 -11 56 11 c 128,-1,8
 36 33 36 33 36 59 c 0,9,10
 36 85 36 85 56 102.5 c 128,-1,11
 76 120 76 120 106 120 c 0,12,13
 136 120 136 120 153.5 100 c 128,-1,14
 171 80 171 80 171 50 c 0,0,1
EndSplineSet
EndChar

StartChar: hyphen
Encoding: 45 45 13
Width: 324
Flags: HMW
HStem: 222 71<45 275 34 286>
LayerCount: 2
Fore
SplineSet
286 293 m 1,0,-1
 275 222 l 1,1,-1
 34 222 l 1,2,-1
 45 293 l 1,3,-1
 286 293 l 1,0,-1
EndSplineSet
EndChar

StartChar: period
Encoding: 46 46 14
Width: 247
Flags: HMW
HStem: -13 133<82.5 118.5 82 119>
VStem: 35 132<35.5 72>
LayerCount: 2
Fore
SplineSet
167 54 m 128,-1,1
 167 26 167 26 147.5 6.5 c 128,-1,2
 128 -13 128 -13 100.5 -13 c 0,3,4
 73 -13 73 -13 54 6.5 c 128,-1,5
 35 26 35 26 35 53.5 c 0,6,7
 35 81 35 81 54 100.5 c 128,-1,8
 73 120 73 120 100.5 120 c 0,9,10
 128 120 128 120 147.5 101 c 128,-1,0
 167 82 167 82 167 54 c 128,-1,1
EndSplineSet
EndChar

StartChar: slash
Encoding: 47 47 15
Width: 293
Flags: HMW
HStem: -8 21G<-14 54 -14 -14> 704 20G<241 307 307 307>
LayerCount: 2
Fore
SplineSet
307 724 m 1,0,-1
 54 -8 l 1,1,-1
 -14 -8 l 1,2,-1
 241 724 l 1,3,-1
 307 724 l 1,0,-1
EndSplineSet
EndChar

StartChar: zero
Encoding: 48 48 16
Width: 513
Flags: HMW
HStem: -13 62<187 299.5 187 308.5> 441 62<214 326>
VStem: 25 85<152 250 152 280.5> 402 86<241 339>
LayerCount: 2
Fore
SplineSet
488 284 m 0,0,1
 488 166 488 166 416 76.5 c 128,-1,2
 344 -13 344 -13 227 -13 c 0,3,4
 132 -13 132 -13 78.5 49 c 128,-1,5
 25 111 25 111 25 206 c 0,6,7
 25 325 25 325 97 414 c 128,-1,8
 169 503 169 503 286 503 c 0,9,10
 381 503 381 503 434.5 441 c 128,-1,11
 488 379 488 379 488 284 c 0,0,1
402 297 m 0,12,13
 402 441 402 441 280 441 c 0,14,15
 233 441 233 441 198 418.5 c 128,-1,16
 163 396 163 396 145 358.5 c 0,17,18
 110 285.583333333 110 285.583333333 110 194 c 0,19,20
 110 49 110 49 233 49 c 0,21,22
 280 49 280 49 315 71.5 c 128,-1,23
 350 94 350 94 368 131.5 c 0,24,25
 402 202.333333333 402 202.333333333 402 297 c 0,12,13
EndSplineSet
EndChar

StartChar: one
Encoding: 49 49 17
Width: 376
Flags: HMW
HStem: 0 67<46 157 237 335 38 157> 473 20G<246 294 294 294>
LayerCount: 2
Fore
SplineSet
344 67 m 1,0,-1
 335 0 l 1,1,-1
 38 0 l 1,2,-1
 46 67 l 1,3,-1
 157 67 l 1,4,-1
 202 401 l 1,5,-1
 92 370 l 1,6,-1
 86 417 l 1,7,-1
 246 493 l 1,8,-1
 294 493 l 1,9,-1
 237 67 l 1,10,-1
 344 67 l 1,0,-1
EndSplineSet
EndChar

StartChar: two
Encoding: 50 50 18
Width: 450
Flags: HMW
HStem: 0 68<140 413> 441 62<238.5 279.5>
VStem: 318 91<356.5 392.5>
LayerCount: 2
Fore
SplineSet
257 441 m 0,0,1
 192.75 441 192.75 441 129 366 c 1,2,-1
 82 404 l 1,3,4
 161 503 161 503 272 503 c 0,5,6
 330 503 330 503 369.5 471.5 c 128,-1,7
 409 440 409 440 409 383 c 0,8,9
 409 297 409 297 296 201 c 2,10,-1
 140 68 l 1,11,-1
 427 68 l 1,12,-1
 413 0 l 1,13,-1
 35 0 l 1,14,-1
 35 53 l 1,15,-1
 129 145 l 1,16,17
 222 238 222 238 249 262 c 1,18,19
 282 295 282 295 300 322 c 128,-1,20
 318 349 318 349 318 376 c 128,-1,21
 318 403 318 403 303 422 c 128,-1,22
 288 441 288 441 257 441 c 0,0,1
EndSplineSet
EndChar

StartChar: three
Encoding: 51 51 19
Width: 380
Flags: HMW
HStem: -212 21G<-81 -81> 157 65<163 258.5> 441 62<209 225.5>
VStem: 256 78
LayerCount: 2
Fore
SplineSet
315.5 482.5 m 128,-1,1
 345 462 345 462 345 414 c 128,-1,2
 345 366 345 366 301.5 312.5 c 128,-1,3
 258 259 258 259 202 221 c 1,4,5
 209 222 209 222 223 222 c 0,6,7
 275 222 275 222 304.5 190 c 128,-1,8
 334 158 334 158 334 94.5 c 128,-1,9
 334 31 334 31 295.5 -30 c 128,-1,10
 257 -91 257 -91 195 -128.5 c 0,11,12
 67.1527446301 -205.826968974 67.1527446301 -205.826968974 -81 -212 c 1,13,-1
 -85 -160 l 1,14,15
 28.3754045307 -149.30420712 28.3754045307 -149.30420712 131.5 -86 c 0,16,17
 182 -55 182 -55 214 -8.5 c 128,-1,18
 246 38 246 38 246 91 c 0,19,20
 246 157 246 157 175 157 c 0,21,22
 141 157 141 157 96 142 c 1,23,-1
 76 196 l 1,24,25
 140 231 140 231 198 289 c 128,-1,26
 256 347 256 347 256 401 c 0,27,28
 256 441 256 441 209.5 441 c 128,-1,29
 163 441 163 441 99 385 c 1,30,-1
 57 422 l 1,31,32
 93 460 93 460 142.5 481.5 c 128,-1,33
 192 503 192 503 239 503 c 128,-1,0
 286 503 286 503 315.5 482.5 c 128,-1,1
EndSplineSet
EndChar

StartChar: four
Encoding: 52 52 20
Width: 477
Flags: HMW
HStem: -183 21G<244 323 244 244> 0 69<90 269 358 441> 470 20G<320 414 414 414>
LayerCount: 2
Fore
SplineSet
453 69 m 1,0,-1
 441 0 l 1,1,-1
 348 0 l 1,2,-1
 323 -183 l 1,3,-1
 244 -183 l 1,4,-1
 269 0 l 1,5,-1
 -3 0 l 1,6,-1
 -3 41 l 1,7,-1
 320 490 l 1,8,-1
 414 490 l 1,9,-1
 358 69 l 1,10,-1
 453 69 l 1,0,-1
322 391 m 1,11,-1
 90 69 l 1,12,-1
 278 69 l 1,13,-1
 322 391 l 1,11,-1
EndSplineSet
EndChar

StartChar: five
Encoding: 53 53 21
Width: 344
Flags: HMW
HStem: -207 21G<-12 -12> 406 84<136 304 136 136>
VStem: 184 86<19.5 117.5>
LayerCount: 2
Fore
SplineSet
328 490 m 1,0,-1
 304 406 l 1,1,-1
 136 406 l 1,2,-1
 105 327 l 1,3,4
 157.331914894 296.808510638 157.331914894 296.808510638 207.5 244 c 0,5,6
 236 214 236 214 253 171 c 128,-1,7
 270 128 270 128 270 80 c 0,8,9
 270 -67 270 -67 129 -154 c 0,10,11
 70 -190 70 -190 -12 -207 c 1,12,-1
 -26 -155 l 1,13,14
 184 -89 184 -89 184 75 c 0,15,16
 184 136 184 136 136 192.5 c 128,-1,17
 88 249 88 249 18 283 c 1,18,-1
 103 490 l 1,19,-1
 328 490 l 1,0,-1
EndSplineSet
EndChar

StartChar: six
Encoding: 54 54 22
Width: 497
Flags: HMW
HStem: -13 62<184.5 266.5 184.5 282> 335 68<268 295> 706 20G<471 471>
VStem: 30 87<153 196.5> 361 88<184.5 256>
LayerCount: 2
Fore
SplineSet
471 726 m 1,0,-1
 494 677 l 1,1,2
 378 631 378 631 286.5 546 c 128,-1,3
 195 461 195 461 153 354 c 1,4,5
 219 403 219 403 290.5 403 c 128,-1,6
 362 403 362 403 405.5 355.5 c 128,-1,7
 449 308 449 308 449 238 c 0,8,9
 449 134 449 134 382 60.5 c 128,-1,10
 315 -13 315 -13 212 -13 c 0,11,12
 129 -13 129 -13 79.5 46 c 128,-1,13
 30 105 30 105 30 189 c 0,14,15
 30 211 30 211 33 235 c 0,16,17
 52 370 52 370 136 479.5 c 128,-1,18
 220 589 220 589 346 665 c 0,19,20
 414 706 414 706 471 726 c 1,0,-1
323 103.5 m 128,-1,22
 361 158 361 158 361 215.5 c 128,-1,23
 361 273 361 273 335 304 c 128,-1,24
 309 335 309 335 263 335 c 0,25,26
 198 335 198 335 127 268 c 1,27,28
 117 229 117 229 117 179.5 c 128,-1,29
 117 130 117 130 143.5 89.5 c 128,-1,30
 170 49 170 49 227.5 49 c 128,-1,21
 285 49 285 49 323 103.5 c 128,-1,22
EndSplineSet
EndChar

StartChar: seven
Encoding: 55 55 23
Width: 406
Flags: HMW
HStem: -183 21G<43 129 43 43> 415 75<41 299 22 393>
LayerCount: 2
Fore
SplineSet
393 449 m 1,0,-1
 129 -183 l 1,1,-1
 43 -183 l 1,2,-1
 299 415 l 1,3,-1
 22 415 l 1,4,-1
 41 490 l 1,5,-1
 393 490 l 1,6,-1
 393 449 l 1,0,-1
EndSplineSet
EndChar

StartChar: eight
Encoding: 56 56 24
Width: 461
Flags: HMW
HStem: -13 59<175 226 175 252.5> 663 59<250 314.5>
VStem: 24 80<111 181 111 190> 100 91<532.5 573 532.5 577.5> 315 90<131 201> 358 78<552 596.5>
LayerCount: 2
Fore
SplineSet
436 585 m 0,0,1
 436 525 436 525 400 475 c 128,-1,2
 364 425 364 425 302 377 c 1,3,4
 335 340 335 340 353 317 c 128,-1,5
 371 294 371 294 388 256 c 128,-1,6
 405 218 405 218 405 180 c 0,7,8
 405 90 405 90 345.5 38.5 c 128,-1,9
 286 -13 286 -13 194.5 -13 c 128,-1,10
 103 -13 103 -13 63.5 31.5 c 128,-1,11
 24 76 24 76 24 140 c 0,12,13
 24 212.381818182 24 212.381818182 75.5 269.5 c 0,14,15
 117.6884273 316.290801187 117.6884273 316.290801187 184 369 c 1,16,17
 144 415 144 415 122 455.5 c 128,-1,18
 100 496 100 496 100 533.5 c 128,-1,19
 100 571 100 571 110.5 600.5 c 128,-1,20
 121 630 121 630 141.5 658 c 128,-1,21
 162 686 162 686 200 704 c 128,-1,22
 238 722 238 722 281.5 722 c 128,-1,23
 325 722 325 722 354 711 c 128,-1,24
 383 700 383 700 398 684.5 c 128,-1,25
 413 669 413 669 422 648 c 0,26,27
 436 615.333333333 436 615.333333333 436 585 c 0,0,1
358 582 m 0,28,29
 358 610 358 610 340.5 636.5 c 128,-1,30
 323 663 323 663 288 663 c 0,31,32
 238 663 238 663 214.5 627.5 c 128,-1,33
 191 592 191 592 191 558 c 128,-1,34
 191 524 191 524 207.5 495.5 c 128,-1,35
 224 467 224 467 259 427 c 1,36,37
 358 510 358 510 358 582 c 0,28,29
315 177 m 0,38,39
 315 228 315 228 227 320 c 1,40,41
 166 272 166 272 135 233 c 128,-1,42
 104 194 104 194 104 145.5 c 128,-1,43
 104 97 104 97 132 71.5 c 128,-1,44
 160 46 160 46 202.5 46 c 128,-1,45
 245 46 245 46 280 79.5 c 128,-1,46
 315 113 315 113 315 177 c 0,38,39
EndSplineSet
EndChar

StartChar: nine
Encoding: 57 57 25
Width: 486
Flags: HMW
HStem: -215 21G<16 16> 87 68<197.5 222> 441 62<227.5 308.5>
VStem: 43 87<234 303.5 234 320> 374 87<296.5 342>
LayerCount: 2
Fore
SplineSet
461 305 m 0,0,1
 461 280 461 280 458 256 c 0,2,3
 439 120 439 120 354.5 14 c 128,-1,4
 270 -92 270 -92 142 -162 c 1,5,6
 92 -191 92 -191 16 -215 c 1,7,-1
 -7 -163 l 1,8,9
 258 -57 258 -57 338 136 c 1,10,11
 276 87 276 87 203.5 87 c 128,-1,12
 131 87 131 87 87 138.5 c 128,-1,13
 43 190 43 190 43 256 c 0,14,15
 43 354 43 354 112 428.5 c 128,-1,16
 181 503 181 503 272.5 503 c 128,-1,17
 364 503 364 503 412.5 447.5 c 128,-1,18
 461 392 461 392 461 305 c 0,0,1
364 222 m 1,19,20
 374 261 374 261 374 313 c 128,-1,21
 374 365 374 365 349 403 c 128,-1,22
 324 441 324 441 267 441 c 128,-1,23
 210 441 210 441 170 384.5 c 128,-1,24
 130 328 130 328 130 272.5 c 128,-1,25
 130 217 130 217 156.5 186 c 128,-1,26
 183 155 183 155 229 155 c 0,27,28
 295 155 295 155 364 222 c 1,19,20
EndSplineSet
EndChar

StartChar: colon
Encoding: 58 58 26
Width: 247
Flags: HMW
HStem: -13 133<82.5 118.5 82 119> 295 133<127.5 163.5 127 164>
VStem: 35 132<35.5 72> 80 132<343.5 380>
LayerCount: 2
Fore
SplineSet
212 362 m 128,-1,1
 212 334 212 334 192.5 314.5 c 128,-1,2
 173 295 173 295 145.5 295 c 0,3,4
 118 295 118 295 99 314.5 c 128,-1,5
 80 334 80 334 80 361.5 c 0,6,7
 80 389 80 389 99 408.5 c 128,-1,8
 118 428 118 428 145.5 428 c 0,9,10
 173 428 173 428 192.5 409 c 128,-1,0
 212 390 212 390 212 362 c 128,-1,1
167 54 m 128,-1,12
 167 26 167 26 147.5 6.5 c 128,-1,13
 128 -13 128 -13 100.5 -13 c 0,14,15
 73 -13 73 -13 54 6.5 c 128,-1,16
 35 26 35 26 35 53.5 c 0,17,18
 35 81 35 81 54 100.5 c 128,-1,19
 73 120 73 120 100.5 120 c 0,20,21
 128 120 128 120 147.5 101 c 128,-1,11
 167 82 167 82 167 54 c 128,-1,12
EndSplineSet
EndChar

StartChar: semicolon
Encoding: 59 59 27
Width: 251
Flags: HMW
HStem: -125 21G<48 48> 120 175<87 166> 295 133<129.5 165.5 129 166>
VStem: 36 135<35 69.5 14 75.5> 82 132<343.5 380>
LayerCount: 2
Fore
SplineSet
214 362 m 128,-1,1
 214 334 214 334 194.5 314.5 c 128,-1,2
 175 295 175 295 147.5 295 c 0,3,4
 120 295 120 295 101 314.5 c 128,-1,5
 82 334 82 334 82 361.5 c 0,6,7
 82 389 82 389 101 408.5 c 128,-1,8
 120 428 120 428 147.5 428 c 0,9,10
 175 428 175 428 194.5 409 c 128,-1,0
 214 390 214 390 214 362 c 128,-1,1
171 50 m 0,11,12
 171 -42 171 -42 48 -125 c 1,13,-1
 18 -92 l 1,14,-1
 24 -87 l 1,15,16
 76 -45 76 -45 76 -18 c 0,17,18
 76 -11 76 -11 56 11 c 128,-1,19
 36 33 36 33 36 59 c 0,20,21
 36 85 36 85 56 102.5 c 128,-1,22
 76 120 76 120 106 120 c 0,23,24
 136 120 136 120 153.5 100 c 128,-1,25
 171 80 171 80 171 50 c 0,11,12
EndSplineSet
EndChar

StartChar: less
Encoding: 60 60 28
Width: 630
Flags: HMW
HStem: -7 21G<566 566> 474 20G<566 566>
LayerCount: 2
Fore
SplineSet
566 -7 m 1,0,-1
 68 208 l 1,1,-1
 68 281 l 1,2,-1
 566 494 l 1,3,-1
 566 418 l 1,4,-1
 161 243 l 1,5,-1
 566 68 l 1,6,-1
 566 -7 l 1,0,-1
EndSplineSet
EndChar

StartChar: equal
Encoding: 61 61 29
Width: 630
Flags: HMW
HStem: 115 69<68 567 68 567> 305 68<68 567 68 567>
LayerCount: 2
Fore
SplineSet
567 305 m 1,0,-1
 68 305 l 1,1,-1
 68 373 l 1,2,-1
 567 373 l 1,3,-1
 567 305 l 1,0,-1
567 115 m 1,4,-1
 68 115 l 1,5,-1
 68 184 l 1,6,-1
 567 184 l 1,7,-1
 567 115 l 1,4,-1
EndSplineSet
EndChar

StartChar: greater
Encoding: 62 62 30
Width: 630
Flags: HMW
HStem: -7 21G<68 68> 474 20G<68 68>
LayerCount: 2
Fore
SplineSet
566 208 m 1,0,-1
 68 -7 l 1,1,-1
 68 68 l 1,2,-1
 473 243 l 1,3,-1
 68 418 l 1,4,-1
 68 494 l 1,5,-1
 566 281 l 1,6,-1
 566 208 l 1,0,-1
EndSplineSet
EndChar

StartChar: question
Encoding: 63 63 31
Width: 382
Flags: HMW
HStem: -14 133<84 119 83 119.5> 664 65<217 247.5>
VStem: 35 132<34.5 69.5> 57 78<313 393.5 313 436> 305 80<531 622>
LayerCount: 2
Fore
SplineSet
341 691 m 128,-1,1
 385 653 385 653 385 590.5 c 128,-1,2
 385 528 385 528 359.5 493 c 128,-1,3
 334 458 334 458 297 442.5 c 128,-1,4
 260 427 260 427 223 415.5 c 128,-1,5
 186 404 186 404 160.5 386.5 c 128,-1,6
 135 369 135 369 135 336.5 c 128,-1,7
 135 304 135 304 173.5 287.5 c 128,-1,8
 212 271 212 271 256 271 c 1,9,-1
 237 203 l 1,10,11
 161 210 161 210 109 243.5 c 128,-1,12
 57 277 57 277 57 345 c 0,13,14
 57 395 57 395 82.5 427 c 128,-1,15
 108 459 108 459 144.5 474 c 128,-1,16
 181 489 181 489 217.5 502 c 128,-1,17
 254 515 254 515 279.5 539 c 128,-1,18
 305 563 305 563 305 596.5 c 128,-1,19
 305 630 305 630 282 647 c 128,-1,20
 259 664 259 664 218.5 664 c 128,-1,21
 178 664 178 664 153 650 c 1,22,-1
 136 717 l 1,23,24
 175 729 175 729 236 729 c 128,-1,0
 297 729 297 729 341 691 c 128,-1,1
147.5 99 m 128,-1,26
 167 79 167 79 167 52.5 c 128,-1,27
 167 26 167 26 147.5 6 c 128,-1,28
 128 -14 128 -14 101.5 -14 c 128,-1,29
 75 -14 75 -14 55 5.5 c 128,-1,30
 35 25 35 25 35 52 c 128,-1,31
 35 79 35 79 54.5 99 c 128,-1,32
 74 119 74 119 101 119 c 128,-1,25
 128 119 128 119 147.5 99 c 128,-1,26
EndSplineSet
EndChar

StartChar: at
Encoding: 64 64 32
Width: 831
Flags: HMW
HStem: -128 42<288.5 379 288.5 381.5> 50 45 391 49<402 459.5> 574 42<343 528.5>
VStem: 51 50<113 284.5 113 294.5> 248 74<173 226.5 173 246.5> 729 50<258 394.5>
LayerCount: 2
Fore
SplineSet
486 113 m 1,0,-1
 484 114 l 1,1,2
 463 84 463 84 431.5 67 c 128,-1,3
 400 50 400 50 369 50 c 0,4,5
 307 50 307 50 277.5 91.5 c 128,-1,6
 248 133 248 133 248 191 c 128,-1,7
 248 249 248 249 270.5 303.5 c 128,-1,8
 293 358 293 358 341 399 c 128,-1,9
 389 440 389 440 445.5 440 c 128,-1,10
 502 440 502 440 533 404 c 1,11,12
 540 413 540 413 549 433 c 1,13,-1
 586 433 l 1,14,-1
 566 298 l 1,15,16
 546 174 546 174 546 147 c 0,17,18
 546 95 546 95 592 95 c 0,19,20
 653 95 653 95 691 160.5 c 128,-1,21
 729 226 729 226 729 311 c 0,22,23
 729 432 729 432 650 503 c 128,-1,24
 571 574 571 574 459.5 574 c 128,-1,25
 348 574 348 574 265.5 516.5 c 128,-1,26
 183 459 183 459 142 373 c 128,-1,27
 101 287 101 287 101 192 c 0,28,29
 101 73 101 73 176 -6.5 c 128,-1,30
 251 -86 251 -86 366 -86 c 0,31,32
 404 -86 404 -86 446 -75 c 1,33,-1
 458 -116 l 1,34,35
 413 -128 413 -128 366 -128 c 0,36,37
 229 -128 229 -128 140 -36.5 c 128,-1,38
 51 55 51 55 51 192 c 0,39,40
 51 297 51 297 98.5 392.5 c 128,-1,41
 146 488 146 488 240 552 c 128,-1,42
 334 616 334 616 462.5 616 c 128,-1,43
 591 616 591 616 685 534 c 128,-1,44
 779 452 779 452 779 311 c 0,45,46
 779 210 779 210 726.5 131 c 128,-1,47
 674 52 674 52 590 52 c 0,48,49
 556 52 556 52 531.5 65.5 c 128,-1,50
 507 79 507 79 499 90.5 c 128,-1,51
 491 102 491 102 487 113 c 1,52,-1
 486 113 l 1,0,-1
510 359 m 1,53,54
 480 391 480 391 442.5 391 c 128,-1,55
 405 391 405 391 375.5 354 c 0,56,57
 322 286.898305085 322 286.898305085 322 192.949152542 c 128,-1,58
 322 99 322 99 383 99 c 0,59,60
 448.989690722 99 448.989690722 99 478 199.5 c 0,61,62
 499.655696203 274.521518987 499.655696203 274.521518987 510 359 c 1,53,54
EndSplineSet
EndChar

StartChar: A
Encoding: 65 65 33
Width: 605
Flags: HMW
HStem: 0 21G<-6 75 -6 -6 464 561 464 464> 249 67<221 404 221 417 190 404> 704 20G<332 419 419 419>
LayerCount: 2
Fore
SplineSet
561 0 m 1,0,-1
 464 0 l 1,1,-1
 417 249 l 1,2,-1
 190 249 l 1,3,-1
 75 0 l 1,4,-1
 -6 0 l 1,5,-1
 332 724 l 1,6,-1
 419 724 l 1,7,-1
 561 0 l 1,0,-1
404 316 m 1,8,-1
 351 602 l 1,9,-1
 221 316 l 1,10,-1
 404 316 l 1,8,-1
EndSplineSet
EndChar

StartChar: B
Encoding: 66 66 34
Width: 580
Flags: HMW
HStem: 0 69<145 234> 355 72<193 288 182 292> 655 69<223 345 223 223>
VStem: 441 93<179.5 279 142.5 283> 456 94<528.5 602.5>
LayerCount: 2
Fore
SplineSet
550 574 m 0,0,1
 550 507 550 507 510 460 c 128,-1,2
 470 413 470 413 404 395 c 1,3,4
 534 362 534 362 534 235 c 0,5,6
 534 0 534 0 234 0 c 2,7,-1
 45 0 l 1,8,-1
 134 659 l 1,9,-1
 134 724 l 1,10,-1
 356 724 l 2,11,12
 550 724 550 724 550 574 c 0,0,1
456 570 m 0,13,14
 456 655 456 655 345 655 c 2,15,-1
 223 655 l 1,16,-1
 193 427 l 1,17,-1
 292 427 l 2,18,19
 368 427 368 427 412 462.5 c 128,-1,20
 456 498 456 498 456 570 c 0,13,14
441 241 m 0,21,22
 441 300 441 300 397 327.5 c 128,-1,23
 353 355 353 355 288 355 c 2,24,-1
 182 355 l 1,25,-1
 145 69 l 1,26,-1
 248 69 l 2,27,28
 441 69 441 69 441 241 c 0,21,22
EndSplineSet
EndChar

StartChar: C
Encoding: 67 67 35
Width: 585
Flags: HMW
HStem: -10 75<264 359.5> 665 69<319 441>
VStem: 45 97<229.5 373 229.5 407>
LayerCount: 2
Fore
SplineSet
620 657 m 1,0,-1
 564 599 l 1,1,2
 508 665 508 665 413 665 c 0,3,4
 346 665 346 665 292 630 c 128,-1,5
 238 595 238 595 206.5 539 c 0,6,7
 142 424.333333333 142 424.333333333 142 292 c 0,8,9
 142 191 142 191 188.5 128 c 128,-1,10
 235 65 235 65 330.5 65 c 128,-1,11
 426 65 426 65 510 127 c 1,12,-1
 541 59 l 1,13,14
 443 -10 443 -10 316 -10 c 128,-1,15
 189 -10 189 -10 117 76.5 c 128,-1,16
 45 163 45 163 45 298 c 0,17,18
 45 410 45 410 87.5 507.5 c 128,-1,19
 130 605 130 605 218.5 669.5 c 128,-1,20
 307 734 307 734 430.5 734 c 128,-1,21
 554 734 554 734 620 657 c 1,0,-1
EndSplineSet
EndChar

StartChar: D
Encoding: 68 68 36
Width: 679
Flags: HMW
HStem: 0 69<145 275> 655 69<223 369 223 223>
VStem: 545 94<354 487.5>
LayerCount: 2
Fore
SplineSet
639 434 m 0,0,1
 639 263.655172414 639 263.655172414 550.5 136.5 c 0,2,3
 507 74 507 74 436 37 c 128,-1,4
 365 0 365 0 275 0 c 2,5,-1
 45 0 l 1,6,-1
 134 659 l 1,7,-1
 134 724 l 1,8,-1
 378 724 l 2,9,10
 508 724 508 724 573.5 643.5 c 128,-1,11
 639 563 639 563 639 434 c 0,0,1
545 430 m 0,12,13
 545 528 545 528 503.5 591.5 c 128,-1,14
 462 655 462 655 369 655 c 2,15,-1
 223 655 l 1,16,-1
 145 69 l 1,17,-1
 281 69 l 2,18,19
 348 69 348 69 400.5 103.5 c 128,-1,20
 453 138 453 138 483.5 193 c 0,21,22
 545 303.901639344 545 303.901639344 545 430 c 0,12,13
EndSplineSet
EndChar

StartChar: E
Encoding: 69 69 37
Width: 500
Flags: HMW
HStem: 0 69<143 447> 337 68<189 421 179 431> 655 69<221 534 221 221>
LayerCount: 2
Fore
SplineSet
544 724 m 1,0,-1
 534 655 l 1,1,-1
 221 655 l 1,2,-1
 189 405 l 1,3,-1
 431 405 l 1,4,-1
 421 337 l 1,5,-1
 179 337 l 1,6,-1
 143 69 l 1,7,-1
 456 69 l 1,8,-1
 447 0 l 1,9,-1
 45 0 l 1,10,-1
 133 659 l 1,11,-1
 133 724 l 1,12,-1
 544 724 l 1,0,-1
EndSplineSet
EndChar

StartChar: F
Encoding: 70 70 38
Width: 468
Flags: HMW
HStem: 0 21G<44 133 44 44> 338 68<189 402 179 412> 655 69<221 503 221 221>
LayerCount: 2
Fore
SplineSet
512 724 m 1,0,-1
 503 655 l 1,1,-1
 221 655 l 1,2,-1
 189 406 l 1,3,-1
 412 406 l 1,4,-1
 402 338 l 1,5,-1
 179 338 l 1,6,-1
 133 0 l 1,7,-1
 44 0 l 1,8,-1
 132 659 l 1,9,-1
 132 724 l 1,10,-1
 512 724 l 1,0,-1
EndSplineSet
EndChar

StartChar: G
Encoding: 71 71 39
Width: 667
Flags: HMW
HStem: -10 75<255 339.5> 0 21G<528 576 528 528> 305 68<359 519 350 619> 665 69<316.5 449.5>
VStem: 45 95<231.5 375.5 231.5 391.5>
LayerCount: 2
Fore
SplineSet
640 651 m 1,0,-1
 583 592 l 1,1,2
 544 631 544 631 505.5 648 c 128,-1,3
 467 665 467 665 405.5 665 c 128,-1,4
 344 665 344 665 289.5 630.5 c 128,-1,5
 235 596 235 596 203.5 540.5 c 0,6,7
 140 428.619047619 140 428.619047619 140 292 c 0,8,9
 140 192 140 192 184 128.5 c 128,-1,10
 228 65 228 65 323 65 c 0,11,12
 397 65 397 65 449 114.5 c 128,-1,13
 501 164 501 164 511 240 c 2,14,-1
 519 305 l 1,15,-1
 350 305 l 1,16,-1
 359 373 l 1,17,-1
 619 373 l 1,18,19
 593 198 593 198 576 0 c 1,20,-1
 528 0 l 1,21,-1
 509 75 l 1,22,23
 421 -10 421 -10 297 -10 c 128,-1,24
 173 -10 173 -10 109 72 c 128,-1,25
 45 154 45 154 45 281 c 0,26,27
 45 456.428571429 45 456.428571429 138.5 590 c 0,28,29
 184 655 184 655 257.5 694.5 c 128,-1,30
 331 734 331 734 422 734 c 0,31,32
 481 734 481 734 543.5 713.5 c 128,-1,33
 606 693 606 693 640 651 c 1,0,-1
EndSplineSet
EndChar

StartChar: H
Encoding: 72 72 40
Width: 672
Flags: HMW
HStem: 0 21G<44 134 44 44 468 558 468 468> 342 68<190 514 180 524> 704 20G<133 232 232 232 566 656 656 656>
LayerCount: 2
Fore
SplineSet
656 724 m 1,0,-1
 558 0 l 1,1,-1
 468 0 l 1,2,-1
 514 342 l 1,3,-1
 180 342 l 1,4,-1
 134 0 l 1,5,-1
 44 0 l 1,6,-1
 133 659 l 1,7,-1
 133 724 l 1,8,-1
 232 724 l 1,9,-1
 190 410 l 1,10,-1
 524 410 l 1,11,-1
 566 724 l 1,12,-1
 656 724 l 1,0,-1
EndSplineSet
EndChar

StartChar: I
Encoding: 73 73 41
Width: 251
Flags: HMW
HStem: 0 21G<47 137 47 47> 704 20G<136 235 235 235>
LayerCount: 2
Fore
SplineSet
235 724 m 1,0,-1
 137 0 l 1,1,-1
 47 0 l 1,2,-1
 136 659 l 1,3,-1
 136 724 l 1,4,-1
 235 724 l 1,0,-1
EndSplineSet
EndChar

StartChar: J
Encoding: 74 74 42
Width: 253
Flags: HMW
HStem: -229 64<-83.5 -28.5 -83.5 4> 704 20G<140 238 238 238>
LayerCount: 2
Fore
SplineSet
238 724 m 1,0,-1
 139 9 l 2,1,2
 123 -106 123 -106 77.5 -167.5 c 128,-1,3
 32 -229 32 -229 -67 -229 c 0,4,5
 -138 -229 -138 -229 -181 -197 c 1,6,-1
 -141 -140 l 1,7,8
 -106 -165 -106 -165 -68 -165 c 0,9,10
 25 -165 25 -165 52 17 c 1,11,-1
 140 660 l 1,12,-1
 140 724 l 1,13,-1
 238 724 l 1,0,-1
EndSplineSet
EndChar

StartChar: K
Encoding: 75 75 43
Width: 558
Flags: HMW
HStem: 0 21G<44 134 44 44 407 518 407 407> 704 20G<133 232 232 232 504 598 598 598>
LayerCount: 2
Fore
SplineSet
598 724 m 1,0,-1
 281 401 l 1,1,-1
 518 0 l 1,2,-1
 407 0 l 1,3,-1
 185 379 l 1,4,-1
 134 0 l 1,5,-1
 44 0 l 1,6,-1
 133 659 l 1,7,-1
 133 724 l 1,8,-1
 232 724 l 1,9,-1
 188 401 l 1,10,-1
 504 724 l 1,11,-1
 598 724 l 1,0,-1
EndSplineSet
EndChar

StartChar: L
Encoding: 76 76 44
Width: 471
Flags: HMW
HStem: 0 69<146 425> 704 20G<134 234 234 234>
LayerCount: 2
Fore
SplineSet
435 69 m 1,0,-1
 425 0 l 1,1,-1
 45 0 l 1,2,-1
 134 659 l 1,3,-1
 134 724 l 1,4,-1
 234 724 l 1,5,-1
 146 69 l 1,6,-1
 435 69 l 1,0,-1
EndSplineSet
EndChar

StartChar: M
Encoding: 77 77 45
Width: 789
Flags: HMW
HStem: -2 21G<325 378 325 325> 0 21G<44 117 44 44 585 675 585 585> 704 20G<132 256 256 256 655 773 773 773>
LayerCount: 2
Fore
SplineSet
773 724 m 1,0,-1
 675 0 l 1,1,-1
 585 0 l 1,2,-1
 664 589 l 1,3,-1
 378 -2 l 1,4,-1
 325 -2 l 1,5,-1
 197 590 l 1,6,-1
 117 0 l 1,7,-1
 44 0 l 1,8,-1
 132 660 l 1,9,-1
 132 724 l 1,10,-1
 256 724 l 1,11,-1
 381 161 l 1,12,-1
 655 724 l 1,13,-1
 773 724 l 1,0,-1
EndSplineSet
EndChar

StartChar: N
Encoding: 78 78 46
Width: 674
Flags: HMW
HStem: -5 21G<502 559 502 502> 0 21G<45 119 45 45> 704 20G<134 248 248 248 584 657 657 657>
LayerCount: 2
Fore
SplineSet
657 724 m 1,0,-1
 559 -5 l 1,1,-1
 502 -5 l 1,2,-1
 201 612 l 1,3,-1
 119 0 l 1,4,-1
 45 0 l 1,5,-1
 134 659 l 1,6,-1
 134 724 l 1,7,-1
 248 724 l 1,8,-1
 510 183 l 1,9,-1
 584 724 l 1,10,-1
 657 724 l 1,0,-1
EndSplineSet
EndChar

StartChar: O
Encoding: 79 79 47
Width: 708
Flags: HMW
HStem: -10 69<249 410.5 249 425> 665 69<304.5 465>
VStem: 45 95<233 370 233 395.5> 574 94<354 492>
LayerCount: 2
Fore
SplineSet
668 438 m 0,0,1
 668 264.897727273 668 264.897727273 577 131.5 c 0,2,3
 533 67 533 67 462 28.5 c 128,-1,4
 391 -10 391 -10 304 -10 c 0,5,6
 175 -10 175 -10 110 74 c 128,-1,7
 45 158 45 158 45 289 c 0,8,9
 45 458.793103448 45 458.793103448 134.5 591.5 c 0,10,11
 178 656 178 656 248.5 695 c 128,-1,12
 319 734 319 734 407 734 c 0,13,14
 538 734 538 734 603 652 c 128,-1,15
 668 570 668 570 668 438 c 0,0,1
574 433 m 0,16,17
 574 533 574 533 532.5 599 c 128,-1,18
 491 665 491 665 398 665 c 0,19,20
 344 665 344 665 299.5 641 c 128,-1,21
 255 617 255 617 226 579 c 128,-1,22
 197 541 197 541 177 491 c 0,23,24
 140 398.5 140 398.5 140 291 c 0,25,26
 140 197.384615385 140 197.384615385 177.5 132 c 0,27,28
 219.367647059 59 219.367647059 59 317 59 c 0,29,30
 384 59 384 59 435.5 94.5 c 128,-1,31
 487 130 487 130 516 187.5 c 0,32,33
 574 302.5 574 302.5 574 433 c 0,16,17
EndSplineSet
EndChar

StartChar: P
Encoding: 80 80 48
Width: 539
Flags: HMW
HStem: 0 21G<46 137 46 46> 286 67<185 279 175 285> 655 69<225 324 225 225>
VStem: 450 94<484 572>
LayerCount: 2
Fore
SplineSet
544 543 m 0,0,1
 544 427 544 427 470.5 356.5 c 128,-1,2
 397 286 397 286 279 286 c 2,3,-1
 175 286 l 1,4,-1
 137 0 l 1,5,-1
 46 0 l 1,6,-1
 135 659 l 1,7,-1
 135 724 l 1,8,-1
 332 724 l 2,9,10
 427 724 427 724 485.5 680.5 c 128,-1,11
 544 637 544 637 544 543 c 0,0,1
405 405 m 128,-1,13
 450 457 450 457 450 524.5 c 128,-1,14
 450 592 450 592 417 623.5 c 128,-1,15
 384 655 384 655 324 655 c 2,16,-1
 225 655 l 1,17,-1
 185 353 l 1,18,-1
 285 353 l 2,19,12
 360 353 360 353 405 405 c 128,-1,13
EndSplineSet
EndChar

StartChar: Q
Encoding: 81 81 49
Width: 714
Flags: HMW
HStem: -222 64<837.5 899.5> 665 69<304.5 465>
VStem: 45 95<230.5 367.5 230.5 393.5> 574 94<355.5 489.5>
LayerCount: 2
Fore
SplineSet
1069 -128 m 1,0,-1
 1084 -175 l 1,1,2
 953 -222 953 -222 871 -222 c 128,-1,3
 789 -222 789 -222 704 -191.5 c 128,-1,4
 619 -161 619 -161 552 -124 c 0,5,6
 365.806629834 -21.1767955801 365.806629834 -21.1767955801 281 -11 c 0,7,8
 159 4 159 4 102 87.5 c 128,-1,9
 45 171 45 171 45 287 c 0,10,11
 45 456.264367816 45 456.264367816 134.5 590 c 0,12,13
 178 655 178 655 248.5 694.5 c 128,-1,14
 319 734 319 734 407 734 c 0,15,16
 537 734 537 734 602.5 651 c 128,-1,17
 668 568 668 568 668 436.5 c 128,-1,18
 668 305 668 305 609 185.5 c 128,-1,19
 550 66 550 66 439 15 c 1,20,21
 475 2 475 2 493 -10 c 1,22,23
 757 -158 757 -158 899 -158 c 0,24,25
 964 -158 964 -158 1069 -128 c 1,0,-1
574 430 m 0,26,27
 574 531 574 531 532.5 598 c 128,-1,28
 491 665 491 665 398 665 c 0,29,30
 344 665 344 665 299.5 641 c 128,-1,31
 255 617 255 617 226 578 c 128,-1,32
 197 539 197 539 177 489 c 0,33,34
 140 396.5 140 396.5 140 292.75 c 128,-1,35
 140 189 140 189 181.5 122.5 c 128,-1,36
 223 56 223 56 317 56 c 0,37,38
 384 56 384 56 435.5 92 c 128,-1,39
 487 128 487 128 516 185.5 c 0,40,41
 574 300.5 574 300.5 574 430 c 0,26,27
EndSplineSet
EndChar

StartChar: R
Encoding: 82 82 50
Width: 568
Flags: HMW
HStem: 0 21G<44 135 44 44 431 534 431 431> 324 68<188 206 178 261> 655 69<223 326 223 223>
VStem: 451 94<508 585>
LayerCount: 2
Fore
SplineSet
490 683 m 128,-1,1
 545 642 545 642 545 562.5 c 128,-1,2
 545 483 545 483 500.5 422.5 c 128,-1,3
 456 362 456 362 386 343 c 1,4,-1
 534 0 l 1,5,-1
 431 0 l 1,6,-1
 296 326 l 1,7,8
 281 324 281 324 206 324 c 2,9,-1
 178 324 l 1,10,-1
 135 0 l 1,11,-1
 44 0 l 1,12,-1
 133 659 l 1,13,-1
 133 724 l 1,14,-1
 349 724 l 2,15,0
 435 724 435 724 490 683 c 128,-1,1
451 549 m 0,16,17
 451 601 451 601 416 628 c 128,-1,18
 381 655 381 655 326 655 c 2,19,-1
 223 655 l 1,20,-1
 188 392 l 1,21,-1
 261 392 l 2,22,23
 348 392 348 392 399.5 430 c 128,-1,24
 451 468 451 468 451 549 c 0,16,17
EndSplineSet
EndChar

StartChar: S
Encoding: 83 83 51
Width: 507
Flags: HMW
HStem: -10 69<176.5 250.5 176.5 275> 665 69<295.5 355.5>
VStem: 98 92<482 587.5 482 601> 364 94<168 284.5>
LayerCount: 2
Fore
SplineSet
498 687 m 1,0,-1
 456 619 l 1,1,2
 399 665 399 665 336.5 665 c 128,-1,3
 274 665 274 665 232 634 c 128,-1,4
 190 603 190 603 190 550 c 0,5,6
 190 485.632911392 190 485.632911392 284.5 433 c 0,7,8
 324 411 324 411 363.5 386 c 128,-1,9
 403 361 403 361 430.5 319 c 128,-1,10
 458 277 458 277 458 221 c 0,11,12
 458 119 458 119 385 54.5 c 128,-1,13
 312 -10 312 -10 209 -10 c 128,-1,14
 106 -10 106 -10 12 44 c 1,15,-1
 54 119 l 1,16,17
 102 85 102 85 132.5 72 c 128,-1,18
 163 59 163 59 217 59 c 128,-1,19
 271 59 271 59 317.5 104 c 128,-1,20
 364 149 364 149 364 208 c 0,21,22
 364 281.679487179 364 281.679487179 270 333.5 c 0,23,24
 231 355 231 355 192 378.5 c 128,-1,25
 153 402 153 402 125.5 441.5 c 128,-1,26
 98 481 98 481 98 535 c 0,27,28
 98 629 98 629 168 681.5 c 128,-1,29
 238 734 238 734 333 734 c 128,-1,30
 428 734 428 734 498 687 c 1,0,-1
EndSplineSet
EndChar

StartChar: T
Encoding: 84 84 52
Width: 514
Flags: HMW
HStem: 0 21G<161 252 161 161> 655 69<50 249 40 558 340 549 340 340>
LayerCount: 2
Fore
SplineSet
558 724 m 1,0,-1
 549 655 l 1,1,-1
 340 655 l 1,2,-1
 252 0 l 1,3,-1
 161 0 l 1,4,-1
 249 655 l 1,5,-1
 40 655 l 1,6,-1
 50 724 l 1,7,-1
 558 724 l 1,0,-1
EndSplineSet
EndChar

StartChar: U
Encoding: 85 85 53
Width: 638
Flags: HMW
HStem: -10 69<228 342 228 363> 704 20G<106 206 206 206 549 623 623 623>
VStem: 46 92<160 200>
LayerCount: 2
Fore
SplineSet
623 724 m 1,0,-1
 559 257 l 2,1,2
 542 136 542 136 472 63 c 128,-1,3
 402 -10 402 -10 277 -10 c 0,4,5
 152 -10 152 -10 99 45.5 c 128,-1,6
 46 101 46 101 46 192 c 0,7,8
 46 219 46 219 50 244 c 2,9,-1
 106 660 l 1,10,-1
 106 724 l 1,11,-1
 206 724 l 1,12,-1
 141 243 l 2,13,14
 138 219 138 219 138 200 c 0,15,16
 138 135 138 135 172 97 c 128,-1,17
 206 59 206 59 288 59 c 0,18,19
 370 59 370 59 422 112 c 128,-1,20
 474 165 474 165 486 258 c 2,21,-1
 549 724 l 1,22,-1
 623 724 l 1,0,-1
EndSplineSet
EndChar

StartChar: V
Encoding: 86 86 54
Width: 518
Flags: HMW
HStem: -3 21G<185 241 185 185> 704 20G<44 139 139 139 501 578 578 578>
LayerCount: 2
Fore
SplineSet
578 724 m 1,0,-1
 241 -3 l 1,1,-1
 185 -3 l 1,2,-1
 44 724 l 1,3,-1
 139 724 l 1,4,-1
 242 163 l 1,5,-1
 501 724 l 1,6,-1
 578 724 l 1,0,-1
EndSplineSet
EndChar

StartChar: W
Encoding: 87 87 55
Width: 795
Flags: HMW
HStem: -3 21G<139 212 139 139 494 567 494 494> 704 20G<44 138 138 138 424 494 494 494 780 854 854 854>
LayerCount: 2
Fore
SplineSet
854 724 m 1,0,-1
 567 -3 l 1,1,-1
 494 -3 l 1,2,-1
 425 537 l 1,3,-1
 212 -3 l 1,4,-1
 139 -3 l 1,5,-1
 44 724 l 1,6,-1
 138 724 l 1,7,-1
 208 172 l 1,8,-1
 424 724 l 1,9,-1
 494 724 l 1,10,-1
 563 172 l 1,11,-1
 780 724 l 1,12,-1
 854 724 l 1,0,-1
EndSplineSet
EndChar

StartChar: X
Encoding: 88 88 56
Width: 545
Flags: HMW
HStem: 0 21G<-33 51 -33 -33 398 502 398 398> 704 20G<83 185 185 185 493 578 578 578>
LayerCount: 2
Fore
SplineSet
578 724 m 1,0,-1
 332 389 l 1,1,-1
 502 0 l 1,2,-1
 398 0 l 1,3,-1
 267 298 l 1,4,-1
 51 0 l 1,5,-1
 -33 0 l 1,6,-1
 236 372 l 1,7,-1
 83 724 l 1,8,-1
 185 724 l 1,9,-1
 301 460 l 1,10,-1
 493 724 l 1,11,-1
 578 724 l 1,0,-1
EndSplineSet
EndChar

StartChar: Y
Encoding: 89 89 57
Width: 477
Flags: HMW
HStem: 0 21G<151 242 151 151> 704 20G<42 145 145 145 454 538 538 538>
LayerCount: 2
Fore
SplineSet
538 724 m 1,0,-1
 290 358 l 1,1,-1
 242 0 l 1,2,-1
 151 0 l 1,3,-1
 199 359 l 1,4,-1
 42 724 l 1,5,-1
 145 724 l 1,6,-1
 267 444 l 1,7,-1
 454 724 l 1,8,-1
 538 724 l 1,0,-1
EndSplineSet
EndChar

StartChar: Z
Encoding: 90 90 58
Width: 532
Flags: HMW
HStem: 0 69<99 454> 655 69<101 430 92 546>
LayerCount: 2
Fore
SplineSet
546 724 m 1,0,-1
 537 657 l 1,1,-1
 99 69 l 1,2,-1
 470 69 l 1,3,-1
 454 0 l 1,4,-1
 -17 0 l 1,5,-1
 -8 67 l 1,6,-1
 430 655 l 1,7,-1
 92 655 l 1,8,-1
 101 724 l 1,9,-1
 546 724 l 1,0,-1
EndSplineSet
EndChar

StartChar: bracketleft
Encoding: 91 91 59
Width: 332
Flags: HMW
HStem: -130 49<128 240> 675 49<234 354 234 234>
LayerCount: 2
Fore
SplineSet
361 724 m 1,0,-1
 354 675 l 1,1,-1
 234 675 l 1,2,-1
 128 -81 l 1,3,-1
 248 -81 l 1,4,-1
 240 -130 l 1,5,-1
 42 -130 l 1,6,-1
 163 724 l 1,7,-1
 361 724 l 1,0,-1
EndSplineSet
EndChar

StartChar: backslash
Encoding: 92 92 60
Width: 359
Flags: HMW
HStem: 0 21G<257 321 257 257> 704 20G<5 72 72 72>
LayerCount: 2
Fore
SplineSet
321 0 m 1,0,-1
 257 0 l 1,1,-1
 5 724 l 1,2,-1
 72 724 l 1,3,-1
 321 0 l 1,0,-1
EndSplineSet
EndChar

StartChar: bracketright
Encoding: 93 93 61
Width: 327
Flags: HMW
HStem: -128 49<-2 118 -2 188 -10 118> 676 48<111 224 103 309>
LayerCount: 2
Fore
SplineSet
309 724 m 1,0,-1
 188 -128 l 1,1,-1
 -10 -128 l 1,2,-1
 -2 -79 l 1,3,-1
 118 -79 l 1,4,-1
 224 676 l 1,5,-1
 103 676 l 1,6,-1
 111 724 l 1,7,-1
 309 724 l 1,0,-1
EndSplineSet
EndChar

StartChar: asciicircum
Encoding: 94 94 62
Width: 618
Flags: HMW
HStem: 0 21G<56 133 56 56 487 563 487 487> 471 20G<272 345 345 345>
LayerCount: 2
Fore
SplineSet
563 0 m 1,0,-1
 487 0 l 1,1,-1
 310 400 l 1,2,-1
 133 0 l 1,3,-1
 56 0 l 1,4,-1
 272 491 l 1,5,-1
 345 491 l 1,6,-1
 563 0 l 1,0,-1
EndSplineSet
EndChar

StartChar: underscore
Encoding: 95 95 63
Width: 462
Flags: HMW
HStem: -128 55<-12 471 -21 480>
LayerCount: 2
Fore
SplineSet
480 -73 m 1,0,-1
 471 -128 l 1,1,-1
 -21 -128 l 1,2,-1
 -12 -73 l 1,3,-1
 480 -73 l 1,0,-1
EndSplineSet
EndChar

StartChar: grave
Encoding: 96 96 64
Width: 248
Flags: HMW
HStem: 577 21G<177 250 177 177> 704 20G<50 168 168 168>
LayerCount: 2
Fore
SplineSet
250 577 m 1,0,-1
 177 577 l 1,1,-1
 50 724 l 1,2,-1
 168 724 l 1,3,-1
 250 577 l 1,0,-1
EndSplineSet
EndChar

StartChar: a
Encoding: 97 97 65
Width: 526
Flags: HMW
HStem: -13 62<178 224> 441 62<243 318.5> 475 20G<430 474 474 474>
VStem: 37 93<147.5 223 147.5 250> 346 70<74 97.5>
LayerCount: 2
Fore
SplineSet
489 62 m 1,0,-1
 500 12 l 1,1,2
 456 -11 456 -11 423 -11 c 128,-1,3
 390 -11 390 -11 368.5 13 c 128,-1,4
 347 37 347 37 346 74 c 1,5,-1
 342 74 l 1,6,7
 286 -13 286 -13 194 -13 c 0,8,9
 117 -13 117 -13 77 40.5 c 128,-1,10
 37 94 37 94 37 173 c 128,-1,11
 37 252 37 252 68.5 325.5 c 128,-1,12
 100 399 100 399 162 451 c 128,-1,13
 224 503 224 503 298.5 503 c 128,-1,14
 373 503 373 503 409 456 c 1,15,-1
 430 495 l 1,16,-1
 474 495 l 1,17,-1
 418 115 l 2,18,19
 416 101 416 101 416 94 c 0,20,21
 416 54 416 54 449 54 c 0,22,23
 465 54 465 54 489 62 c 1,0,-1
368 307 m 2,24,-1
 382 403 l 1,25,26
 349 441 349 441 298 441 c 128,-1,27
 247 441 247 441 205.5 393.5 c 128,-1,28
 164 346 164 346 147 287 c 128,-1,29
 130 228 130 228 130 176 c 128,-1,30
 130 124 130 124 148.5 86.5 c 128,-1,31
 167 49 167 49 210.5 49 c 128,-1,32
 254 49 254 49 287.5 87.5 c 0,33,34
 346.660647103 155.490594432 346.660647103 155.490594432 368 307 c 2,24,-1
EndSplineSet
EndChar

StartChar: b
Encoding: 98 98 66
Width: 501
Flags: HMW
HStem: -13 62<165 247 165 256> 441 62<276 323> 744 20G<124 212 212 212>
VStem: 375 88<267 352>
LayerCount: 2
Fore
SplineSet
463 318 m 0,0,1
 463 181 463 181 380.5 84 c 128,-1,2
 298 -13 298 -13 162 -13 c 0,3,4
 130 -13 130 -13 94.5 -1 c 128,-1,5
 59 11 59 11 37 33 c 1,6,-1
 124 707 l 1,7,-1
 124 764 l 1,8,-1
 212 764 l 1,9,-1
 169 444 l 1,10,11
 238 503 238 503 310.5 503 c 0,12,13
 383 503 383 503 423 450.5 c 128,-1,14
 463 398 463 398 463 318 c 0,0,1
375 322 m 0,15,16
 375 441 375 441 290 441 c 0,17,18
 255 441 255 441 218.5 419.5 c 128,-1,19
 182 398 182 398 159 367 c 1,20,-1
 126 109 l 2,21,22
 125 108 125 108 125 105 c 2,23,-1
 125 98 l 2,24,25
 125 49 125 49 184 49 c 0,26,27
 243 49 243 49 288.5 95.5 c 128,-1,28
 334 142 334 142 354.5 202.5 c 128,-1,29
 375 263 375 263 375 322 c 0,15,16
EndSplineSet
EndChar

StartChar: c
Encoding: 99 99 67
Width: 421
Flags: HMW
HStem: -13 69<193.5 254.5> 441 62<225.5 301>
VStem: 36 87<174 255 174 276.5>
LayerCount: 2
Fore
SplineSet
430 452 m 1,0,-1
 380 397 l 1,1,2
 336 441 336 441 282.5 441 c 128,-1,3
 229 441 229 441 192 401 c 0,4,5
 123 326.405405405 123 326.405405405 123 210 c 0,6,7
 123 148 123 148 150.5 102 c 128,-1,8
 178 56 178 56 235.5 56 c 128,-1,9
 293 56 293 56 355 100 c 1,10,-1
 383 36 l 1,11,12
 333 9 333 9 300.5 -2 c 128,-1,13
 268 -13 268 -13 221 -13 c 0,14,15
 132 -13 132 -13 84 46 c 128,-1,16
 36 105 36 105 36 197 c 0,17,18
 36 322 36 322 107.5 412.5 c 128,-1,19
 179 503 179 503 297 503 c 0,20,21
 373 503 373 503 430 452 c 1,0,-1
EndSplineSet
EndChar

StartChar: d
Encoding: 100 100 68
Width: 526
Flags: HMW
HStem: -13 63<176.5 226.5> 441 62<242.5 317> 744 20G<422 509 509 509>
VStem: 36 92<147 221 147 248> 345 70<70 92 74 92>
LayerCount: 2
Fore
SplineSet
509 764 m 1,0,-1
 416 104 l 2,1,2
 415 103 415 103 415 99 c 2,3,-1
 415 92 l 2,4,5
 415 54 415 54 448 54 c 0,6,7
 464.666666667 54 464.666666667 54 475.333333333 58 c 128,-1,8
 486 62 486 62 488 62 c 1,9,-1
 499 12 l 1,10,11
 455 -11 455 -11 422 -11 c 128,-1,12
 389 -11 389 -11 367 12.5 c 128,-1,13
 345 36 345 36 345 70 c 2,14,-1
 345 74 l 1,15,-1
 341 74 l 1,16,17
 280 -13 280 -13 197.5 -13 c 128,-1,18
 115 -13 115 -13 75.5 40.5 c 128,-1,19
 36 94 36 94 36 172 c 128,-1,20
 36 250 36 250 67 324 c 128,-1,21
 98 398 98 398 160.5 450.5 c 128,-1,22
 223 503 223 503 299 503 c 0,23,24
 354 503 354 503 388 464 c 1,25,-1
 418 678 l 2,26,27
 422 702 422 702 422 710 c 2,28,-1
 422 764 l 1,29,-1
 509 764 l 1,0,-1
377 383 m 2,30,-1
 379 404 l 1,31,32
 349 441 349 441 298 441 c 128,-1,33
 247 441 247 441 205.5 393 c 128,-1,34
 164 345 164 345 146 285.5 c 128,-1,35
 128 226 128 226 128 175 c 128,-1,36
 128 124 128 124 146.5 87 c 128,-1,37
 165 50 165 50 208.5 50 c 128,-1,38
 252 50 252 50 282.5 78.5 c 128,-1,39
 313 107 313 107 332 169 c 128,-1,40
 351 231 351 231 357.5 263 c 128,-1,41
 364 295 364 295 370 336 c 128,-1,42
 376 377 376 377 377 383 c 2,30,-1
EndSplineSet
EndChar

StartChar: e
Encoding: 101 101 69
Width: 464
Flags: HMW
HStem: -13 70<198.5 264> 202 58<122 151> 441 62<245 303.5>
VStem: 37 85<160.5 197 197 202 160.5 266.5> 344 84<370.5 407.5>
LayerCount: 2
Fore
SplineSet
428 397 m 0,0,1
 428 305 428 305 330 248 c 0,2,3
 255 204 255 204 122 202 c 1,4,-1
 122 197 l 2,5,6
 122 138 122 138 152 97.5 c 128,-1,7
 182 57 182 57 247 57 c 0,8,9
 312 57 312 57 378 102 c 1,10,-1
 407 43 l 1,11,12
 330 -13 330 -13 236.5 -13 c 0,13,14
 143 -13 143 -13 90 44 c 128,-1,15
 37 101 37 101 37 192 c 0,16,17
 37 312 37 312 110 407.5 c 128,-1,18
 183 503 183 503 300 503 c 0,19,20
 356 503 356 503 392 477 c 128,-1,21
 428 451 428 451 428 397 c 0,0,1
344 390 m 0,22,23
 344 441 344 441 286 441 c 0,24,25
 228 441 228 441 181 382 c 128,-1,26
 134 323 134 323 127 260 c 1,27,28
 221 260 221 260 275 293 c 0,29,30
 302 310 302 310 323 336.5 c 128,-1,31
 344 363 344 363 344 390 c 0,22,23
EndSplineSet
EndChar

StartChar: f
Encoding: 102 102 70
Width: 250
Flags: HMW
HStem: -230 64<-61 -23 -61 2.5> 427 63<46 109 38 118 197 301> 707 63<289.5 357>
LayerCount: 2
Fore
SplineSet
457 731 m 1,0,-1
 418 672 l 1,1,2
 385 707 385 707 345 707 c 128,-1,3
 305 707 305 707 277 688.5 c 128,-1,4
 249 670 249 670 233.5 636 c 0,5,6
 206.98046875 577.828125 206.98046875 577.828125 197 490 c 1,7,-1
 309 490 l 1,8,-1
 301 427 l 1,9,-1
 189 427 l 1,10,-1
 122 -61 l 2,11,12
 99 -230 99 -230 -43 -230 c 0,13,14
 -108 -230 -108 -230 -155 -198 c 1,15,-1
 -115 -141 l 1,16,17
 -94 -156 -94 -156 -81 -161 c 128,-1,18
 -68 -166 -68 -166 -45 -166 c 0,19,20
 29 -166 29 -166 44 -52 c 2,21,-1
 109 427 l 1,22,-1
 38 427 l 1,23,-1
 46 490 l 1,24,-1
 118 490 l 1,25,26
 141.819761129 694.169381107 141.819761129 694.169381107 239 747.5 c 0,27,28
 280 770 280 770 341.5 770 c 128,-1,29
 403 770 403 770 457 731 c 1,0,-1
EndSplineSet
EndChar

StartChar: g
Encoding: 103 103 71
Width: 515
Flags: HMW
HStem: -230 62<143 219 143 260.5> -13 62<182 225.5> 441 62<249.5 326> 492 20G<477 477>
VStem: 39 92<145 226.5 145 250.5>
LayerCount: 2
Fore
SplineSet
477 512 m 1,0,-1
 419 93 l 2,1,2
 394.793672627 -83.3603851444 394.793672627 -83.3603851444 330.5 -159 c 0,3,4
 305 -189 305 -189 263 -209.5 c 128,-1,5
 221 -230 221 -230 168 -230 c 0,6,7
 93 -230 93 -230 18 -185 c 1,8,-1
 59 -122 l 1,9,10
 107 -168 107 -168 159 -168 c 0,11,12
 297 -168 297 -168 339 74 c 1,13,-1
 336 75 l 1,14,15
 286 -13 286 -13 197 -13 c 0,16,17
 120 -13 120 -13 79.5 41 c 128,-1,18
 39 95 39 95 39 174 c 128,-1,19
 39 253 39 253 70.5 326.5 c 128,-1,20
 102 400 102 400 166 451.5 c 128,-1,21
 230 503 230 503 311 503 c 0,22,23
 356 503 356 503 403 481 c 1,24,-1
 477 512 l 1,0,-1
370 315 m 2,25,-1
 386 422 l 1,26,27
 352 441 352 441 313 441 c 0,28,29
 254 441 254 441 210.5 395 c 0,30,31
 131 310.931034483 131 310.931034483 131 173 c 0,32,33
 131 123 131 123 151 86 c 128,-1,34
 171 49 171 49 213 49 c 0,35,36
 330 49 330 49 370 315 c 2,25,-1
EndSplineSet
EndChar

StartChar: h
Encoding: 104 104 72
Width: 493
Flags: HMW
HStem: 0 21G<39 119 39 39 326 417 326 326> 431 72<297 332> 744 20G<134 222 222 222>
VStem: 370 83<366 374.5>
LayerCount: 2
Fore
SplineSet
450 328 m 2,0,-1
 415 58 l 1,1,-1
 417 0 l 1,2,-1
 326 0 l 1,3,-1
 366 302 l 1,4,5
 370 323 370 323 370 354 c 0,6,7
 370 431 370 431 306 431 c 0,8,9
 256 431 256 431 168 365 c 1,10,-1
 119 0 l 1,11,-1
 39 0 l 1,12,-1
 134 707 l 1,13,-1
 134 764 l 1,14,-1
 222 764 l 1,15,-1
 175 428 l 1,16,17
 250 503 250 503 327 503 c 0,18,19
 453 503 453 503 453 373 c 0,20,21
 453 352 453 352 450 328 c 2,0,-1
EndSplineSet
EndChar

StartChar: i
Encoding: 105 105 73
Width: 227
Flags: HMW
HStem: 0 21G<40 128 40 40> 470 20G<98 186 186 186> 602 117<158 179>
VStem: 110 117<650.5 668.5>
LayerCount: 2
Fore
SplineSet
213 704 m 128,-1,1
 227 689 227 689 227 665.5 c 128,-1,2
 227 642 227 642 207.5 622 c 128,-1,3
 188 602 188 602 163 602 c 128,-1,4
 138 602 138 602 124 616.5 c 128,-1,5
 110 631 110 631 110 654 c 128,-1,6
 110 677 110 677 130 698 c 128,-1,7
 150 719 150 719 174.5 719 c 128,-1,0
 199 719 199 719 213 704 c 128,-1,1
186 490 m 1,8,-1
 128 58 l 1,9,-1
 128 0 l 1,10,-1
 40 0 l 1,11,-1
 98 433 l 1,12,-1
 98 490 l 1,13,-1
 186 490 l 1,8,-1
EndSplineSet
EndChar

StartChar: j
Encoding: 106 106 74
Width: 229
Flags: HMW
HStem: -230 64<-71.5 -32 -71.5 -5.5> 470 20G<102 189 189 189> 601 117<159 181>
VStem: 112 117<650.5 669.5>
LayerCount: 2
Fore
SplineSet
214.5 703.5 m 128,-1,1
 229 689 229 689 229 665 c 128,-1,2
 229 641 229 641 209.5 621 c 128,-1,3
 190 601 190 601 165 601 c 128,-1,4
 140 601 140 601 126 616 c 128,-1,5
 112 631 112 631 112 655 c 128,-1,6
 112 679 112 679 131 698.5 c 128,-1,7
 150 718 150 718 175 718 c 128,-1,0
 200 718 200 718 214.5 703.5 c 128,-1,1
189 490 m 1,8,-1
 114 -61 l 2,9,10
 91 -230 91 -230 -51 -230 c 0,11,12
 -115 -230 -115 -230 -164 -198 c 1,13,-1
 -124 -141 l 1,14,15
 -92 -166 -92 -166 -54 -166 c 0,16,17
 20 -166 20 -166 35 -52 c 2,18,-1
 102 433 l 1,19,-1
 102 490 l 1,20,-1
 189 490 l 1,8,-1
EndSplineSet
EndChar

StartChar: k
Encoding: 107 107 75
Width: 426
Flags: HMW
HStem: 0 21G<39 119 39 39 312 406 312 312> 470 20G<357 444 444 444> 744 20G<135 223 223 223>
LayerCount: 2
Fore
SplineSet
444 490 m 1,0,-1
 237 286 l 1,1,-1
 406 0 l 1,2,-1
 312 0 l 1,3,-1
 155 267 l 1,4,-1
 119 0 l 1,5,-1
 39 0 l 1,6,-1
 135 707 l 1,7,-1
 135 764 l 1,8,-1
 223 764 l 1,9,-1
 159 293 l 1,10,-1
 357 490 l 1,11,-1
 444 490 l 1,0,-1
EndSplineSet
EndChar

StartChar: l
Encoding: 108 108 76
Width: 227
Flags: HMW
HStem: 0 21G<39 128 39 39> 744 20G<135 223 223 223>
LayerCount: 2
Fore
SplineSet
223 764 m 1,0,-1
 128 58 l 1,1,-1
 128 0 l 1,2,-1
 39 0 l 1,3,-1
 135 707 l 1,4,-1
 135 764 l 1,5,-1
 223 764 l 1,0,-1
EndSplineSet
EndChar

StartChar: m
Encoding: 109 109 77
Width: 762
Flags: HMW
HStem: 0 21G<41 120 41 41 318 398 318 318 596 683 596 596> 431 72<290.5 324 566.5 601.5>
VStem: 640 82<366.5 373.5>
LayerCount: 2
Fore
SplineSet
719 329 m 2,0,-1
 683 58 l 1,1,-1
 683 0 l 1,2,-1
 596 0 l 1,3,-1
 636 303 l 1,4,5
 640 324 640 324 640 353 c 0,6,7
 640 431 640 431 575 431 c 0,8,9
 522 431 522 431 444 364 c 1,10,11
 444 348 444 348 441 329 c 2,12,-1
 398 0 l 1,13,-1
 318 0 l 1,14,-1
 358 303 l 1,15,16
 362 324 362 324 362 355 c 0,17,18
 362 431 362 431 298 431 c 0,19,20
 250 431 250 431 169 365 c 1,21,-1
 120 0 l 1,22,-1
 41 0 l 1,23,-1
 88 359 l 2,24,25
 91 382 91 382 91 409.5 c 0,26,27
 91 437 91 437 83 467 c 1,28,-1
 76 490 l 1,29,-1
 164 500 l 1,30,31
 173 458 173 458 173 428 c 1,32,33
 199 451 199 451 217 464 c 128,-1,34
 235 477 235 477 264 490 c 128,-1,35
 293 503 293 503 320 503 c 0,36,37
 412 503 412 503 439 421 c 1,38,39
 528 503 528 503 597 503 c 0,40,41
 722 503 722 503 722 373 c 0,42,43
 722 353 722 353 719 329 c 2,0,-1
EndSplineSet
EndChar

StartChar: n
Encoding: 110 110 78
Width: 494
Flags: HMW
HStem: 0 21G<41 121 41 41 327 415 327 327> 431 72<297 334.5>
VStem: 373 81<366.5 376.5>
LayerCount: 2
Fore
SplineSet
88 350 m 2,0,1
 92 375 92 375 92 416.5 c 128,-1,2
 92 458 92 458 76 490 c 1,3,-1
 164 500 l 1,4,5
 171 473 171 473 173 428 c 1,6,7
 259 503 259 503 330 503 c 0,8,9
 454 503 454 503 454 373 c 0,10,11
 454 353 454 353 451 329 c 2,12,-1
 415 58 l 1,13,-1
 415 0 l 1,14,-1
 327 0 l 1,15,-1
 368 303 l 1,16,17
 373 331 373 331 373 357 c 0,18,19
 373 431 373 431 308 431 c 0,20,21
 251 431 251 431 170 365 c 1,22,-1
 121 0 l 1,23,-1
 41 0 l 1,24,-1
 88 350 l 2,0,1
EndSplineSet
EndChar

StartChar: o
Encoding: 111 111 79
Width: 508
Flags: HMW
HStem: -13 62<188.5 284 188.5 299.5> 441 62<225 321>
VStem: 37 85<168.5 249 168.5 272.5> 387 85<245 327.5>
LayerCount: 2
Fore
SplineSet
425 443 m 128,-1,1
 472 383 472 383 472 299.5 c 128,-1,2
 472 216 472 216 443 147 c 128,-1,3
 414 78 414 78 355 32.5 c 128,-1,4
 296 -13 296 -13 213.5 -13 c 128,-1,5
 131 -13 131 -13 84 47 c 128,-1,6
 37 107 37 107 37 191 c 128,-1,7
 37 275 37 275 65.5 343.5 c 128,-1,8
 94 412 94 412 152.5 457.5 c 128,-1,9
 211 503 211 503 294.5 503 c 128,-1,0
 378 503 378 503 425 443 c 128,-1,1
377.5 214 m 128,-1,11
 387 255 387 255 387 304 c 128,-1,12
 387 353 387 353 361.5 397 c 128,-1,13
 336 441 336 441 281 441 c 0,14,15
 241 441 241 441 209 417 c 128,-1,16
 177 393 177 393 159 356 c 0,17,18
 122 279.944444444 122 279.944444444 122 211.472222222 c 128,-1,19
 122 143 122 143 148 96 c 128,-1,20
 174 49 174 49 227 49 c 0,21,22
 268 49 268 49 300 73 c 128,-1,23
 332 97 332 97 350 135 c 128,-1,10
 368 173 368 173 377.5 214 c 128,-1,11
EndSplineSet
EndChar

StartChar: p
Encoding: 112 112 80
Width: 518
Flags: HMW
HStem: -224 21G<13 101 13 13> -13 62<210 280 210 301> 441 62<288.5 335.5>
VStem: 386 93<259.5 341.5>
LayerCount: 2
Fore
SplineSet
479 308 m 0,0,1
 479 186 479 186 406.5 86.5 c 128,-1,2
 334 -13 334 -13 223 -13 c 0,3,4
 196 -13 196 -13 168.5 -2.5 c 128,-1,5
 141 8 141 8 126 23 c 1,6,-1
 101 -169 l 1,7,-1
 101 -224 l 1,8,-1
 13 -224 l 1,9,-1
 86 333 l 2,10,11
 92 381 92 381 92 416 c 128,-1,12
 92 451 92 451 78 490 c 1,13,-1
 166 501 l 1,14,15
 174 455 174 455 174 432 c 2,16,-1
 174 424 l 1,17,18
 228 503 228 503 321 503 c 0,19,20
 398 503 398 503 438.5 447.5 c 128,-1,21
 479 392 479 392 479 308 c 0,0,1
369.5 196.5 m 128,-1,23
 386 255 386 255 386 310 c 128,-1,24
 386 365 386 365 367 403 c 128,-1,25
 348 441 348 441 305 441 c 128,-1,26
 262 441 262 441 232 413.5 c 128,-1,27
 202 386 202 386 185 340.5 c 0,28,29
 152.344186047 253.097674419 152.344186047 253.097674419 138.5 128.5 c 2,30,-1
 134 88 l 1,31,32
 149 71 149 71 175 60 c 128,-1,33
 201 49 201 49 226 49 c 0,34,35
 277 49 277 49 315 93.5 c 128,-1,22
 353 138 353 138 369.5 196.5 c 128,-1,23
EndSplineSet
EndChar

StartChar: q
Encoding: 113 113 81
Width: 512
Flags: HMW
HStem: -224 21G<296 384 296 296> -13 62<177.5 227.5> 441 62<240.5 319> 502 20G<438 477 477 477>
VStem: 36 92<145 218.5 145 242>
LayerCount: 2
Fore
SplineSet
477 522 m 1,0,-1
 384 -167 l 1,1,-1
 384 -224 l 1,2,-1
 296 -224 l 1,3,-1
 337 67 l 1,4,5
 278 -13 278 -13 196.5 -13 c 128,-1,6
 115 -13 115 -13 75.5 40.5 c 128,-1,7
 36 94 36 94 36 176 c 0,8,9
 36 283.3125 36 283.3125 104 388.5 c 0,10,11
 136 438 136 438 187.5 470.5 c 128,-1,12
 239 503 239 503 298 503 c 128,-1,13
 357 503 357 503 406 460 c 1,14,-1
 438 522 l 1,15,-1
 477 522 l 1,0,-1
382 390 m 1,16,-1
 384 403 l 1,17,18
 353 441 353 441 305.5 441 c 128,-1,19
 258 441 258 441 223 412.5 c 128,-1,20
 188 384 188 384 168.5 341 c 0,21,22
 128 251.692307692 128 251.692307692 128 173 c 0,23,24
 128 122 128 122 147 85.5 c 128,-1,25
 166 49 166 49 205 49 c 128,-1,26
 244 49 244 49 271.5 72 c 128,-1,27
 299 95 299 95 316 126.5 c 128,-1,28
 333 158 333 158 346.5 206 c 0,29,30
 366.705882353 277.843137255 366.705882353 277.843137255 379 368 c 2,31,-1
 382 390 l 1,16,-1
EndSplineSet
EndChar

StartChar: r
Encoding: 114 114 82
Width: 327
Flags: HMW
HStem: 0 21G<41 124 41 41> 414 88<315 319>
LayerCount: 2
Fore
SplineSet
351 502 m 1,0,-1
 319 414 l 1,1,2
 238 414 238 414 167 327 c 1,3,-1
 124 0 l 1,4,-1
 41 0 l 1,5,-1
 87 358 l 2,6,7
 90 382 90 382 90 405 c 0,8,9
 90 463 90 463 73 491 c 1,10,-1
 165 502 l 1,11,12
 175 471 175 471 175 424 c 2,13,-1
 175 411 l 1,14,15
 206 450 206 450 253 476 c 128,-1,16
 300 502 300 502 351 502 c 1,0,-1
EndSplineSet
EndChar

StartChar: s
Encoding: 115 115 83
Width: 376
Flags: HMW
HStem: -13 62<133.5 174 133.5 199.5> 441 62<211.5 251.5>
VStem: 59 82<323 389 323 405.5> 248 83<102.5 177.5>
LayerCount: 2
Fore
SplineSet
361 470 m 1,0,-1
 327 410 l 1,1,2
 284 441 284 441 240.5 441 c 128,-1,3
 197 441 197 441 169 420.5 c 128,-1,4
 141 400 141 400 141 364 c 0,5,6
 141 325.589285714 141 325.589285714 208 288.5 c 0,7,8
 236 273 236 273 264 255 c 128,-1,9
 292 237 292 237 311.5 207.5 c 128,-1,10
 331 178 331 178 331 139 c 0,11,12
 331 67 331 67 279 27 c 128,-1,13
 227 -13 227 -13 150 -13 c 128,-1,14
 73 -13 73 -13 6 28 c 1,15,-1
 49 89 l 1,16,17
 97 49 97 49 143.5 49 c 128,-1,18
 190 49 190 49 219 70 c 128,-1,19
 248 91 248 91 248 123.5 c 128,-1,20
 248 156 248 156 228.5 176.5 c 128,-1,21
 209 197 209 197 181 212.5 c 128,-1,22
 153 228 153 228 125.5 245 c 128,-1,23
 98 262 98 262 78.5 290 c 128,-1,24
 59 318 59 318 59 354 c 0,25,26
 59 427 59 427 112 465 c 128,-1,27
 165 503 165 503 235.5 503 c 128,-1,28
 306 503 306 503 361 470 c 1,0,-1
EndSplineSet
EndChar

StartChar: t
Encoding: 116 116 84
Width: 287
Flags: HMW
HStem: -13 62<161.5 162.5> 427 63<41 101 32 110 189 293> 427 204<32 219 32 219 180 219 130 293 180 180>
VStem: 57 80<76.5 83.5>
LayerCount: 2
Fore
SplineSet
248 7 m 1,0,1
 198 -13 198 -13 153.5 -13 c 128,-1,2
 109 -13 109 -13 83 6.5 c 128,-1,3
 57 26 57 26 57 81 c 0,4,5
 57 96 57 96 58 103 c 2,6,-1
 101 427 l 1,7,-1
 32 427 l 1,8,-1
 41 490 l 1,9,-1
 110 490 l 1,10,-1
 130 631 l 1,11,-1
 219 631 l 1,12,-1
 189 490 l 1,13,-1
 302 490 l 1,14,-1
 293 427 l 1,15,-1
 180 427 l 1,16,-1
 139 110 l 1,17,18
 137 104 137 104 137 89 c 0,19,20
 137 49 137 49 176 49 c 0,21,22
 195 49 195 49 241 60 c 1,23,-1
 248 7 l 1,0,1
EndSplineSet
EndChar

StartChar: u
Encoding: 117 117 85
Width: 510
Flags: HMW
HStem: -13 62<167 216 167 219> -12 21G<390.5 415.5> 470 20G<81 168 168 168 368 456 456 456>
VStem: 40 82<101.5 125.5> 329 74<43.5 98.5>
LayerCount: 2
Fore
SplineSet
431 53 m 0,0,1
 452 53 452 53 472 63 c 1,2,-1
 483 11 l 1,3,4
 439.875 -12 439.875 -12 408.9375 -12 c 128,-1,5
 378 -12 378 -12 353.5 10 c 128,-1,6
 329 32 329 32 329 73 c 1,7,-1
 325 73 l 1,8,9
 274 -13 274 -13 168 -13 c 0,10,11
 103 -13 103 -13 71.5 22 c 128,-1,12
 40 57 40 57 40 119 c 0,13,14
 40 138 40 138 43 159 c 2,15,-1
 81 433 l 1,16,-1
 81 490 l 1,17,-1
 168 490 l 1,18,-1
 125 171 l 2,19,20
 122 148 122 148 122 130 c 0,21,22
 122 49 122 49 189 49 c 0,23,24
 235.714285714 49 235.714285714 49 277.5 94.5 c 0,25,26
 326.056451613 147.372580645 326.056451613 147.372580645 346 279 c 1,27,-1
 368 432 l 1,28,-1
 368 490 l 1,29,-1
 456 490 l 1,30,-1
 405 121 l 1,31,32
 403 99 403 99 403 95 c 0,33,34
 403 53 403 53 431 53 c 0,0,1
EndSplineSet
EndChar

StartChar: v
Encoding: 118 118 86
Width: 418
Flags: HMW
HStem: -5 21G<143 216 143 143> 470 20G<42 126 126 126 376 451 451 451>
LayerCount: 2
Fore
SplineSet
451 490 m 1,0,-1
 216 -5 l 1,1,-1
 143 -5 l 1,2,-1
 42 490 l 1,3,-1
 126 490 l 1,4,-1
 201 117 l 1,5,-1
 376 490 l 1,6,-1
 451 490 l 1,0,-1
EndSplineSet
EndChar

StartChar: w
Encoding: 119 119 87
Width: 610
Flags: HMW
HStem: -5 21G<115 173 115 115 370 428 370 370> 470 20G<42 124 124 124 319 377 377 377 572 643 643 643>
LayerCount: 2
Fore
SplineSet
643 490 m 1,0,-1
 428 -5 l 1,1,-1
 370 -5 l 1,2,-1
 320 332 l 1,3,-1
 173 -5 l 1,4,-1
 115 -5 l 1,5,-1
 42 490 l 1,6,-1
 124 490 l 1,7,-1
 174 156 l 1,8,-1
 319 490 l 1,9,-1
 377 490 l 1,10,-1
 428 156 l 1,11,-1
 572 490 l 1,12,-1
 643 490 l 1,0,-1
EndSplineSet
EndChar

StartChar: x
Encoding: 120 120 88
Width: 388
Flags: HMW
HStem: 0 21G<-36 43 -36 -36 279 370 279 279> 470 20G<42 131 131 131 342 421 421 421>
LayerCount: 2
Fore
SplineSet
421 490 m 1,0,-1
 244 261 l 1,1,-1
 370 0 l 1,2,-1
 279 0 l 1,3,-1
 188 191 l 1,4,-1
 43 0 l 1,5,-1
 -36 0 l 1,6,-1
 156 254 l 1,7,-1
 42 490 l 1,8,-1
 131 490 l 1,9,-1
 212 324 l 1,10,-1
 342 490 l 1,11,-1
 421 490 l 1,0,-1
EndSplineSet
EndChar

StartChar: y
Encoding: 121 121 89
Width: 409
Flags: HMW
HStem: -230 66<-57 -3.5 -57 14> 470 20G<45 130 130 130 375 451 451 451>
LayerCount: 2
Fore
SplineSet
451 490 m 1,0,-1
 203 -51 l 2,1,2
 120 -230 120 -230 -46 -230 c 0,3,4
 -106 -230 -106 -230 -152 -203 c 1,5,-1
 -114 -143 l 1,6,7
 -69 -164 -69 -164 -41 -164 c 0,8,9
 76 -164 76 -164 135 -30 c 1,10,-1
 149 3 l 1,11,-1
 45 490 l 1,12,-1
 130 490 l 1,13,-1
 203 118 l 1,14,-1
 375 490 l 1,15,-1
 451 490 l 1,0,-1
EndSplineSet
EndChar

StartChar: z
Encoding: 122 122 90
Width: 433
Flags: HMW
HStem: 0 63<126 372> 427 63<100 313 91 423>
LayerCount: 2
Fore
SplineSet
423 443 m 1,0,-1
 126 63 l 1,1,-1
 382 63 l 1,2,-1
 372 0 l 1,3,-1
 18 0 l 1,4,-1
 18 48 l 1,5,-1
 313 427 l 1,6,-1
 91 427 l 1,7,-1
 100 490 l 1,8,-1
 423 490 l 1,9,-1
 423 443 l 1,0,-1
EndSplineSet
EndChar

StartChar: braceleft
Encoding: 123 123 91
Width: 321
Flags: HMW
HStem: -137 47<208 227> 683 47<307 343>
VStem: 84 76<-53.5 -26.5 -53.5 -12.5> 113 76<203.5 225>
LayerCount: 2
Fore
SplineSet
350 730 m 1,0,-1
 343 683 l 1,1,2
 291 683 291 683 271.5 663 c 128,-1,3
 252 643 252 643 246 591 c 1,4,-1
 223 426 l 2,5,6
 207 317 207 317 142 296 c 1,7,8
 189 275 189 275 189 209 c 0,9,10
 189 190 189 190 186 166 c 2,11,-1
 163 1 l 2,12,13
 160 -17 160 -17 160 -31 c 0,14,15
 160 -64 160 -64 177 -77 c 128,-1,16
 194 -90 194 -90 234 -90 c 1,17,-1
 227 -137 l 1,18,19
 148 -137 148 -137 116 -108 c 128,-1,20
 84 -79 84 -79 84 -17 c 0,21,22
 84 1 84 1 88 26 c 2,23,-1
 110 179 l 2,24,25
 113 194 113 194 113 211 c 0,26,27
 113 274 113 274 62 274 c 1,28,-1
 69 320 l 1,29,30
 125 320 125 320 142 412 c 1,31,-1
 165 568 l 2,32,33
 178 651 178 651 219 690.5 c 128,-1,34
 260 730 260 730 350 730 c 1,0,-1
EndSplineSet
EndChar

StartChar: bar
Encoding: 124 124 92
Width: 236
Flags: HMW
HStem: -109 21G<84 152 84 84> 722 20G<84 152 152 152>
VStem: 84 68<-109 742>
LayerCount: 2
Fore
SplineSet
152 -109 m 1,0,-1
 84 -109 l 1,1,-1
 84 742 l 1,2,-1
 152 742 l 1,3,-1
 152 -109 l 1,0,-1
EndSplineSet
EndChar

StartChar: braceright
Encoding: 125 125 93
Width: 321
Flags: HMW
HStem: -137 46<8 23 2 43.5> 688 46<121 143>
VStem: 163 77<367.5 388.5 367.5 393.5> 192 76<627.5 651.5 605.5 655>
LayerCount: 2
Fore
SplineSet
121 734 m 1,0,-1
 145 734 l 2,1,2
 209 734 209 734 238.5 703.5 c 128,-1,3
 268 673 268 673 268 612 c 0,4,5
 268 594 268 594 265 571 c 2,6,-1
 242 407 l 2,7,8
 240 393 240 393 240 385 c 0,9,10
 240 322 240 322 292 322 c 1,11,-1
 286 275 l 1,12,13
 222 275 222 275 211 179 c 1,14,-1
 189 26 l 2,15,16
 177 -55 177 -55 138 -96 c 128,-1,17
 99 -137 99 -137 23 -137 c 2,18,-1
 2 -137 l 1,19,-1
 8 -91 l 1,20,21
 61 -91 61 -91 81 -73.5 c 128,-1,22
 101 -56 101 -56 107 -2 c 2,23,-1
 129 168 l 2,24,25
 142 271 142 271 213 300 c 1,26,27
 163 319 163 319 163 386 c 0,28,29
 163 409 163 409 167 429 c 1,30,-1
 190 606 l 2,31,32
 192 628 192 628 192 631 c 0,33,34
 192 666 192 666 175.5 677 c 128,-1,35
 159 688 159 688 115 688 c 1,36,-1
 121 734 l 1,0,-1
EndSplineSet
EndChar

StartChar: asciitilde
Encoding: 126 126 94
Width: 559
Flags: HMW
HStem: 203 21G<96 96> 204 73<353 398 353 406> 271 72<157 211.5>
LayerCount: 2
Fore
SplineSet
466 343 m 1,0,-1
 515 297 l 1,1,2
 492 261 492 261 454 232.5 c 128,-1,3
 416 204 416 204 379 204 c 0,4,5
 342 204 342 204 276.5 237.5 c 128,-1,6
 211 271 211 271 180.5 271 c 0,7,8
 150 271 150 271 128.5 250.5 c 128,-1,9
 107 230 107 230 96 203 c 1,10,-1
 44 247 l 1,11,12
 62 287 62 287 98 315 c 128,-1,13
 134 343 134 343 177 343 c 0,14,15
 220 343 220 343 288.5 310 c 128,-1,16
 357 277 357 277 381 277 c 0,17,18
 405 277 405 277 429 297 c 128,-1,19
 453 317 453 317 466 343 c 1,0,-1
EndSplineSet
EndChar

StartChar: dagger
Encoding: 8224 8224 95
Width: 490
Flags: HMW
HStem: -133 21G<149 185 149 149> 710 20G<285 285>
LayerCount: 2
Fore
SplineSet
267 468 m 1,0,-1
 272 335 l 2,1,2
 272 314 272 314 270.5 304 c 128,-1,3
 269 294 269 294 243 162 c 2,4,-1
 185 -133 l 1,5,-1
 149 -133 l 1,6,-1
 173 162 l 2,7,8
 175 181 175 181 177 228.5 c 128,-1,9
 179 276 179 276 182 298.5 c 128,-1,10
 185 321 185 321 195 351.5 c 0,11,12
 229.545454545 456.863636364 229.545454545 456.863636364 234 468 c 1,13,-1
 99 445 l 1,14,-1
 46 485 l 1,15,-1
 110 524 l 1,16,-1
 238 498 l 1,17,-1
 232 657 l 1,18,-1
 285 730 l 1,19,-1
 321 657 l 1,20,-1
 271 498 l 1,21,-1
 409 524 l 1,22,-1
 459 481 l 1,23,-1
 398 445 l 1,24,-1
 267 468 l 1,0,-1
EndSplineSet
EndChar

StartChar: degree
Encoding: 176 176 96
Width: 342
Flags: HMW
HStem: 443 60<146 194 146 213> 683 60<147 195>
VStem: 20 63<567.5 618.5 567.5 634.5> 259 63<567.5 618.5>
LayerCount: 2
Fore
SplineSet
277.5 699 m 128,-1,1
 322 655 322 655 322 592.5 c 128,-1,2
 322 530 322 530 278 486.5 c 128,-1,3
 234 443 234 443 171 443 c 128,-1,4
 108 443 108 443 64 486.5 c 128,-1,5
 20 530 20 530 20 592.5 c 128,-1,6
 20 655 20 655 64 699 c 128,-1,7
 108 743 108 743 170.5 743 c 128,-1,0
 233 743 233 743 277.5 699 c 128,-1,1
259 593 m 128,-1,9
 259 631 259 631 233 657 c 128,-1,10
 207 683 207 683 171 683 c 128,-1,11
 135 683 135 683 109 657 c 128,-1,12
 83 631 83 631 83 593 c 128,-1,13
 83 555 83 555 108.5 529 c 128,-1,14
 134 503 134 503 170 503 c 128,-1,15
 206 503 206 503 232.5 529 c 128,-1,8
 259 555 259 555 259 593 c 128,-1,9
EndSplineSet
EndChar

StartChar: cent
Encoding: 162 162 97
Width: 421
Flags: HMW
HStem: -122 177<196 209 131 258> -13 68<229 258 196 259.5> 441 174<288 301>
VStem: 36 87<174 217.5 174 272>
LayerCount: 2
Fore
SplineSet
430 454 m 1,0,-1
 380 397 l 1,1,2
 333 441 333 441 275.5 441 c 128,-1,3
 218 441 218 441 176.5 383 c 0,4,5
 123 308.228915663 123 308.228915663 123 210 c 0,6,7
 123 150 123 150 152 102.5 c 128,-1,8
 181 55 181 55 234 55 c 0,9,10
 268 55 268 55 294 65 c 128,-1,11
 320 75 320 75 355 100 c 1,12,-1
 383 35 l 1,13,14
 337 9 337 9 304.5 -2 c 128,-1,15
 272 -13 272 -13 229 -13 c 1,16,-1
 209 -122 l 1,17,-1
 131 -122 l 1,18,-1
 167 -6 l 1,19,20
 105 12 105 12 70.5 67 c 128,-1,21
 36 122 36 122 36 197 c 0,22,23
 36 314 36 314 98.5 402 c 128,-1,24
 161 490 161 490 266 504 c 1,25,-1
 288 615 l 1,26,-1
 366 615 l 1,27,-1
 330 502 l 1,28,29
 392 490 392 490 430 454 c 1,0,-1
EndSplineSet
EndChar

StartChar: sterling
Encoding: 163 163 98
Width: 514
Flags: HMW
HStem: -2 69<26 115 204 472 16 115> 355 68<90 153 80 163 252 365> 663 69<357 404.5>
LayerCount: 2
Fore
SplineSet
547 634 m 1,0,-1
 470 592 l 1,1,2
 446 663 446 663 385 663 c 0,3,4
 341 663 341 663 308 631 c 128,-1,5
 275 599 275 599 267 541 c 2,6,-1
 252 423 l 1,7,-1
 375 423 l 1,8,-1
 365 355 l 1,9,-1
 242 355 l 1,10,-1
 204 67 l 1,11,-1
 482 67 l 1,12,-1
 472 -2 l 1,13,-1
 16 -2 l 1,14,-1
 26 67 l 1,15,-1
 115 67 l 1,16,-1
 153 355 l 1,17,-1
 80 355 l 1,18,-1
 90 423 l 1,19,-1
 163 423 l 1,20,-1
 178 540 l 1,21,22
 189 634 189 634 249.5 683 c 128,-1,23
 310 732 310 732 393 732 c 0,24,25
 446 732 446 732 486.5 706.5 c 128,-1,26
 527 681 527 681 547 634 c 1,0,-1
EndSplineSet
EndChar

StartChar: section
Encoding: 167 167 99
Width: 454
Flags: HMW
HStem: -233 64<51 80 51 89> 705 68<377 393.5 348.5 397>
VStem: 103 77<433.5 491 433.5 514.5> 140 77 227 76 262 79<47 112 47 118>
LayerCount: 2
Fore
SplineSet
9 -157 m 1,0,-1
 56 -169 l 1,1,2
 140 -169 140 -169 140 -60 c 0,3,4
 140 -21 140 -21 121.5 194 c 128,-1,5
 103 409 103 409 103 458 c 0,6,7
 103 624 103 624 229 641 c 1,8,9
 237 704 237 704 281.5 738.5 c 128,-1,10
 326 773 326 773 387 773 c 0,11,12
 404 773 404 773 424.5 767 c 128,-1,13
 445 761 445 761 460 758 c 1,14,-1
 435 692 l 1,15,16
 413 705 413 705 387 705 c 0,17,18
 303 705 303 705 303 597 c 0,19,20
 303 537 303 537 322 322 c 128,-1,21
 341 107 341 107 341 74 c 128,-1,22
 341 41 341 41 331.5 6.5 c 128,-1,23
 322 -28 322 -28 292 -61 c 128,-1,24
 262 -94 262 -94 214 -101 c 1,25,26
 203 -169 203 -169 158 -201 c 128,-1,27
 113 -233 113 -233 59 -233 c 128,-1,28
 5 -233 5 -233 -15 -218 c 1,29,-1
 9 -157 l 1,0,-1
262 73 m 0,30,31
 262 118 262 118 245.5 310.5 c 128,-1,32
 229 503 229 503 227 569 c 1,33,34
 180 548 180 548 180 465 c 0,35,36
 180 438 180 438 197.5 244 c 128,-1,37
 215 50 215 50 217 -29 c 1,38,39
 262 -7 262 -7 262 73 c 0,30,31
EndSplineSet
EndChar

StartChar: bullet
Encoding: 8226 8226 100
Width: 405
Flags: HMW
HStem: 201 21G<159.5 248> 493 20G<158 246>
LayerCount: 2
Fore
SplineSet
313.5 468 m 128,-1,1
 359 423 359 423 359 358 c 128,-1,2
 359 293 359 293 314 247 c 128,-1,3
 269 201 269 201 203.5 201 c 128,-1,4
 138 201 138 201 92 247 c 128,-1,5
 46 293 46 293 46 357 c 128,-1,6
 46 421 46 421 91.5 467 c 128,-1,7
 137 513 137 513 202.5 513 c 128,-1,0
 268 513 268 513 313.5 468 c 128,-1,1
EndSplineSet
EndChar

StartChar: paragraph
Encoding: 182 182 101
Width: 546
Flags: HMW
HStem: -231 54<95 122.5> -63 54<107.5 125> 710 54<344 405 344 344 459 515 459 459>
VStem: 5 54<-142 -110 -142 -102>
LayerCount: 2
Fore
SplineSet
523 764 m 1,0,-1
 515 710 l 1,1,-1
 459 710 l 1,2,-1
 351 -63 l 2,3,4
 345 -108 345 -108 308.5 -141 c 128,-1,5
 272 -174 272 -174 227 -174 c 0,6,7
 222 -174 222 -174 208 -172 c 1,8,9
 168 -231 168 -231 101 -231 c 0,10,11
 59 -231 59 -231 32 -204.5 c 128,-1,12
 5 -178 5 -178 5 -131.5 c 0,13,14
 5 -85 5 -85 43.5 -47 c 128,-1,15
 82 -9 82 -9 133 -9 c 1,16,-1
 125 -63 l 1,17,18
 98 -63 98 -63 78.5 -82 c 128,-1,19
 59 -101 59 -101 59 -125 c 0,20,21
 59 -149 59 -149 73.5 -163 c 128,-1,22
 88 -177 88 -177 110.5 -177 c 0,23,24
 133 -177 133 -177 151.5 -160 c 128,-1,25
 170 -143 170 -143 173 -120 c 2,26,-1
 242 378 l 1,27,28
 171 378 171 378 124.5 422.5 c 128,-1,29
 78 467 78 467 78 538 c 0,30,31
 78 644 78 644 150.5 704 c 128,-1,32
 223 764 223 764 331 764 c 2,33,-1
 523 764 l 1,0,-1
405 710 m 1,34,-1
 344 710 l 1,35,-1
 228 -120 l 1,36,-1
 232 -120 l 2,37,38
 256 -120 256 -120 275 -103 c 128,-1,39
 294 -86 294 -86 297 -63 c 2,40,-1
 405 710 l 1,34,-1
EndSplineSet
EndChar

StartChar: germandbls
Encoding: 223 223 102
Width: 541
Flags: HMW
HStem: -230 64<-62 -23 -62 2.5> -13 65<269.5 316 269.5 339> 427 63<45 109 37 117> 666 67<289 356.5>
VStem: 242 242<351.5 642> 402 82
LayerCount: 2
Fore
SplineSet
400 333 m 0,0,1
 489 267 489 267 489 178 c 128,-1,2
 489 89 489 89 430.5 38 c 128,-1,3
 372 -13 372 -13 280 -13 c 0,4,5
 225 -13 225 -13 182 8 c 1,6,-1
 206 66 l 1,7,8
 242 52 242 52 288 52 c 128,-1,9
 334 52 334 52 368 86.5 c 128,-1,10
 402 121 402 121 402 166.5 c 128,-1,11
 402 212 402 212 377 243.5 c 128,-1,12
 352 275 352 275 322 294 c 128,-1,13
 292 313 292 313 267 339.5 c 128,-1,14
 242 366 242 366 242 386.5 c 128,-1,15
 242 407 242 407 252 420.5 c 128,-1,16
 262 434 262 434 269 439 c 128,-1,17
 276 444 276 444 287.5 451.5 c 128,-1,18
 299 459 299 459 309 466 c 128,-1,19
 319 473 319 473 323 475 c 0,20,21
 400 526 400 526 400 596 c 0,22,23
 400 629 400 629 383.5 647.5 c 128,-1,24
 367 666 367 666 335 666 c 0,25,26
 273 666 273 666 240 614 c 128,-1,27
 207 562 207 562 197 488 c 2,28,-1
 122 -61 l 2,29,30
 99 -230 99 -230 -43 -230 c 0,31,32
 -108 -230 -108 -230 -155 -198 c 1,33,-1
 -115 -141 l 1,34,35
 -90.6543209877 -158.185185185 -90.6543209877 -158.185185185 -76.3271604938 -162.092592593 c 128,-1,36
 -62 -166 -62 -166 -45 -166 c 0,37,38
 29 -166 29 -166 44 -52 c 2,39,-1
 109 427 l 1,40,-1
 37 427 l 1,41,-1
 45 490 l 1,42,-1
 117 490 l 1,43,44
 144.525925926 662.037037037 144.525925926 662.037037037 249 713 c 0,45,46
 290 733 290 733 347 733 c 128,-1,47
 404 733 404 733 444 697.5 c 128,-1,48
 484 662 484 662 484 600 c 0,49,50
 484 501 484 501 398 447 c 0,51,52
 397 447 397 447 340 416 c 1,53,54
 316 406 316 406 316 396.5 c 128,-1,55
 316 387 316 387 341 371 c 0,56,57
 347 367 347 367 367.5 354 c 128,-1,58
 388 341 388 341 400 333 c 0,0,1
EndSplineSet
EndChar

StartChar: registered
Encoding: 174 174 103
Width: 459
Flags: HMW
HStem: 405 33<185.5 277 185.5 285> 405 220<200 224 224 236.5 200 285> 492 225<150 200 150 238 150 343 150 283> 768 33<185.5 277>
VStem: 33 33<557.5 648.5 557.5 657.5> 150 50<492 588 625 680> 266 50<643.5 663.5> 397 33<557.5 648.5>
LayerCount: 2
Fore
SplineSet
430 603 m 128,-1,1
 430 522 430 522 371 463.5 c 128,-1,2
 312 405 312 405 230.5 405 c 0,3,4
 149 405 149 405 91 463 c 128,-1,5
 33 521 33 521 33 603 c 128,-1,6
 33 685 33 685 91 743 c 128,-1,7
 149 801 149 801 230.5 801 c 0,8,9
 312 801 312 801 371 742.5 c 128,-1,0
 430 684 430 684 430 603 c 128,-1,1
397 603 m 128,-1,11
 397 671 397 671 348.5 719.5 c 128,-1,12
 300 768 300 768 231.5 768 c 0,13,14
 163 768 163 768 114.5 719.5 c 128,-1,15
 66 671 66 671 66 603 c 128,-1,16
 66 535 66 535 114.5 486.5 c 128,-1,17
 163 438 163 438 231.5 438 c 0,18,19
 300 438 300 438 348.5 486.5 c 128,-1,10
 397 535 397 535 397 603 c 128,-1,11
343 492 m 1,20,-1
 283 492 l 1,21,-1
 218 588 l 1,22,-1
 200 588 l 1,23,-1
 200 492 l 1,24,-1
 150 492 l 1,25,-1
 150 717 l 1,26,-1
 238 717 l 2,27,28
 316 717 316 717 316 653 c 0,29,30
 316 613 316 613 270 596 c 1,31,-1
 343 492 l 1,20,-1
200 625 m 1,32,-1
 224 625 l 2,33,34
 266 625 266 625 266 655 c 0,35,36
 266 680 266 680 231 680 c 2,37,-1
 200 680 l 1,38,-1
 200 625 l 1,32,-1
EndSplineSet
EndChar

StartChar: copyright
Encoding: 169 169 104
Width: 635
Flags: HMW
HStem: -22 39<252 380 252 390.5> 88 46<290 337.5 290 340.5> 370 44<288 334> 483 39<252 380>
VStem: 44 39<186 314 186 324.5> 171 61<229.5 281 229.5 297.5> 549 39<186 314>
LayerCount: 2
Fore
SplineSet
588 250 m 128,-1,1
 588 138 588 138 508 58 c 128,-1,2
 428 -22 428 -22 316 -22 c 128,-1,3
 204 -22 204 -22 124 58 c 128,-1,4
 44 138 44 138 44 250 c 128,-1,5
 44 362 44 362 124 442 c 128,-1,6
 204 522 204 522 316 522 c 128,-1,7
 428 522 428 522 508 442 c 128,-1,0
 588 362 588 362 588 250 c 128,-1,1
549 250 m 128,-1,9
 549 346 549 346 480.5 414.5 c 128,-1,10
 412 483 412 483 316 483 c 128,-1,11
 220 483 220 483 151.5 414.5 c 128,-1,12
 83 346 83 346 83 250 c 128,-1,13
 83 154 83 154 151.5 85.5 c 128,-1,14
 220 17 220 17 316 17 c 128,-1,15
 412 17 412 17 480.5 85.5 c 128,-1,8
 549 154 549 154 549 250 c 128,-1,9
400 162 m 1,16,-1
 426 119 l 1,17,18
 373 88 373 88 311.5 88 c 0,19,20
 250 88 250 88 210.5 134.5 c 128,-1,21
 171 181 171 181 171 251.5 c 0,22,23
 171 322 171 322 213 368 c 128,-1,24
 255 414 255 414 326 414 c 0,25,26
 372 414 372 414 421 381 c 1,27,-1
 391 343 l 1,28,29
 359 370 359 370 318 370 c 128,-1,30
 277 370 277 370 254.5 334.5 c 128,-1,31
 232 299 232 299 232 254.5 c 0,32,33
 232 210 232 210 255 172 c 128,-1,34
 278 134 278 134 319 134 c 0,35,36
 360 134 360 134 400 162 c 1,16,-1
EndSplineSet
EndChar

StartChar: trademark
Encoding: 8482 8482 105
Width: 580
Flags: HMW
HStem: 480 20G<120 170 120 120> 499 225<264 273 295 306 264 264 80 396 80 366 471 504 80 455>
LayerCount: 2
Fore
SplineSet
535 724 m 1,0,-1
 504 499 l 1,1,-1
 455 499 l 1,2,-1
 474 636 l 2,3,4
 474 640 474 640 476 650 c 1,5,6
 463 623 463 623 396 499 c 1,7,-1
 366 499 l 1,8,9
 348 563 348 563 327 654 c 1,10,11
 327 648 327 648 326 646 c 2,12,-1
 306 499 l 1,13,-1
 264 499 l 1,14,-1
 295 724 l 1,15,-1
 361 724 l 1,16,-1
 396 579 l 1,17,-1
 471 724 l 1,18,-1
 535 724 l 1,0,-1
273 724 m 1,19,-1
 268 687 l 1,20,-1
 196 687 l 1,21,-1
 170 500 l 1,22,-1
 120 500 l 1,23,-1
 146 687 l 1,24,-1
 75 687 l 1,25,-1
 80 724 l 1,26,-1
 273 724 l 1,19,-1
EndSplineSet
EndChar

StartChar: acute
Encoding: 180 180 106
Width: 235
Flags: HMW
HStem: 577 21G<45 119 45 45> 704 20G<145 274 274 274>
LayerCount: 2
Fore
SplineSet
274 724 m 1,0,-1
 119 577 l 1,1,-1
 45 577 l 1,2,-1
 145 724 l 1,3,-1
 274 724 l 1,0,-1
EndSplineSet
EndChar

StartChar: dieresis
Encoding: 168 168 107
Width: 278
Flags: HMW
HStem: 567 114<42.5 73.5 205.5 236.5>
VStem: 1 114<608.5 639.5> 164 114<608.5 639.5>
LayerCount: 2
Fore
SplineSet
261.5 664.5 m 128,-1,1
 278 648 278 648 278 624.5 c 128,-1,2
 278 601 278 601 261 584 c 128,-1,3
 244 567 244 567 221 567 c 128,-1,4
 198 567 198 567 181 584 c 128,-1,5
 164 601 164 601 164 624 c 128,-1,6
 164 647 164 647 181 664 c 128,-1,7
 198 681 198 681 221.5 681 c 128,-1,0
 245 681 245 681 261.5 664.5 c 128,-1,1
98.5 664.5 m 128,-1,9
 115 648 115 648 115 624.5 c 128,-1,10
 115 601 115 601 98 584 c 128,-1,11
 81 567 81 567 58 567 c 128,-1,12
 35 567 35 567 18 584 c 128,-1,13
 1 601 1 601 1 624 c 128,-1,14
 1 647 1 647 18 664 c 128,-1,15
 35 681 35 681 58.5 681 c 128,-1,8
 82 681 82 681 98.5 664.5 c 128,-1,9
EndSplineSet
EndChar

StartChar: AE
Encoding: 198 198 108
Width: 820
Flags: HMW
HStem: 0 69<483 768> 247 71<264 417 218 427> 338 68<529 760 518 770> 655 69<561 854 561 561>
LayerCount: 2
Fore
SplineSet
864 724 m 1,0,-1
 854 655 l 1,1,-1
 561 655 l 1,2,-1
 529 406 l 1,3,-1
 770 406 l 1,4,-1
 760 338 l 1,5,-1
 518 338 l 1,6,-1
 483 69 l 1,7,-1
 778 69 l 1,8,-1
 768 0 l 1,9,-1
 384 0 l 1,10,-1
 417 247 l 1,11,-1
 218 247 l 1,12,-1
 57 0 l 1,13,-1
 -26 0 l 1,14,-1
 400 660 l 1,15,-1
 395 724 l 1,16,-1
 864 724 l 1,0,-1
469 637 m 1,17,-1
 264 318 l 1,18,-1
 427 318 l 1,19,-1
 469 637 l 1,17,-1
EndSplineSet
EndChar

StartChar: Oslash
Encoding: 216 216 109
Width: 737
Flags: HMW
HStem: -56 21G<84 84> -13 68<305.5 423 305.5 437.5> 664 69<316 431.5> 742 20G<632 632>
VStem: 57 95<262.5 363 262.5 387> 587 94<353 456.5>
LayerCount: 2
Fore
SplineSet
681 436 m 0,0,1
 681 267.965909091 681 267.965909091 590 132.5 c 0,2,3
 546 67 546 67 474.5 27 c 128,-1,4
 403 -13 403 -13 311 -13 c 128,-1,5
 219 -13 219 -13 156 39 c 1,6,-1
 84 -56 l 1,7,-1
 38 -23 l 1,8,-1
 117 79 l 1,9,10
 57 158 57 158 57 282 c 0,11,12
 57 419.457627119 57 419.457627119 113.5 531.5 c 0,13,14
 176.690989497 656.810945274 176.690989497 656.810945274 286 706 c 0,15,16
 346 733 346 733 426.5 733 c 128,-1,17
 507 733 507 733 575 687 c 1,18,-1
 632 762 l 1,19,-1
 680 731 l 1,20,-1
 616 647 l 1,21,22
 681 567 681 567 681 436 c 0,0,1
174 158 m 1,23,-1
 524 621 l 1,24,25
 478 664 478 664 410.5 664 c 128,-1,26
 343 664 343 664 291 627.5 c 128,-1,27
 239 591 239 591 210 532.5 c 0,28,29
 152 415.5 152 415.5 152 284 c 0,30,31
 152 210 152 210 174 158 c 1,23,-1
572.5 305.5 m 128,-1,33
 587 369 587 369 587 441 c 128,-1,34
 587 513 587 513 560 571 c 1,35,-1
 206 106 l 1,36,37
 253 55 253 55 324.5 55 c 128,-1,38
 396 55 396 55 448 91 c 128,-1,39
 500 127 500 127 529 184.5 c 128,-1,32
 558 242 558 242 572.5 305.5 c 128,-1,33
EndSplineSet
EndChar

StartChar: plusminus
Encoding: 177 177 110
Width: 632
Flags: HMW
HStem: 0 68<68 567 68 567> 251 69<68 282 68 282 352 567> 470 20G<282 352 352 352>
VStem: 282 70<80 251 80 251 320 490>
LayerCount: 2
Fore
SplineSet
567 251 m 1,0,-1
 352 251 l 1,1,-1
 352 80 l 1,2,-1
 282 80 l 1,3,-1
 282 251 l 1,4,-1
 68 251 l 1,5,-1
 68 320 l 1,6,-1
 282 320 l 1,7,-1
 282 490 l 1,8,-1
 352 490 l 1,9,-1
 352 320 l 1,10,-1
 567 320 l 1,11,-1
 567 251 l 1,0,-1
567 0 m 1,12,-1
 68 0 l 1,13,-1
 68 68 l 1,14,-1
 567 68 l 1,15,-1
 567 0 l 1,12,-1
EndSplineSet
EndChar

StartChar: lessequal
Encoding: 8804 8804 111
Width: 630
Flags: HMW
HStem: 0 69<68 566 68 566> 477 20G<566 566>
LayerCount: 2
Fore
SplineSet
566 76 m 1,0,-1
 68 250 l 1,1,-1
 68 324 l 1,2,-1
 566 497 l 1,3,-1
 566 421 l 1,4,-1
 164 286 l 1,5,-1
 566 151 l 1,6,-1
 566 76 l 1,0,-1
566 0 m 1,7,-1
 68 0 l 1,8,-1
 68 69 l 1,9,-1
 566 69 l 1,10,-1
 566 0 l 1,7,-1
EndSplineSet
EndChar

StartChar: greaterequal
Encoding: 8805 8805 112
Width: 630
Flags: HMW
HStem: 0 69<69 567 69 567> 477 20G<69 69>
LayerCount: 2
Fore
SplineSet
567 250 m 1,0,-1
 69 76 l 1,1,-1
 69 151 l 1,2,-1
 471 286 l 1,3,-1
 69 421 l 1,4,-1
 69 497 l 1,5,-1
 567 324 l 1,6,-1
 567 250 l 1,0,-1
567 0 m 1,7,-1
 69 0 l 1,8,-1
 69 69 l 1,9,-1
 567 69 l 1,10,-1
 567 0 l 1,7,-1
EndSplineSet
EndChar

StartChar: yen
Encoding: 165 165 113
Width: 468
Flags: HMW
HStem: 0 207<161 190 51 238 161 161> 161 46<51 183 44 190 267 401> 268 46<65 156 65 181 58 156 329 415> 268 222<64 149 64 181 58 149 392 415 64 292>
LayerCount: 2
Fore
SplineSet
466 490 m 1,0,-1
 329 314 l 1,1,-1
 422 314 l 1,2,-1
 415 268 l 1,3,-1
 292 268 l 1,4,-1
 272 242 l 1,5,-1
 267 207 l 1,6,-1
 408 207 l 1,7,-1
 401 161 l 1,8,-1
 260 161 l 1,9,-1
 238 0 l 1,10,-1
 161 0 l 1,11,-1
 183 161 l 1,12,-1
 44 161 l 1,13,-1
 51 207 l 1,14,-1
 190 207 l 1,15,-1
 194 243 l 1,16,-1
 181 268 l 1,17,-1
 58 268 l 1,18,-1
 65 314 l 1,19,-1
 156 314 l 1,20,-1
 64 490 l 1,21,-1
 149 490 l 1,22,-1
 250 304 l 1,23,-1
 392 490 l 1,24,-1
 466 490 l 1,0,-1
EndSplineSet
EndChar

StartChar: mu
Encoding: 181 181 114
AltUni2: 0003bc.ffffffff.0
Width: 584
Flags: HMW
HStem: -186 247<53 275 53 275> -13 74<218 251> 470 20G<132 224 224 224 419 511 511 511>
LayerCount: 2
Fore
SplineSet
526 20 m 1,0,1
 467.333333333 -12 467.333333333 -12 434.166666667 -12 c 128,-1,2
 401 -12 401 -12 388.5 6 c 128,-1,3
 376 24 376 24 376 52 c 2,4,-1
 376 58 l 1,5,6
 349 33 349 33 305 10 c 128,-1,7
 261 -13 261 -13 226.5 -13 c 128,-1,8
 192 -13 192 -13 161 1 c 1,9,-1
 135 -186 l 1,10,-1
 53 -186 l 1,11,-1
 136 433 l 1,12,-1
 132 490 l 1,13,-1
 224 490 l 1,14,-1
 183 189 l 1,15,16
 179 168 179 168 179 141 c 0,17,18
 179 61 179 61 244 61 c 0,19,20
 272 61 272 61 305 76 c 0,21,22
 352.666666667 97.6666666667 352.666666667 97.6666666667 382 127 c 1,23,-1
 423 433 l 1,24,-1
 419 490 l 1,25,-1
 511 490 l 1,26,-1
 455 70 l 1,27,28
 455 59 455 59 465.5 59 c 128,-1,29
 476 59 476 59 498 65 c 1,30,-1
 516 71 l 1,31,-1
 526 20 l 1,0,1
EndSplineSet
EndChar

StartChar: ordfeminine
Encoding: 170 170 115
Width: 363
Flags: HMW
HStem: 277 54<64 264 55 272> 385 40<124 153.5> 681 40<166 215>
VStem: 32 60<489.5 539 489.5 555.5>
LayerCount: 2
Fore
SplineSet
326 434 m 1,0,-1
 333 401 l 1,1,2
 301 386 301 386 281.5 386 c 128,-1,3
 262 386 262 386 247 401.5 c 128,-1,4
 232 417 232 417 230 442 c 1,5,6
 194 385 194 385 139 385 c 128,-1,7
 84 385 84 385 58 420 c 128,-1,8
 32 455 32 455 32 509 c 0,9,10
 32 585 32 585 81 653 c 128,-1,11
 130 721 130 721 203 721 c 0,12,13
 252 721 252 721 274 691 c 1,14,-1
 288 716 l 1,15,-1
 316 716 l 1,16,-1
 280 468 l 2,17,18
 279 464 279 464 279 455 c 0,19,20
 279 429 279 429 300 429 c 0,21,22
 311 429 311 429 326 434 c 1,0,-1
272 331 m 1,23,-1
 264 277 l 1,24,-1
 55 277 l 1,25,-1
 64 331 l 1,26,-1
 272 331 l 1,23,-1
247 594 m 1,27,-1
 257 656 l 1,28,29
 235 681 235 681 202 681 c 128,-1,30
 169 681 169 681 142 650 c 0,31,32
 92 592.592592593 92 592.592592593 92 507 c 0,33,34
 92 475 92 475 104.5 450 c 128,-1,35
 117 425 117 425 144 425 c 0,36,37
 221 425 221 425 247 594 c 1,27,-1
EndSplineSet
EndChar

StartChar: ordmasculine
Encoding: 186 186 116
Width: 355
Flags: HMW
HStem: 277 54<45 245 37 254> 383 48<135.5 195.5 135.5 208.5> 674 48<160 220>
VStem: 33 61<507.5 558 507.5 568.5> 261 61<549.5 601>
LayerCount: 2
Fore
SplineSet
290.5 682 m 128,-1,1
 322 642 322 642 322 574 c 128,-1,2
 322 506 322 506 276.5 444.5 c 128,-1,3
 231 383 231 383 155 383 c 0,4,5
 96 383 96 383 64.5 422 c 128,-1,6
 33 461 33 461 33 529 c 128,-1,7
 33 597 33 597 79.5 659.5 c 128,-1,8
 126 722 126 722 200 722 c 0,9,0
 259 722 259 722 290.5 682 c 128,-1,1
254 331 m 1,10,-1
 245 277 l 1,11,-1
 37 277 l 1,12,-1
 45 331 l 1,13,-1
 254 331 l 1,10,-1
234.5 479 m 128,-1,15
 261 527 261 527 261 572.5 c 0,16,17
 261 674 261 674 194 674 c 0,18,19
 147 674 147 674 120.5 627 c 128,-1,20
 94 580 94 580 94 535 c 128,-1,21
 94 490 94 490 110 460.5 c 128,-1,22
 126 431 126 431 161 431 c 0,23,14
 208 431 208 431 234.5 479 c 128,-1,15
EndSplineSet
EndChar

StartChar: ae
Encoding: 230 230 117
Width: 714
Flags: HMW
HStem: -13 71 -12 21G<450.5 516.5> 203 58<372 407.5> 443 62<236 302.5 521.5 554.5>
VStem: 36 93<152 222.5 152 252> 286 86<176.5 198 198 203 161 233> 593 84<387 391 391 391>
LayerCount: 2
Fore
SplineSet
677 399 m 0,0,1
 677 308 677 308 580 249 c 0,2,3
 507 205 507 205 372 203 c 1,4,-1
 372 198 l 2,5,6
 372 138 372 138 402 98 c 128,-1,7
 432 58 432 58 489 58 c 0,8,9
 564 58 564 58 628 103 c 1,10,-1
 657 44 l 1,11,12
 574 -12 574 -12 481 -12 c 128,-1,13
 388 -12 388 -12 332 54 c 1,14,15
 275 -13 275 -13 195.5 -13 c 128,-1,16
 116 -13 116 -13 76 42.5 c 128,-1,17
 36 98 36 98 36 176 c 128,-1,18
 36 254 36 254 67 327 c 128,-1,19
 98 400 98 400 159 452.5 c 128,-1,20
 220 505 220 505 293 505 c 128,-1,21
 366 505 366 505 405 454 c 1,22,23
 467 505 467 505 550 505 c 0,24,25
 605 505 605 505 641 479 c 128,-1,26
 677 453 677 453 677 399 c 0,0,1
593 387 m 2,27,-1
 593 391 l 1,28,29
 592 443 592 443 536 443 c 128,-1,30
 480 443 480 443 430.5 382.5 c 128,-1,31
 381 322 381 322 377 261 c 1,32,33
 434.48 261 434.48 261 507 285.5 c 0,34,35
 544 298 544 298 568.5 324.5 c 128,-1,36
 593 351 593 351 593 387 c 2,27,-1
365 416 m 1,37,38
 332 443 332 443 292 443 c 128,-1,39
 252 443 252 443 220 414.5 c 128,-1,40
 188 386 188 386 169 343.5 c 0,41,42
 129 254.026315789 129 254.026315789 129 178 c 0,43,44
 129 129 129 129 147 89.5 c 128,-1,45
 165 50 165 50 206 50 c 0,46,47
 263 50 263 50 303 102 c 1,48,49
 286 145 286 145 286 193 c 0,50,51
 286 323 286 323 365 416 c 1,37,38
EndSplineSet
EndChar

StartChar: oslash
Encoding: 248 248 118
Width: 555
Flags: HMW
HStem: -67 21G<68 68> -12 63<229 298.5 229 317> 443 63<243.5 311.5> 530 20G<457 457>
VStem: 53 83<192.5 252 192.5 266.5> 405 83<247.5 309.5>
LayerCount: 2
Fore
SplineSet
502 522 m 1,0,-1
 443 443 l 1,1,2
 488 387 488 387 488 306 c 128,-1,3
 488 225 488 225 460 155 c 128,-1,4
 432 85 432 85 372.5 36.5 c 128,-1,5
 313 -12 313 -12 242 -12 c 128,-1,6
 171 -12 171 -12 133 18 c 1,7,-1
 68 -67 l 1,8,-1
 26 -37 l 1,9,-1
 96 54 l 1,10,11
 53 109 53 109 53 189 c 128,-1,12
 53 269 53 269 81.5 338.5 c 128,-1,13
 110 408 110 408 170 457 c 128,-1,14
 230 506 230 506 297 506 c 128,-1,15
 364 506 364 506 405 480 c 1,16,-1
 457 550 l 1,17,-1
 502 522 l 1,0,-1
148 128 m 1,18,-1
 362 420 l 1,19,20
 336 443 336 443 291.5 443 c 128,-1,21
 247 443 247 443 208 402.5 c 0,22,23
 136 327.730769231 136 327.730769231 136 204 c 0,24,25
 136 151 136 151 148 128 c 1,18,-1
389 189 m 128,-1,27
 405 243 405 243 405 291 c 128,-1,28
 405 339 405 339 394 372 c 1,29,-1
 176 79 l 1,30,31
 201 51 201 51 248 51 c 128,-1,32
 295 51 295 51 334 93 c 128,-1,26
 373 135 373 135 389 189 c 128,-1,27
EndSplineSet
EndChar

StartChar: questiondown
Encoding: 191 191 119
Width: 382
Flags: HMW
HStem: -135 65<172.5 203 172.5 209.5> 475 133<301 336 300.5 337>
VStem: 35 80<-27.5 63 -27.5 109.5> 253 132<524.5 559.5> 285 78<202 282>
LayerCount: 2
Fore
SplineSet
385 542 m 128,-1,1
 385 515 385 515 365.5 495 c 128,-1,2
 346 475 346 475 319 475 c 128,-1,3
 292 475 292 475 272.5 495 c 128,-1,4
 253 515 253 515 253 541.5 c 128,-1,5
 253 568 253 568 272.5 588 c 128,-1,6
 292 608 292 608 318.5 608 c 128,-1,7
 345 608 345 608 365 588.5 c 128,-1,0
 385 569 385 569 385 542 c 128,-1,1
363 249 m 0,8,9
 363 199 363 199 337.5 167 c 128,-1,10
 312 135 312 135 275.5 120 c 128,-1,11
 239 105 239 105 202.5 92 c 128,-1,12
 166 79 166 79 140.5 55 c 128,-1,13
 115 31 115 31 115 -2.5 c 128,-1,14
 115 -36 115 -36 138 -53 c 128,-1,15
 161 -70 161 -70 201 -70 c 128,-1,16
 241 -70 241 -70 267 -55 c 1,17,-1
 284 -122 l 1,18,19
 250 -135 250 -135 186.5 -135 c 128,-1,20
 123 -135 123 -135 79 -97 c 128,-1,21
 35 -59 35 -59 35 12 c 0,22,23
 35 58 35 58 53.5 90.5 c 128,-1,24
 72 123 72 123 100 138.5 c 128,-1,25
 128 154 128 154 160 167 c 128,-1,26
 192 180 192 180 220 188.5 c 0,27,28
 285 208.232142857 285 208.232142857 285 253 c 0,29,30
 285 280 285 280 263 297 c 0,31,32
 228.058823529 324 228.058823529 324 164 324 c 1,33,-1
 183 391 l 1,34,35
 259 384 259 384 311 350.5 c 128,-1,36
 363 317 363 317 363 249 c 0,8,9
EndSplineSet
EndChar

StartChar: exclamdown
Encoding: 161 161 120
Width: 245
Flags: HMW
HStem: -235 21G<64.5 92.5> 371 132<146 182 146 182.5>
VStem: 98 132<419 455>
LayerCount: 2
Fore
SplineSet
98 437 m 128,-1,1
 98 464 98 464 117.5 483.5 c 128,-1,2
 137 503 137 503 164 503 c 128,-1,3
 191 503 191 503 210.5 483.5 c 128,-1,4
 230 464 230 464 230 436.5 c 0,5,6
 230 409 230 409 211 390 c 128,-1,7
 192 371 192 371 164.5 371 c 0,8,9
 137 371 137 371 117.5 390.5 c 128,-1,0
 98 410 98 410 98 437 c 128,-1,1
21 -177 m 2,10,-1
 112 283 l 1,11,-1
 170 274 l 1,12,-1
 133 -193 l 2,13,14
 131 -211 131 -211 115.5 -223 c 128,-1,15
 100 -235 100 -235 78 -235 c 0,16,17
 56 -235 56 -235 38 -222 c 128,-1,18
 20 -209 20 -209 20 -187 c 2,19,-1
 20 -181 l 2,20,21
 20 -178 20 -178 21 -177 c 2,10,-1
EndSplineSet
EndChar

StartChar: florin
Encoding: 402 402 121
Width: 520
Flags: HMW
HStem: -230 64<-5 27.5 -5 45.5> 427 63<188 241 170 260 339 434 188 322> 709 63<462.5 530>
LayerCount: 2
Fore
SplineSet
632 732 m 1,0,-1
 585 674 l 1,1,2
 558 709 558 709 518 709 c 128,-1,3
 478 709 478 709 447.5 690 c 128,-1,4
 417 671 417 671 396.5 636 c 0,5,6
 362.414925373 577.805970149 362.414925373 577.805970149 339 490 c 1,7,-1
 452 490 l 1,8,-1
 434 427 l 1,9,-1
 322 427 l 1,10,-1
 188 -62 l 2,11,12
 142 -230 142 -230 0 -230 c 0,13,14
 -66 -230 -66 -230 -108 -198 c 1,15,-1
 -62 -142 l 1,16,17
 -44 -156 -44 -156 -32.5 -161 c 128,-1,18
 -21 -166 -21 -166 5 -166 c 0,19,20
 80 -166 80 -166 111 -52 c 2,21,-1
 241 427 l 1,22,-1
 170 427 l 1,23,-1
 188 490 l 1,24,-1
 260 490 l 1,25,26
 299.534161491 648.136645963 299.534161491 648.136645963 368.5 714.5 c 0,27,28
 428.254901961 772 428.254901961 772 517 772 c 0,29,30
 582 772 582 772 632 732 c 1,0,-1
EndSplineSet
EndChar

StartChar: guillemotleft
Encoding: 171 171 122
Width: 454
Flags: HMW
HStem: 172 21G<172 172 320 320> 473 20G<212 212 360 360>
LayerCount: 2
Fore
SplineSet
422 482 m 1,0,-1
 283 331 l 1,1,-1
 380 181 l 1,2,-1
 320 172 l 1,3,-1
 193 332 l 1,4,-1
 360 493 l 1,5,-1
 422 482 l 1,0,-1
272 482 m 1,6,-1
 135 331 l 1,7,-1
 231 181 l 1,8,-1
 172 172 l 1,9,-1
 45 332 l 1,10,-1
 212 493 l 1,11,-1
 272 482 l 1,6,-1
EndSplineSet
EndChar

StartChar: guillemotright
Encoding: 187 187 123
Width: 454
Flags: HMW
HStem: 172 21G<106 106 254 254> 473 20G<147 147 295 295>
LayerCount: 2
Fore
SplineSet
422 333 m 1,0,-1
 254 172 l 1,1,-1
 194 183 l 1,2,-1
 332 334 l 1,3,-1
 235 485 l 1,4,-1
 295 493 l 1,5,-1
 422 333 l 1,0,-1
274 333 m 1,6,-1
 106 172 l 1,7,-1
 45 183 l 1,8,-1
 184 334 l 1,9,-1
 86 485 l 1,10,-1
 147 493 l 1,11,-1
 274 333 l 1,6,-1
EndSplineSet
EndChar

StartChar: ellipsis
Encoding: 8230 8230 124
Width: 639
Flags: HMW
HStem: -13 133<83 119 83 119.5 278 314 474 510>
VStem: 35 133<36 72> 230 133<36 72> 426 133<36 72>
LayerCount: 2
Fore
SplineSet
539 100.5 m 128,-1,1
 559 81 559 81 559 53.5 c 128,-1,2
 559 26 559 26 539.5 6.5 c 128,-1,3
 520 -13 520 -13 492.5 -13 c 128,-1,4
 465 -13 465 -13 445.5 7 c 128,-1,5
 426 27 426 27 426 54 c 128,-1,6
 426 81 426 81 445.5 100.5 c 128,-1,7
 465 120 465 120 492 120 c 128,-1,0
 519 120 519 120 539 100.5 c 128,-1,1
343 100.5 m 128,-1,9
 363 81 363 81 363 53.5 c 128,-1,10
 363 26 363 26 343.5 6.5 c 128,-1,11
 324 -13 324 -13 296.5 -13 c 128,-1,12
 269 -13 269 -13 249.5 7 c 128,-1,13
 230 27 230 27 230 54 c 128,-1,14
 230 81 230 81 249.5 100.5 c 128,-1,15
 269 120 269 120 296 120 c 128,-1,8
 323 120 323 120 343 100.5 c 128,-1,9
148 100.5 m 128,-1,17
 168 81 168 81 168 53.5 c 128,-1,18
 168 26 168 26 148.5 6.5 c 128,-1,19
 129 -13 129 -13 101.5 -13 c 128,-1,20
 74 -13 74 -13 54.5 7 c 128,-1,21
 35 27 35 27 35 54 c 128,-1,22
 35 81 35 81 54.5 100.5 c 128,-1,23
 74 120 74 120 101 120 c 128,-1,16
 128 120 128 120 148 100.5 c 128,-1,17
EndSplineSet
EndChar

StartChar: OE
Encoding: 338 338 125
Width: 978
Flags: HMW
HStem: -10 69<249 350.5> 0 21G<520 922 520 520> 337 68<664 896 654 906> 665 69<304.5 453 285.5 465> 704 20G<616 1019 1019 1019>
VStem: 45 95<233 370 233 395.5>
LayerCount: 2
Fore
SplineSet
616 724 m 1,0,-1
 1019 724 l 1,1,-1
 1009 655 l 1,2,-1
 696 655 l 1,3,-1
 664 405 l 1,4,-1
 906 405 l 1,5,-1
 896 337 l 1,6,-1
 654 337 l 1,7,-1
 618 69 l 1,8,-1
 931 69 l 1,9,-1
 922 0 l 1,10,-1
 520 0 l 1,11,-1
 530 77 l 1,12,13
 437 -10 437 -10 306 -10 c 128,-1,14
 175 -10 175 -10 110 74 c 128,-1,15
 45 158 45 158 45 289 c 0,16,17
 45 458.793103448 45 458.793103448 134.5 591.5 c 0,18,19
 178 656 178 656 248.5 695 c 128,-1,20
 319 734 319 734 407 734 c 0,21,22
 536 734 536 734 606 648 c 1,23,-1
 616 724 l 1,0,-1
574 433 m 0,24,25
 574 533 574 533 532.5 599 c 128,-1,26
 491 665 491 665 398 665 c 0,27,28
 344 665 344 665 299.5 641 c 128,-1,29
 255 617 255 617 226 579 c 128,-1,30
 197 541 197 541 177 491 c 0,31,32
 140 398.5 140 398.5 140 291 c 0,33,34
 140 197.384615385 140 197.384615385 177.5 132 c 0,35,36
 219.367647059 59 219.367647059 59 317 59 c 0,37,38
 384 59 384 59 435.5 94.5 c 128,-1,39
 487 130 487 130 516 187.5 c 0,40,41
 574 302.5 574 302.5 574 433 c 0,24,25
EndSplineSet
EndChar

StartChar: oe
Encoding: 339 339 126
Width: 801
Flags: HMW
HStem: -14 70<535.5 601> 201 58<459 533> 441 62<225 321 598.5 644.5>
VStem: 36 86<170 248 170 269> 386 73<159.5 326> 681 83<363.5 404.5>
LayerCount: 2
Fore
SplineSet
764 397 m 0,0,1
 764 303 764 303 667 247 c 0,2,3
 592 203 592 203 459 201 c 1,4,-1
 459 196 l 2,5,6
 459 137 459 137 489 96.5 c 128,-1,7
 519 56 519 56 584 56 c 128,-1,8
 649 56 649 56 715 101 c 1,9,-1
 744 42 l 1,10,11
 667 -14 667 -14 571 -14 c 0,12,13
 452 -14 452 -14 401 79 c 1,14,15
 332 -14 332 -14 220 -14 c 0,16,17
 132 -14 132 -14 84 46.5 c 128,-1,18
 36 107 36 107 36 189 c 128,-1,19
 36 271 36 271 65 340 c 128,-1,20
 94 409 94 409 153 456 c 128,-1,21
 212 503 212 503 288 503 c 0,22,23
 400 503 400 503 447 407 c 1,24,25
 522 503 522 503 637 503 c 0,26,27
 693 503 693 503 728.5 477 c 128,-1,28
 764 451 764 451 764 397 c 0,0,1
681 393 m 0,29,30
 681 412 681 412 666.5 426.5 c 128,-1,31
 652 441 652 441 626 441 c 0,32,33
 578 441 578 441 539 403.5 c 128,-1,34
 500 366 500 366 482.5 325 c 128,-1,35
 465 284 465 284 465 259 c 1,36,37
 562 259 562 259 621.5 300 c 128,-1,38
 681 341 681 341 681 393 c 0,29,30
371.5 188 m 128,-1,40
 386 241 386 241 386 296.5 c 128,-1,41
 386 352 386 352 361 396.5 c 128,-1,42
 336 441 336 441 281 441 c 0,43,44
 241 441 241 441 209 417 c 128,-1,45
 177 393 177 393 159 355.5 c 0,46,47
 122 278.416666667 122 278.416666667 122 211.208333333 c 128,-1,48
 122 144 122 144 147.5 96.5 c 128,-1,49
 173 49 173 49 227 49 c 128,-1,50
 281 49 281 49 319 92 c 128,-1,39
 357 135 357 135 371.5 188 c 128,-1,40
EndSplineSet
EndChar

StartChar: endash
Encoding: 8211 8211 127
Width: 551
Flags: HMW
HStem: 228 57<37 514 28 523>
LayerCount: 2
Fore
SplineSet
523 285 m 1,0,-1
 514 228 l 1,1,-1
 28 228 l 1,2,-1
 37 285 l 1,3,-1
 523 285 l 1,0,-1
EndSplineSet
EndChar

StartChar: emdash
Encoding: 8212 8212 128
Width: 901
Flags: HMW
HStem: 228 57<37 864 28 873>
LayerCount: 2
Fore
SplineSet
873 285 m 1,0,-1
 864 228 l 1,1,-1
 28 228 l 1,2,-1
 37 285 l 1,3,-1
 873 285 l 1,0,-1
EndSplineSet
EndChar

StartChar: quotedblleft
Encoding: 8220 8220 129
Width: 381
Flags: HMW
HStem: 480 21G<89 129> 481 21G<279.5 319> 706 20G<168 168 358 358>
VStem: 45 95<531.5 631.5> 45 135<531.5 566 525.5 588> 235 95<531.5 631.5> 235 135<531.5 566 525.5 588>
LayerCount: 2
Fore
SplineSet
388 693 m 1,0,1
 374 681 374 681 370.5 677.5 c 128,-1,2
 367 674 367 674 364 671.5 c 128,-1,3
 361 669 361 669 355.5 663.5 c 128,-1,4
 350 658 350 658 347.5 655 c 128,-1,5
 345 652 345 652 341 646.5 c 128,-1,6
 337 641 337 641 335 637 c 0,7,8
 330 627 330 627 330 619.5 c 128,-1,9
 330 612 330 612 350 590 c 128,-1,10
 370 568 370 568 370 542 c 128,-1,11
 370 516 370 516 350 498.5 c 128,-1,12
 330 481 330 481 300 481 c 128,-1,13
 270 481 270 481 252.5 501 c 128,-1,14
 235 521 235 521 235 551 c 0,15,16
 235 641 235 641 358 726 c 1,17,-1
 388 693 l 1,0,1
198 693 m 1,18,19
 184 681 184 681 180.5 677.5 c 128,-1,20
 177 674 177 674 174 671.5 c 128,-1,21
 171 669 171 669 165.5 663.5 c 128,-1,22
 160 658 160 658 157.5 655 c 128,-1,23
 155 652 155 652 151 646.5 c 128,-1,24
 147 641 147 641 145 637 c 0,25,26
 140 627 140 627 140 619.5 c 128,-1,27
 140 612 140 612 160 590 c 128,-1,28
 180 568 180 568 180 542 c 128,-1,29
 180 516 180 516 160 498 c 128,-1,30
 140 480 140 480 109.5 480 c 128,-1,31
 79 480 79 480 62 500 c 128,-1,32
 45 520 45 520 45 551 c 0,33,34
 45 641 45 641 168 726 c 1,35,-1
 198 693 l 1,18,19
EndSplineSet
EndChar

StartChar: quotedblright
Encoding: 8221 8221 130
Width: 451
Flags: HMW
HStem: 479 21G<93 93 282 282> 705 20G<132 171.5 321.5 361.5>
VStem: 81 135<639 673.5 618 679.5> 270 136<639 673.5 618 679.5>
LayerCount: 2
Fore
SplineSet
406 654 m 0,0,1
 406 563 406 563 282 479 c 1,2,-1
 253 512 l 1,3,4
 257 516 257 516 269.5 527 c 128,-1,5
 282 538 282 538 289 545.5 c 0,6,7
 310 568 310 568 310 586 c 0,8,9
 310 593 310 593 290 615 c 128,-1,10
 270 637 270 637 270 663 c 128,-1,11
 270 689 270 689 290.5 707 c 128,-1,12
 311 725 311 725 341 725 c 128,-1,13
 371 725 371 725 388.5 705 c 128,-1,14
 406 685 406 685 406 654 c 0,0,1
216 654 m 0,15,16
 216 562 216 562 93 479 c 1,17,-1
 63 512 l 1,18,19
 67 516 67 516 79.5 527.5 c 128,-1,20
 92 539 92 539 99.5 546.5 c 0,21,22
 121 568 121 568 121 586 c 0,23,24
 121 593 121 593 101 615 c 128,-1,25
 81 637 81 637 81 663 c 128,-1,26
 81 689 81 689 101 707 c 128,-1,27
 121 725 121 725 151 725 c 128,-1,28
 181 725 181 725 198.5 705 c 128,-1,29
 216 685 216 685 216 654 c 0,15,16
EndSplineSet
EndChar

StartChar: quoteleft
Encoding: 8216 8216 131
Width: 191
Flags: HMW
HStem: 480 21G<89.5 129> 706 20G<168 168>
VStem: 45 95<531.5 631.5> 45 135<531.5 566 525.5 588>
LayerCount: 2
Fore
SplineSet
198 693 m 1,0,1
 184 681 184 681 180.5 677.5 c 128,-1,2
 177 674 177 674 174 671.5 c 128,-1,3
 171 669 171 669 165.5 663.5 c 128,-1,4
 160 658 160 658 157.5 655 c 128,-1,5
 155 652 155 652 151 646.5 c 128,-1,6
 147 641 147 641 145 637 c 0,7,8
 140 627 140 627 140 619.5 c 128,-1,9
 140 612 140 612 160 590 c 128,-1,10
 180 568 180 568 180 542 c 128,-1,11
 180 516 180 516 160 498 c 128,-1,12
 140 480 140 480 110 480 c 128,-1,13
 80 480 80 480 62.5 500 c 128,-1,14
 45 520 45 520 45 551 c 0,15,16
 45 641 45 641 168 726 c 1,17,-1
 198 693 l 1,0,1
EndSplineSet
EndChar

StartChar: quoteright
Encoding: 8217 8217 132
Width: 261
Flags: HMW
HStem: 479 21G<93 93> 704 20G<132 171.5>
VStem: 81 135<639 673.5 618 679.5>
LayerCount: 2
Fore
SplineSet
216 654 m 0,0,1
 216 562 216 562 93 479 c 1,2,-1
 63 512 l 1,3,4
 67 516 67 516 79.5 527.5 c 128,-1,5
 92 539 92 539 99.5 546.5 c 0,6,7
 121 568 121 568 121 586 c 0,8,9
 121 593 121 593 101 615 c 128,-1,10
 81 637 81 637 81 663 c 128,-1,11
 81 689 81 689 101 706.5 c 128,-1,12
 121 724 121 724 151 724 c 128,-1,13
 181 724 181 724 198.5 704 c 128,-1,14
 216 684 216 684 216 654 c 0,0,1
EndSplineSet
EndChar

StartChar: divide
Encoding: 247 247 133
Width: 630
Flags: HMW
HStem: 27 120<299.5 333.5 299.5 333.5> 210 66<68 567 68 567> 340 121<299.5 332.5>
VStem: 255 122<69.5 104.5 382.5 417.5>
LayerCount: 2
Fore
SplineSet
377 400 m 128,-1,1
 377 374 377 374 359 357 c 128,-1,2
 341 340 341 340 316 340 c 128,-1,3
 291 340 291 340 273 357 c 128,-1,4
 255 374 255 374 255 400 c 128,-1,5
 255 426 255 426 272.5 443.5 c 128,-1,6
 290 461 290 461 316 461 c 128,-1,7
 342 461 342 461 359.5 443.5 c 128,-1,0
 377 426 377 426 377 400 c 128,-1,1
567 210 m 1,8,-1
 68 210 l 1,9,-1
 68 276 l 1,10,-1
 567 276 l 1,11,-1
 567 210 l 1,8,-1
377 87 m 128,-1,13
 377 61 377 61 359.5 44 c 128,-1,14
 342 27 342 27 316 27 c 128,-1,15
 290 27 290 27 272.5 44 c 128,-1,16
 255 61 255 61 255 87 c 128,-1,17
 255 113 255 113 273 130 c 128,-1,18
 291 147 291 147 316.5 147 c 0,19,20
 342 147 342 147 359.5 130 c 128,-1,12
 377 113 377 113 377 87 c 128,-1,13
EndSplineSet
EndChar

StartChar: fraction
Encoding: 8260 8260 134
Width: 241
Flags: HMW
HStem: -22 21G<-99 -40 -99 -99> 733 20G<297 356 356 356>
LayerCount: 2
Fore
SplineSet
-40 -22 m 1,0,-1
 -99 -22 l 1,1,-1
 297 753 l 1,2,-1
 356 753 l 1,3,-1
 -40 -22 l 1,0,-1
EndSplineSet
EndChar

StartChar: guilsinglleft
Encoding: 8249 8249 135
Width: 304
Flags: HMW
HStem: 169 21G<205 205> 470 20G<201 201>
LayerCount: 2
Fore
SplineSet
264 178 m 1,0,-1
 205 169 l 1,1,-1
 56 329 l 1,2,-1
 201 490 l 1,3,-1
 262 479 l 1,4,-1
 146 329 l 1,5,-1
 264 178 l 1,0,-1
EndSplineSet
EndChar

StartChar: guilsinglright
Encoding: 8250 8250 136
Width: 310
Flags: HMW
HStem: 167 21G<113 113> 468 20G<117 117>
LayerCount: 2
Fore
SplineSet
262 327 m 1,0,-1
 113 167 l 1,1,-1
 54 176 l 1,2,-1
 172 327 l 1,3,-1
 56 477 l 1,4,-1
 117 488 l 1,5,-1
 262 327 l 1,0,-1
EndSplineSet
EndChar

StartChar: fi
Encoding: 64257 64257 137
Width: 500
Flags: HMW
HStem: -230 64<-62 -22.5 -62 2.5> 0 21G<315 404 315 315> 427 63<47 109 38 119 199 372> 707 64<308.5 357.5>
LayerCount: 2
Fore
SplineSet
202 513 m 1,0,-1
 199 490 l 1,1,-1
 460 490 l 1,2,-1
 404 62 l 1,3,-1
 404 0 l 1,4,-1
 315 0 l 1,5,-1
 372 427 l 1,6,-1
 189 427 l 1,7,-1
 122 -62 l 2,8,9
 111 -142 111 -142 68 -186 c 128,-1,10
 25 -230 25 -230 -42 -230 c 128,-1,11
 -109 -230 -109 -230 -155 -199 c 1,12,-1
 -115 -142 l 1,13,14
 -93 -157 -93 -157 -81 -161.5 c 128,-1,15
 -69 -166 -69 -166 -45 -166 c 0,16,17
 29 -166 29 -166 44 -52 c 2,18,-1
 109 427 l 1,19,-1
 38 427 l 1,20,-1
 47 490 l 1,21,-1
 119 490 l 1,22,23
 129 558 129 558 142 603.5 c 128,-1,24
 155 649 155 649 178.5 690 c 0,25,26
 224.926829268 771 224.926829268 771 339 771 c 0,27,28
 399 771 399 771 439.5 742 c 128,-1,29
 480 713 480 713 491 658 c 1,30,-1
 414 635 l 1,31,32
 410 670 410 670 389.5 688.5 c 128,-1,33
 369 707 369 707 336 707 c 0,34,35
 288 707 288 707 253 665.5 c 128,-1,36
 218 624 218 624 202 513 c 1,0,-1
EndSplineSet
Ligature2: "'liga' Standard Ligatures in Latin lookup 0 subtable" f i
EndChar

StartChar: fl
Encoding: 64258 64258 138
Width: 519
Flags: HMW
HStem: -230 64<-62 -22 -62 3.5> 0 21G<330 420 330 330> 427 63<47 109 38 119 199 302> 709 63<316 366.5>
LayerCount: 2
Fore
SplineSet
514 766 m 1,0,-1
 420 63 l 1,1,-1
 420 0 l 1,2,-1
 330 0 l 1,3,-1
 418 646 l 1,4,5
 418 673 418 673 397.5 691 c 128,-1,6
 377 709 377 709 345 709 c 0,7,8
 292 709 292 709 255 669.5 c 128,-1,9
 218 630 218 630 202 513 c 0,10,11
 201 511 201 511 201 506 c 2,12,-1
 199 490 l 1,13,-1
 311 490 l 1,14,-1
 302 427 l 1,15,-1
 190 427 l 1,16,-1
 123 -62 l 2,17,18
 100 -230 100 -230 -42 -230 c 0,19,20
 -108 -230 -108 -230 -154 -199 c 1,21,-1
 -114 -141 l 1,22,23
 -88.3045977011 -159.137931034 -88.3045977011 -159.137931034 -75.1522988506 -162.568965517 c 128,-1,24
 -62 -166 -62 -166 -44 -166 c 0,25,26
 30 -166 30 -166 45 -52 c 2,27,-1
 109 427 l 1,28,-1
 38 427 l 1,29,-1
 47 490 l 1,30,-1
 119 490 l 1,31,32
 126 539 126 539 133 572.5 c 128,-1,33
 140 606 140 606 156.5 647 c 128,-1,34
 173 688 173 688 195 713 c 128,-1,35
 217 738 217 738 254.5 755 c 128,-1,36
 292 772 292 772 335 772 c 128,-1,37
 378 772 378 772 407 760.5 c 128,-1,38
 436 749 436 749 445 740 c 1,39,-1
 514 766 l 1,0,-1
EndSplineSet
Ligature2: "'liga' Standard Ligatures in Latin lookup 0 subtable" f l
EndChar

StartChar: daggerdbl
Encoding: 8225 8225 139
Width: 532
Flags: HMW
HStem: -130 21G<210 210> 710 20G<324 324>
LayerCount: 2
Fore
SplineSet
226 129 m 1,0,-1
 223 273 l 2,1,2
 223 301 223 301 224 311 c 128,-1,3
 225 321 225 321 235 351.5 c 0,4,5
 269.545454545 456.863636364 269.545454545 456.863636364 274 468 c 1,6,-1
 138 445 l 1,7,-1
 86 485 l 1,8,-1
 149 524 l 1,9,-1
 278 498 l 1,10,-1
 272 657 l 1,11,-1
 324 730 l 1,12,-1
 361 657 l 1,13,-1
 311 498 l 1,14,-1
 448 524 l 1,15,-1
 498 481 l 1,16,-1
 437 445 l 1,17,-1
 307 468 l 1,18,-1
 312 318 l 1,19,-1
 312 309 l 1,20,21
 304 260 304 260 263 129 c 1,22,-1
 393 150 l 1,23,-1
 447 112 l 1,24,-1
 382 74 l 1,25,-1
 260 99 l 1,26,-1
 260 -60 l 1,27,-1
 210 -130 l 1,28,-1
 171 -60 l 1,29,-1
 222 99 l 1,30,-1
 86 74 l 1,31,-1
 34 116 l 1,32,-1
 97 150 l 1,33,-1
 226 129 l 1,0,-1
EndSplineSet
EndChar

StartChar: periodcentered
Encoding: 183 183 140
Width: 285
Flags: HMW
HStem: 189 133<129.5 165.5 129 166>
VStem: 82 132<237.5 274>
LayerCount: 2
Fore
SplineSet
214 256 m 128,-1,1
 214 228 214 228 194.5 208.5 c 128,-1,2
 175 189 175 189 147.5 189 c 0,3,4
 120 189 120 189 101 208.5 c 128,-1,5
 82 228 82 228 82 255.5 c 0,6,7
 82 283 82 283 101 302.5 c 128,-1,8
 120 322 120 322 147.5 322 c 0,9,10
 175 322 175 322 194.5 303 c 128,-1,0
 214 284 214 284 214 256 c 128,-1,1
EndSplineSet
EndChar

StartChar: quotesinglbase
Encoding: 8218 8218 141
Width: 252
Flags: HMW
HStem: -125 21G<47 47> 100 20G<86.5 126.5>
VStem: 35 136<35 69.5 14 75.5>
LayerCount: 2
Fore
SplineSet
171 50 m 0,0,1
 171 -41 171 -41 47 -125 c 1,2,-1
 18 -92 l 1,3,4
 22 -88 22 -88 34.5 -77 c 128,-1,5
 47 -66 47 -66 54 -58.5 c 0,6,7
 75 -36 75 -36 75 -18 c 0,8,9
 75 -11 75 -11 55 11 c 128,-1,10
 35 33 35 33 35 59 c 128,-1,11
 35 85 35 85 55.5 102.5 c 128,-1,12
 76 120 76 120 106 120 c 128,-1,13
 136 120 136 120 153.5 100 c 128,-1,14
 171 80 171 80 171 50 c 0,0,1
EndSplineSet
EndChar

StartChar: quotedblbase
Encoding: 8222 8222 142
Width: 440
Flags: HMW
HStem: -125 21G<47 47 237 237> 101 20G<86 125.5 276 315.5>
VStem: 35 135<35 69.5 14 75.5> 225 135<35 69.5 14 75.5>
LayerCount: 2
Fore
SplineSet
360 50 m 0,0,1
 360 -42 360 -42 237 -125 c 1,2,-1
 207 -92 l 1,3,-1
 213 -87 l 1,4,5
 265 -45 265 -45 265 -18 c 0,6,7
 265 -11 265 -11 245 11 c 128,-1,8
 225 33 225 33 225 59 c 0,9,10
 225 85 225 85 245 103 c 128,-1,11
 265 121 265 121 295 121 c 0,12,13
 325 121 325 121 342.5 101 c 128,-1,14
 360 81 360 81 360 50 c 0,0,1
170 50 m 0,15,16
 170 -42 170 -42 47 -125 c 1,17,-1
 17 -92 l 1,18,-1
 23 -87 l 1,19,20
 75 -45 75 -45 75 -18 c 0,21,22
 75 -11 75 -11 55 11 c 128,-1,23
 35 33 35 33 35 59 c 0,24,25
 35 85 35 85 55 103 c 128,-1,26
 75 121 75 121 105 121 c 0,27,28
 135 121 135 121 152.5 101 c 128,-1,29
 170 81 170 81 170 50 c 0,15,16
EndSplineSet
EndChar

StartChar: perthousand
Encoding: 8240 8240 143
Width: 1052
Flags: HMW
HStem: -13 21G<101 169 101 101> -5 60<474.5 534 474.5 550.5 808.5 868> 322 62 653 56<191.5 608 334 507 334 334> 691 20G<164 224.5>
VStem: 45 72<463 517.5 463 532.5> 288 73<523 570.5 505 573> 357 72<136 189.5 136 207.5> 601 73<194.5 245.5> 691 72<136 189.5 136 207.5> 935 73<194.5 245.5>
LayerCount: 2
Fore
SplineSet
974 337 m 128,-1,1
 1008 290 1008 290 1008 233 c 128,-1,2
 1008 176 1008 176 987.5 124 c 128,-1,3
 967 72 967 72 924 33.5 c 128,-1,4
 881 -5 881 -5 822 -5 c 128,-1,5
 763 -5 763 -5 727 42 c 128,-1,6
 691 89 691 89 691 154 c 0,7,8
 691 243 691 243 741 313.5 c 128,-1,9
 791 384 791 384 877 384 c 0,10,0
 940 384 940 384 974 337 c 128,-1,1
640 337 m 128,-1,12
 674 290 674 290 674 233 c 128,-1,13
 674 176 674 176 653.5 124 c 128,-1,14
 633 72 633 72 590 33.5 c 128,-1,15
 547 -5 547 -5 488 -5 c 128,-1,16
 429 -5 429 -5 393 42 c 128,-1,17
 357 89 357 89 357 154 c 0,18,19
 357 243 357 243 407 313.5 c 128,-1,20
 457 384 457 384 543 384 c 0,21,11
 606 384 606 384 640 337 c 128,-1,12
608 709 m 1,22,-1
 169 -13 l 1,23,-1
 101 -13 l 1,24,-1
 507 653 l 1,25,-1
 334 653 l 1,26,27
 361 609 361 609 361 556 c 128,-1,28
 361 503 361 503 340.5 451 c 128,-1,29
 320 399 320 399 277.5 360.5 c 128,-1,30
 235 322 235 322 176 322 c 128,-1,31
 117 322 117 322 81 369 c 128,-1,32
 45 416 45 416 45 492 c 128,-1,33
 45 568 45 568 93 639.5 c 128,-1,34
 141 711 141 711 223 711 c 1,35,-1
 245.5 710 l 2,36,37
 268 709 268 709 275 709 c 2,38,-1
 608 709 l 1,22,-1
907.5 112 m 128,-1,40
 935 169 935 169 935 216 c 128,-1,41
 935 263 935 263 919 294.5 c 128,-1,42
 903 326 903 326 871 326 c 0,43,44
 825 326 825 326 794 269.5 c 128,-1,45
 763 213 763 213 763 166.5 c 128,-1,46
 763 120 763 120 781 87.5 c 128,-1,47
 799 55 799 55 833 55 c 0,48,39
 880 55 880 55 907.5 112 c 128,-1,40
278 482.5 m 128,-1,50
 288 520 288 520 288 555.5 c 128,-1,51
 288 591 288 591 273 622 c 128,-1,52
 258 653 258 653 225 653 c 0,53,54
 179 653 179 653 148 597 c 128,-1,55
 117 541 117 541 117 494 c 128,-1,56
 117 447 117 447 135 414.5 c 128,-1,57
 153 382 153 382 186 382 c 128,-1,58
 219 382 219 382 243.5 413.5 c 128,-1,49
 268 445 268 445 278 482.5 c 128,-1,50
573.5 112 m 128,-1,60
 601 169 601 169 601 216 c 128,-1,61
 601 263 601 263 585 294.5 c 128,-1,62
 569 326 569 326 537 326 c 0,63,64
 491 326 491 326 460 269.5 c 128,-1,65
 429 213 429 213 429 166.5 c 128,-1,66
 429 120 429 120 447 87.5 c 128,-1,67
 465 55 465 55 499 55 c 0,68,59
 546 55 546 55 573.5 112 c 128,-1,60
EndSplineSet
EndChar

StartChar: circumflex
Encoding: 710 710 144
Width: 254
Flags: HMW
HStem: 574 21G<-11 54 -11 -11 201 266 201 201> 704 20G<107 186 186 186>
LayerCount: 2
Fore
SplineSet
266 574 m 1,0,-1
 201 574 l 1,1,-1
 137 653 l 1,2,-1
 54 574 l 1,3,-1
 -11 574 l 1,4,-1
 107 724 l 1,5,-1
 186 724 l 1,6,-1
 266 574 l 1,0,-1
EndSplineSet
EndChar

StartChar: tilde
Encoding: 732 732 145
Width: 272
Flags: HMW
HStem: 575 70<193 209.5> 613 32 613 70<68.5 83.5>
LayerCount: 2
Fore
SplineSet
266 673 m 1,0,-1
 289 648 l 1,1,2
 281 629 281 629 266 611 c 0,3,4
 236 575 236 575 192 575 c 0,5,6
 165 575 165 575 124 594 c 128,-1,7
 83 613 83 613 58.5 613 c 0,8,9
 34 613 34 613 7 586 c 1,10,-1
 -18 606 l 1,11,12
 -9 628 -9 628 6 644 c 0,13,14
 41 683 41 683 88 683 c 0,15,16
 115 683 115 683 155 664 c 128,-1,17
 195 645 195 645 216.5 645 c 0,18,19
 238 645 238 645 266 673 c 1,0,-1
EndSplineSet
EndChar

StartChar: macron
Encoding: 175 175 146
Width: 276
Flags: HMW
HStem: 598 59<-8 282 -8 282>
LayerCount: 2
Fore
SplineSet
282 598 m 1,0,-1
 -8 598 l 1,1,-1
 -8 657 l 1,2,-1
 282 657 l 1,3,-1
 282 598 l 1,0,-1
EndSplineSet
EndChar

StartChar: breve
Encoding: 728 728 147
Width: 256
Flags: HMW
HStem: 589 68<109.5 163 109.5 173.5> 589 135<15 173.5>
VStem: 15 47<711 724 724 724>
LayerCount: 2
Fore
SplineSet
233 724 m 1,0,-1
 280 724 l 1,1,2
 262 660 262 660 227 624.5 c 128,-1,3
 192 589 192 589 134 589 c 0,4,5
 76 589 76 589 45.5 620.5 c 128,-1,6
 15 652 15 652 15 711 c 2,7,-1
 15 724 l 1,8,-1
 62 724 l 1,9,10
 67 657 67 657 137 657 c 128,-1,11
 207 657 207 657 233 724 c 1,0,-1
EndSplineSet
EndChar

StartChar: dotaccent
Encoding: 729 729 148
Width: 201
Flags: HMW
HStem: 561 128<127 158>
VStem: 76 134<616 632.5>
LayerCount: 2
Fore
SplineSet
97 665.5 m 128,-1,1
 118 689 118 689 149 689 c 128,-1,2
 180 689 180 689 195 671.5 c 128,-1,3
 210 654 210 654 210 630 c 128,-1,4
 210 606 210 606 188.5 583.5 c 128,-1,5
 167 561 167 561 136 561 c 128,-1,6
 105 561 105 561 90.5 578.5 c 128,-1,7
 76 596 76 596 76 619 c 128,-1,0
 76 642 76 642 97 665.5 c 128,-1,1
EndSplineSet
EndChar

StartChar: ring
Encoding: 730 730 149
Width: 221
Flags: HMW
HStem: 551 51<127.5 154.5 127.5 169> 698 52<127.5 154.5>
VStem: 42 51<636.5 663.5 636.5 678> 189 52<636.5 663.5>
LayerCount: 2
Fore
SplineSet
241 650 m 128,-1,1
 241 608 241 608 212 579.5 c 128,-1,2
 183 551 183 551 141 551 c 128,-1,3
 99 551 99 551 70.5 579.5 c 128,-1,4
 42 608 42 608 42 650 c 128,-1,5
 42 692 42 692 71 721 c 128,-1,6
 100 750 100 750 142 750 c 128,-1,7
 184 750 184 750 212.5 721 c 128,-1,0
 241 692 241 692 241 650 c 128,-1,1
189 650 m 128,-1,9
 189 670 189 670 175 684 c 128,-1,10
 161 698 161 698 141 698 c 128,-1,11
 121 698 121 698 107 684 c 128,-1,12
 93 670 93 670 93 650 c 128,-1,13
 93 630 93 630 107 616 c 128,-1,14
 121 602 121 602 141 602 c 128,-1,15
 161 602 161 602 175 616 c 128,-1,8
 189 630 189 630 189 650 c 128,-1,9
EndSplineSet
EndChar

StartChar: cedilla
Encoding: 184 184 150
Width: 229
Flags: HMW
HStem: -218 21G<72 72> -12 20G<136 181 181 181>
VStem: 137 72<-136.5 -105.5>
LayerCount: 2
Fore
SplineSet
151 -46 m 1,0,1
 209 -64 209 -64 209 -115 c 0,2,3
 209 -196.923076923 209 -196.923076923 72 -218 c 1,4,-1
 65 -186 l 1,5,6
 89 -186 89 -186 113 -164 c 128,-1,7
 137 -142 137 -142 137 -119 c 0,8,9
 137 -87 137 -87 90 -71 c 1,10,-1
 136 8 l 1,11,-1
 181 8 l 1,12,-1
 151 -46 l 1,0,1
EndSplineSet
EndChar

StartChar: hungarumlaut
Encoding: 733 733 151
Width: 308
Flags: HMW
HStem: 557 167<-12 202 -12 202 122 182 122 122>
LayerCount: 2
Fore
SplineSet
337 724 m 1,0,-1
 182 557 l 1,1,-1
 122 557 l 1,2,-1
 224 724 l 1,3,-1
 337 724 l 1,0,-1
202 724 m 1,4,-1
 48 557 l 1,5,-1
 -12 557 l 1,6,-1
 89 724 l 1,7,-1
 202 724 l 1,4,-1
EndSplineSet
EndChar

StartChar: ogonek
Encoding: 731 731 152
Width: 294
Flags: HMW
HStem: -201 55<145.5 147.5> 3 20G<234 234>
VStem: 36 82<-122.5 -92>
LayerCount: 2
Fore
SplineSet
234 23 m 1,0,-1
 252 11 l 1,1,2
 118 -51 118 -51 118 -111 c 0,3,4
 118 -146 118 -146 159 -146 c 0,5,6
 182 -146 182 -146 240 -114 c 1,7,-1
 251 -151 l 1,8,9
 176 -201 176 -201 117 -201 c 0,10,11
 77 -201 77 -201 56.5 -182 c 128,-1,12
 36 -163 36 -163 36 -129 c 128,-1,13
 36 -95 36 -95 72 -60.5 c 0,14,15
 136.159090909 0.985795454545 136.159090909 0.985795454545 234 23 c 1,0,-1
EndSplineSet
EndChar

StartChar: caron
Encoding: 711 711 153
Width: 264
Flags: HMW
HStem: 553 21G<85 166 85 85> 704 20G<12 77 77 77 222 289 289 289>
LayerCount: 2
Fore
SplineSet
289 724 m 1,0,-1
 166 553 l 1,1,-1
 85 553 l 1,2,-1
 12 724 l 1,3,-1
 77 724 l 1,4,-1
 135 625 l 1,5,-1
 222 724 l 1,6,-1
 289 724 l 1,0,-1
EndSplineSet
EndChar

StartChar: Euro
Encoding: 8364 8364 155
Width: 480
Flags: HMW
HStem: -13 69<263.5 313.5> 170 47<30 98 30 98 23 98 187 380 187 187> 279 46<45 107 38 120 205 394> 440 64<311 364>
LayerCount: 2
Fore
SplineSet
492 453 m 1,0,-1
 443 396 l 1,1,2
 415 422 415 422 394.5 431 c 128,-1,3
 374 440 374 440 336.5 440 c 0,4,5
 299 440 299 440 262 406 c 128,-1,6
 225 372 225 372 205 325 c 1,7,-1
 401 325 l 1,8,-1
 394 279 l 1,9,-1
 191 279 l 1,10,11
 186 251 186 251 184 217 c 1,12,-1
 387 217 l 1,13,-1
 380 170 l 1,14,-1
 187 170 l 1,15,16
 194 124 194 124 222.5 90 c 128,-1,17
 251 56 251 56 302 56 c 0,18,19
 353 56 353 56 414 100 c 1,20,-1
 442 36 l 1,21,22
 392 9 392 9 359 -2 c 128,-1,23
 326 -13 326 -13 281 -13 c 0,24,25
 201 -13 201 -13 152.5 38.5 c 128,-1,26
 104 90 104 90 98 170 c 1,27,-1
 23 170 l 1,28,-1
 30 217 l 1,29,-1
 98 217 l 1,30,31
 101 247 101 247 107 279 c 1,32,-1
 38 279 l 1,33,-1
 45 325 l 1,34,-1
 120 325 l 1,35,36
 149 405 149 405 213.5 454.5 c 128,-1,37
 278 504 278 504 357 504 c 0,38,39
 436 504 436 504 492 453 c 1,0,-1
EndSplineSet
EndChar

StartChar: partialdiff
Encoding: 8706 8706 156
Width: 523
Flags: HMW
HStem: -10 67<180 249> 340 70<227 294.5> 661 73<253.5 291>
VStem: 37 88<136 204 136 246.5> 392 95<435.5 524>
LayerCount: 2
Fore
SplineSet
130 683 m 1,0,1
 193 734 193 734 283 734 c 128,-1,2
 373 734 373 734 430 657 c 128,-1,3
 487 580 487 580 487 439 c 0,4,5
 487 335 487 335 466 253 c 128,-1,6
 445 171 445 171 414 123 c 128,-1,7
 383 75 383 75 342.5 43.5 c 0,8,9
 273.714285714 -10 273.714285714 -10 202 -10 c 0,10,11
 144.771428571 -10 144.771428571 -10 95 23.5 c 0,12,13
 69 41 69 41 53 75 c 128,-1,14
 37 109 37 109 37 164.5 c 128,-1,15
 37 220 37 220 61 271.5 c 128,-1,16
 85 323 85 323 121.5 351.5 c 0,17,18
 196.421052632 410 196.421052632 410 270.710526316 410 c 128,-1,19
 345 410 345 410 388 355 c 1,20,-1
 390 379 l 2,21,22
 392 411 392 411 392 452 c 0,23,24
 392 554 392 554 352.5 607.5 c 128,-1,25
 313 661 313 661 253.4375 661 c 128,-1,26
 193.875 661 193.875 661 154 632 c 1,27,-1
 130 683 l 1,0,1
377 290 m 1,28,29
 336 340 336 340 272.5 340 c 128,-1,30
 209 340 209 340 167 284 c 128,-1,31
 125 228 125 228 125 162 c 0,32,33
 125 118 125 118 146 87.5 c 128,-1,34
 167 57 167 57 212 57 c 0,35,36
 271 57 271 57 314 123.5 c 128,-1,37
 357 190 357 190 377 290 c 1,28,29
EndSplineSet
EndChar

StartChar: notequal
Encoding: 8800 8800 157
Width: 638
Flags: HMW
HStem: -10 191<193 258 193 193> 119 62<72 239 72 262 326 565 72 304> 312 62<72 310 72 332 72 374 396 565> 312 194<72 444 374 444 380 444 380 565>
LayerCount: 2
Fore
SplineSet
565 119 m 1,0,-1
 304 119 l 1,1,-1
 258 -10 l 1,2,-1
 193 -10 l 1,3,-1
 239 119 l 1,4,-1
 72 119 l 1,5,-1
 72 181 l 1,6,-1
 262 181 l 1,7,-1
 310 312 l 1,8,-1
 72 312 l 1,9,-1
 72 374 l 1,10,-1
 332 374 l 1,11,-1
 380 506 l 1,12,-1
 444 506 l 1,13,-1
 396 374 l 1,14,-1
 565 374 l 1,15,-1
 565 312 l 1,16,-1
 374 312 l 1,17,-1
 326 181 l 1,18,-1
 565 181 l 1,19,-1
 565 119 l 1,0,-1
EndSplineSet
EndChar

StartChar: lozenge
Encoding: 9674 9674 158
Width: 504
Flags: HMW
HStem: -11 21G<232 272 232 232> 712 20G<232 272 272 272>
LayerCount: 2
Fore
SplineSet
252 65 m 1,0,1
 332 225 332 225 402 360 c 1,2,-1
 251 651 l 1,3,4
 200 554 200 554 102 360 c 1,5,6
 202 163 202 163 252 65 c 1,0,1
272 -11 m 1,7,-1
 232 -11 l 1,8,-1
 37 360 l 1,9,-1
 232 732 l 1,10,-1
 272 732 l 1,11,-1
 467 360 l 1,12,-1
 272 -11 l 1,7,-1
EndSplineSet
EndChar

StartChar: approxequal
Encoding: 8776 8776 159
Width: 657
Flags: HMW
HStem: 91 65<397.5 456 397.5 473> 160 65<197 256> 282 65<397.5 456 397.5 473> 351 65<197 256>
LayerCount: 2
Fore
SplineSet
133 290 m 1,0,-1
 83 322 l 1,1,2
 104.435294118 364.870588235 104.435294118 364.870588235 151.5 395.5 c 0,3,4
 183 416 183 416 224 416 c 128,-1,5
 265 416 265 416 332.5 381.5 c 128,-1,6
 400 347 400 347 431.5 347 c 128,-1,7
 463 347 463 347 488 369 c 128,-1,8
 513 391 513 391 520 408 c 1,9,-1
 539 396 l 2,10,11
 567 379 567 379 571 376 c 1,12,13
 550.047058824 334.094117647 550.047058824 334.094117647 501.5 302.5 c 0,14,15
 470 282 470 282 429 282 c 128,-1,16
 388 282 388 282 321 316.5 c 128,-1,17
 254 351 254 351 220 351 c 0,18,19
 174 351 174 351 133 290 c 1,0,-1
133 99 m 1,20,-1
 83 131 l 1,21,22
 104.435294118 173.870588235 104.435294118 173.870588235 151.5 204.5 c 0,23,24
 183 225 183 225 224 225 c 128,-1,25
 265 225 265 225 332.5 190.5 c 128,-1,26
 400 156 400 156 431.5 156 c 128,-1,27
 463 156 463 156 488 178 c 128,-1,28
 513 200 513 200 520 217 c 1,29,-1
 539 205 l 2,30,31
 567 188 567 188 571 185 c 1,32,33
 550.047058824 143.094117647 550.047058824 143.094117647 501.5 111.5 c 0,34,35
 470 91 470 91 429 91 c 128,-1,36
 388 91 388 91 321 125.5 c 128,-1,37
 254 160 254 160 220 160 c 0,38,39
 174 160 174 160 133 99 c 1,20,-1
EndSplineSet
EndChar

StartChar: integral
Encoding: 8747 8747 160
Width: 256
Flags: HMW
HStem: -226 57<-7 27 -7 55> 676 58<234 268>
VStem: 92 83<-56 -36 -36 544 544 563>
LayerCount: 2
Fore
SplineSet
-7 -226 m 1,0,-1
 -7 -169 l 1,1,2
 41 -169 41 -169 66.5 -135 c 128,-1,3
 92 -101 92 -101 92 -56 c 2,4,-1
 92 544 l 2,5,6
 92 734 92 734 268 734 c 1,7,-1
 268 676 l 1,8,9
 221 676 221 676 198 642.5 c 128,-1,10
 175 609 175 609 175 563 c 2,11,-1
 175 -36 l 2,12,13
 175 -226 175 -226 -7 -226 c 1,0,-1
EndSplineSet
EndChar

StartChar: infinity
Encoding: 8734 8734 161
Width: 812
Flags: HMW
HStem: 82 82<204.5 258.5 204.5 269.5 553.5 607.5> 333 81<206 260.5 551.5 606>
VStem: 78 66<222 274 222 296> 668 66<222 274>
LayerCount: 2
Fore
SplineSet
581 82 m 0,0,1
 529 82 529 82 488.5 112.5 c 128,-1,2
 448 143 448 143 406 197 c 1,3,4
 364 143 364 143 323.5 112.5 c 128,-1,5
 283 82 283 82 231 82 c 0,6,7
 162 82 162 82 120 128.5 c 128,-1,8
 78 175 78 175 78 248 c 128,-1,9
 78 321 78 321 119.5 367.5 c 128,-1,10
 161 414 161 414 232 414 c 0,11,12
 283 414 283 414 323 383.5 c 128,-1,13
 363 353 363 353 406 300 c 1,14,15
 449 353 449 353 489 383.5 c 128,-1,16
 529 414 529 414 580 414 c 0,17,18
 651 414 651 414 692.5 367.5 c 128,-1,19
 734 321 734 321 734 248 c 128,-1,20
 734 175 734 175 692 128.5 c 128,-1,21
 650 82 650 82 581 82 c 0,0,1
643.5 310 m 128,-1,23
 619 333 619 333 586 333 c 128,-1,24
 553 333 553 333 527 318.5 c 128,-1,25
 501 304 501 304 485.5 289 c 128,-1,26
 470 274 470 274 448 248 c 1,27,28
 470 223 470 223 486.5 207.5 c 128,-1,29
 503 192 503 192 529 178 c 128,-1,30
 555 164 555 164 588 164 c 128,-1,31
 621 164 621 164 644.5 186.5 c 128,-1,32
 668 209 668 209 668 248 c 128,-1,22
 668 287 668 287 643.5 310 c 128,-1,23
364 248 m 1,33,34
 342 274 342 274 326.5 289 c 128,-1,35
 311 304 311 304 285 318.5 c 128,-1,36
 259 333 259 333 226 333 c 128,-1,37
 193 333 193 333 168.5 310 c 128,-1,38
 144 287 144 287 144 248 c 128,-1,39
 144 209 144 209 167.5 186.5 c 128,-1,40
 191 164 191 164 229.5 164 c 128,-1,41
 268 164 268 164 299 186.5 c 128,-1,42
 330 209 330 209 364 248 c 1,33,34
EndSplineSet
EndChar

StartChar: radical
Encoding: 8730 8730 162
Width: 605
Flags: HMW
HStem: -230 21G<208 291 208 208> 928 20G<575 647 647 647>
LayerCount: 2
Fore
SplineSet
291 -230 m 1,0,-1
 208 -230 l 1,1,-1
 60 213 l 1,2,-1
 -26 183 l 1,3,-1
 -46 245 l 1,4,-1
 117 303 l 1,5,-1
 255 -112 l 1,6,-1
 575 948 l 1,7,-1
 647 948 l 1,8,-1
 291 -230 l 1,0,-1
EndSplineSet
EndChar

StartChar: minus
Encoding: 8722 8722 163
Width: 636
Flags: HMW
HStem: 216 61<72 564 72 564>
LayerCount: 2
Fore
SplineSet
564 216 m 1,0,-1
 72 216 l 1,1,-1
 72 277 l 1,2,-1
 564 277 l 1,3,-1
 564 216 l 1,0,-1
EndSplineSet
EndChar

StartChar: summation
Encoding: 8721 8721 164
Width: 726
Flags: HMW
HStem: -228 101<139 671 139 671 55 671> 654 69<55 661 176 176 176 661>
LayerCount: 2
Fore
SplineSet
345 266 m 1,0,-1
 55 654 l 1,1,-1
 55 723 l 1,2,-1
 661 723 l 1,3,-1
 661 654 l 1,4,-1
 176 654 l 1,5,-1
 451 294 l 1,6,7
 420 252 420 252 354.5 161.5 c 0,8,9
 222.466284075 -20.9282639885 222.466284075 -20.9282639885 139 -127 c 1,10,-1
 671 -127 l 1,11,-1
 671 -228 l 1,12,-1
 55 -228 l 1,13,-1
 55 -130 l 1,14,-1
 345 266 l 1,0,-1
EndSplineSet
EndChar

StartChar: product
Encoding: 8719 8719 165
Width: 833
Flags: HMW
HStem: -228 21G<147 243 147 147 590 686 590 590> 655 69<31 147 31 803 243 590 243 243 686 686 686 803>
VStem: 147 96<-228 655 -228 655> 590 96<-228 655>
LayerCount: 2
Fore
SplineSet
686 -228 m 1,0,-1
 590 -228 l 1,1,-1
 590 655 l 1,2,-1
 243 655 l 1,3,-1
 243 -228 l 1,4,-1
 147 -228 l 1,5,-1
 147 655 l 1,6,-1
 31 655 l 1,7,-1
 31 724 l 1,8,-1
 803 724 l 1,9,-1
 803 655 l 1,10,-1
 686 655 l 1,11,-1
 686 -228 l 1,0,-1
EndSplineSet
EndChar

StartChar: Delta
Encoding: 8710 8710 166
Width: 631
Flags: HMW
HStem: 0 66<64 449 64 550> 703 20G<323 398 398 398>
LayerCount: 2
Fore
SplineSet
550 0 m 1,0,-1
 -22 0 l 1,1,-1
 -15 53 l 1,2,-1
 323 723 l 1,3,-1
 398 723 l 1,4,5
 469 435 469 435 557 53 c 1,6,-1
 550 0 l 1,0,-1
64 66 m 1,7,-1
 449 66 l 1,8,9
 350 486 350 486 347 500 c 0,10,11
 344 514 344 514 338.5 552.5 c 128,-1,12
 333 591 333 591 330 605 c 1,13,-1
 64 66 l 1,7,-1
EndSplineSet
EndChar

StartChar: currency
Encoding: 164 164 167
Width: 536
Flags: HMW
HStem: 114 21G<436 436> 125 61<244 288> 477 61<244 287.5 244 301> 531 20G<96 96 436 436>
VStem: 72 73<310.5 352.5> 388 72<310.5 352.5 310.5 372>
LayerCount: 2
Fore
SplineSet
427 218 m 1,0,-1
 485 162 l 1,1,-1
 436 114 l 1,2,3
 403 144 403 144 382 167 c 1,4,5
 332 125 332 125 266 125 c 128,-1,6
 200 125 200 125 149 167 c 1,7,-1
 96 114 l 1,8,9
 81 129 l 2,10,11
 71 139 71 139 63 147.5 c 128,-1,12
 55 156 55 156 47 163 c 1,13,-1
 103 219 l 1,14,15
 72 271 72 271 72 331.5 c 128,-1,16
 72 392 72 392 104 445 c 1,17,-1
 47 502 l 1,18,19
 72 526 72 526 96 551 c 1,20,-1
 150 496 l 1,21,22
 200 538 200 538 265.5 538 c 128,-1,23
 331 538 331 538 381 497 c 1,24,-1
 436 551 l 1,25,-1
 485 502 l 1,26,-1
 427 445 l 1,27,28
 460 391 460 391 460 331.5 c 128,-1,29
 460 272 460 272 427 218 c 1,0,-1
181 227.5 m 128,-1,31
 217 186 217 186 266.5 186 c 128,-1,32
 316 186 316 186 352 227 c 128,-1,33
 388 268 388 268 388 330.5 c 128,-1,34
 388 393 388 393 353 435 c 128,-1,35
 318 477 318 477 266.5 477 c 128,-1,36
 215 477 215 477 180 434.5 c 128,-1,37
 145 392 145 392 145 330.5 c 128,-1,30
 145 269 145 269 181 227.5 c 128,-1,31
EndSplineSet
EndChar

StartChar: brokenbar
Encoding: 166 166 168
Width: 238
Flags: HMW
HStem: -115 21G<84 152 84 84> 722 20G<84 152 152 152>
VStem: 84 68<-115 233 393 742>
LayerCount: 2
Fore
SplineSet
152 393 m 1,0,-1
 84 393 l 1,1,-1
 84 742 l 1,2,-1
 152 742 l 1,3,-1
 152 393 l 1,0,-1
152 -115 m 1,4,-1
 84 -115 l 1,5,-1
 84 233 l 1,6,-1
 152 233 l 1,7,-1
 152 -115 l 1,4,-1
EndSplineSet
EndChar

StartChar: logicalnot
Encoding: 172 172 169
Width: 638
Flags: HMW
HStem: 89 250<504 565 504 504> 279 60<72 504 72 565>
VStem: 504 61<89 279 279 279>
LayerCount: 2
Fore
SplineSet
565 89 m 1,0,-1
 504 89 l 1,1,-1
 504 279 l 1,2,-1
 72 279 l 1,3,-1
 72 339 l 1,4,-1
 565 339 l 1,5,-1
 565 89 l 1,0,-1
EndSplineSet
EndChar

StartChar: uni00AD
Encoding: 173 173 170
Width: 636
Flags: HMW
HStem: 216 61<72 564 72 564>
LayerCount: 2
Fore
SplineSet
564 216 m 1,0,-1
 72 216 l 1,1,-1
 72 277 l 1,2,-1
 564 277 l 1,3,-1
 564 216 l 1,0,-1
EndSplineSet
EndChar

StartChar: multiply
Encoding: 215 215 171
Width: 534
Flags: HMW
HStem: 50 21G<115 115 419 419> 422 20G<115 115 419 419>
LayerCount: 2
Fore
SplineSet
463 94 m 1,0,-1
 419 50 l 1,1,-1
 267 202 l 1,2,-1
 115 50 l 1,3,-1
 71 94 l 1,4,-1
 224 246 l 1,5,-1
 71 398 l 1,6,-1
 115 442 l 1,7,-1
 267 290 l 1,8,-1
 419 442 l 1,9,-1
 463 398 l 1,10,-1
 310 246 l 1,11,-1
 463 94 l 1,0,-1
EndSplineSet
EndChar

StartChar: pi
Encoding: 960 960 172
Width: 669
Flags: HMW
HStem: -31 21G -12 70<476.5 478> 422 68<297 459 297 297> 492 20G<628 628>
VStem: 369 80<113 168.5>
LayerCount: 2
Fore
SplineSet
537 68 m 1,0,-1
 553 21 l 1,1,2
 512 -12 512 -12 461 -12 c 0,3,4
 369 -12 369 -12 369 118 c 0,5,6
 369 194 369 194 393 274.5 c 128,-1,7
 417 355 417 355 459 422 c 1,8,-1
 297 422 l 1,9,-1
 284 331 l 1,10,11
 260.233870968 151.056451613 260.233870968 151.056451613 215.5 76.5 c 0,12,13
 196 44 196 44 163 13.5 c 128,-1,14
 130 -17 130 -17 87 -31 c 1,15,16
 78 -9 78 -9 69 6 c 1,17,18
 114 30 114 30 142.5 74 c 128,-1,19
 171 118 171 118 178 172 c 2,20,-1
 207 386 l 2,21,22
 208 391 208 391 211.5 403 c 128,-1,23
 215 415 215 415 217 422 c 1,24,25
 181 419 181 419 153.5 398 c 128,-1,26
 126 377 126 377 114 342 c 1,27,28
 84 350 84 350 71 355 c 1,29,30
 82 416 82 416 128.5 453 c 128,-1,31
 175 490 175 490 244 490 c 2,32,-1
 531 490 l 2,33,34
 587 490 587 490 628 512 c 1,35,-1
 646 471 l 1,36,37
 607 427 607 427 530 422 c 1,38,39
 449 245 449 245 449 131 c 0,40,41
 449 58 449 58 495 58 c 0,42,43
 516 58 516 58 537 68 c 1,0,-1
EndSplineSet
EndChar

StartChar: Lslash
Encoding: 321 321 173
Width: 471
Flags: HMW
HStem: 0 69<146 425> 704 20G<134 234 234 234>
LayerCount: 2
Fore
SplineSet
388 417 m 1,0,-1
 180 322 l 1,1,-1
 146 69 l 1,2,-1
 435 69 l 1,3,-1
 425 0 l 1,4,-1
 45 0 l 1,5,-1
 82 278 l 1,6,-1
 4 242 l 1,7,-1
 14 310 l 1,8,-1
 91 345 l 1,9,-1
 134 659 l 1,10,-1
 134 724 l 1,11,-1
 234 724 l 1,12,-1
 189 390 l 1,13,-1
 398 485 l 1,14,-1
 388 417 l 1,0,-1
EndSplineSet
EndChar

StartChar: lslash
Encoding: 322 322 174
Width: 227
Flags: HMW
HStem: 0 21G<39 128 39 39> 744 20G<135 223 223 223>
LayerCount: 2
Fore
SplineSet
241 371 m 1,0,-1
 165 337 l 1,1,-1
 128 58 l 1,2,-1
 128 0 l 1,3,-1
 39 0 l 1,4,-1
 79 298 l 1,5,-1
 2 264 l 1,6,-1
 12 332 l 1,7,-1
 88 366 l 1,8,-1
 135 707 l 1,9,-1
 135 764 l 1,10,-1
 223 764 l 1,11,-1
 174 405 l 1,12,-1
 251 439 l 1,13,-1
 241 371 l 1,0,-1
EndSplineSet
EndChar

StartChar: Eth
Encoding: 208 208 175
Width: 679
Flags: HMW
HStem: 0 69<145 275> 338 64<12 99 22 90 189 328> 655 69<223 369 223 223>
VStem: 545 94<354 487.5>
LayerCount: 2
Fore
SplineSet
12 338 m 1,0,-1
 22 402 l 1,1,-1
 99 402 l 1,2,-1
 134 659 l 1,3,-1
 134 724 l 1,4,-1
 378 724 l 2,5,6
 508 724 508 724 573.5 643.5 c 128,-1,7
 639 563 639 563 639 434 c 0,8,9
 639 263.655172414 639 263.655172414 550.5 136.5 c 0,10,11
 507 74 507 74 436 37 c 128,-1,12
 365 0 365 0 275 0 c 2,13,-1
 45 0 l 1,14,-1
 90 338 l 1,15,-1
 12 338 l 1,0,-1
545 430 m 0,16,17
 545 528 545 528 503.5 591.5 c 128,-1,18
 462 655 462 655 369 655 c 2,19,-1
 223 655 l 1,20,-1
 189 402 l 1,21,-1
 338 402 l 1,22,-1
 328 338 l 1,23,-1
 181 338 l 1,24,-1
 145 69 l 1,25,-1
 281 69 l 2,26,27
 348 69 348 69 400.5 103.5 c 128,-1,28
 453 138 453 138 483.5 193 c 0,29,30
 545 303.901639344 545 303.901639344 545 430 c 0,16,17
EndSplineSet
EndChar

StartChar: eth
Encoding: 240 240 176
Width: 508
Flags: HMW
HStem: -10 60<186.5 277.5 186.5 297.5> 445 60<218 300 212.5 321.5> 752 20G<264 264>
VStem: 37 84<164 233 164 276.5> 386 85<284.5 329.5>
LayerCount: 2
Fore
SplineSet
444 729 m 1,0,-1
 341 673 l 1,1,2
 471 480 471 480 471 302 c 0,3,4
 471 222 471 222 441.5 151.5 c 128,-1,5
 412 81 412 81 353.5 35.5 c 128,-1,6
 295 -10 295 -10 214 -10 c 128,-1,7
 133 -10 133 -10 85 49 c 128,-1,8
 37 108 37 108 37 199 c 0,9,10
 37 320 37 320 108 412.5 c 128,-1,11
 179 505 179 505 288 505 c 0,12,13
 320 505 320 505 351 492 c 1,14,15
 322 571 322 571 279 640 c 1,16,-1
 171 582 l 1,17,-1
 146 622 l 1,18,-1
 254 680 l 1,19,20
 230 714 230 714 207 739 c 1,21,-1
 264 772 l 1,22,23
 302 728 302 728 313 712 c 1,24,-1
 423 771 l 1,25,-1
 444 729 l 1,0,-1
309.5 84 m 0,26,27
 386 157.267605634 386 157.267605634 386 293 c 0,28,29
 386 357 386 357 361.5 401 c 128,-1,30
 337 445 337 445 280 445 c 0,31,32
 237 445 237 445 203.5 416.5 c 128,-1,33
 170 388 170 388 153.5 346.5 c 0,34,35
 121 264.757575758 121 264.757575758 121 200.878787879 c 128,-1,36
 121 137 121 137 146 93.5 c 128,-1,37
 171 50 171 50 222.5 50 c 128,-1,38
 274 50 274 50 309.5 84 c 0,26,27
EndSplineSet
EndChar

StartChar: Thorn
Encoding: 222 222 177
Width: 539
Flags: HMW
HStem: 0 21G<46 137 46 46> 172 67<170 264 160 270> 541 69<221 309 210 317> 541 183<210 236 135 309 210 210>
VStem: 435 94<370 458>
LayerCount: 2
Fore
SplineSet
236 724 m 1,0,-1
 221 610 l 1,1,-1
 317 610 l 2,2,3
 412 610 412 610 470.5 566.5 c 128,-1,4
 529 523 529 523 529 429 c 0,5,6
 529 313 529 313 455.5 242.5 c 128,-1,7
 382 172 382 172 264 172 c 2,8,-1
 160 172 l 1,9,-1
 137 0 l 1,10,-1
 46 0 l 1,11,-1
 135 659 l 1,12,-1
 135 724 l 1,13,-1
 236 724 l 1,0,-1
390 291 m 128,-1,15
 435 343 435 343 435 410.5 c 128,-1,16
 435 478 435 478 402 509.5 c 128,-1,17
 369 541 369 541 309 541 c 2,18,-1
 210 541 l 1,19,-1
 170 239 l 1,20,-1
 270 239 l 2,21,14
 345 239 345 239 390 291 c 128,-1,15
EndSplineSet
EndChar

StartChar: thorn
Encoding: 254 254 178
Width: 518
Flags: HMW
HStem: -223 21G<10 99 10 10> -13 62<210 280 210 301> 441 62<289.5 335.5> 744 20G<136 224 224 224>
VStem: 386 93<259.5 341.5>
LayerCount: 2
Fore
SplineSet
224 764 m 1,0,-1
 179 432 l 1,1,2
 234 503 234 503 316 503 c 128,-1,3
 398 503 398 503 438.5 447.5 c 128,-1,4
 479 392 479 392 479 308 c 0,5,6
 479 186 479 186 406.5 86.5 c 128,-1,7
 334 -13 334 -13 223 -13 c 0,8,9
 196 -13 196 -13 167 -2.5 c 128,-1,10
 138 8 138 8 124 22 c 1,11,-1
 99 -165 l 1,12,-1
 99 -223 l 1,13,-1
 10 -223 l 1,14,-1
 136 707 l 1,15,-1
 136 764 l 1,16,-1
 224 764 l 1,0,-1
369.5 196.5 m 128,-1,18
 386 255 386 255 386 310 c 128,-1,19
 386 365 386 365 367 403 c 128,-1,20
 348 441 348 441 305 441 c 128,-1,21
 262 441 262 441 232 413.5 c 128,-1,22
 202 386 202 386 185 340.5 c 0,23,24
 152.344186047 253.097674419 152.344186047 253.097674419 138.5 128.5 c 2,25,-1
 134 88 l 1,26,27
 149 71 149 71 175 60 c 128,-1,28
 201 49 201 49 226 49 c 0,29,30
 277 49 277 49 315 93.5 c 128,-1,17
 353 138 353 138 369.5 196.5 c 128,-1,18
EndSplineSet
EndChar

StartChar: twosuperior
Encoding: 178 178 179
Width: 457
Flags: HMW
HStem: 434 68<149 344> 870 58<252 276.5>
VStem: 322 79<782.5 825.5>
LayerCount: 2
Fore
SplineSet
344 434 m 1,0,-1
 38 434 l 1,1,-1
 38 472 l 1,2,-1
 84 507.5 l 2,3,4
 158.389360062 565.215882806 158.389360062 565.215882806 214.194680031 625.607941403 c 0,5,6
 322 742.273972603 322 742.273972603 322 807 c 0,7,8
 322 835 322 835 304.5 852.5 c 128,-1,9
 287 870 287 870 251.5 870 c 128,-1,10
 216 870 216 870 168 843 c 1,11,12
 148 833 148 833 129 817 c 1,13,-1
 104 864 l 1,14,15
 126 883 126 883 152 896 c 0,16,17
 214 928 214 928 278 928 c 128,-1,18
 342 928 342 928 371.5 897.5 c 128,-1,19
 401 867 401 867 401 822 c 0,20,21
 401 717 401 717 275 603 c 1,22,23
 218 549 218 549 149 502 c 1,24,-1
 371 502 l 1,25,-1
 344 434 l 1,0,-1
EndSplineSet
EndChar

StartChar: threesuperior
Encoding: 179 179 180
Width: 457
Flags: HMW
HStem: 423 51<43 46> 679 249<191.5 302.5> 870 58<248 268.5>
VStem: 311 66
LayerCount: 2
Fore
SplineSet
190.5 679 m 1,0,-1
 168 677 l 1,1,-1
 166 677 l 1,2,-1
 166 724 l 1,3,4
 221 734 221 734 266 760 c 128,-1,5
 311 786 311 786 311 830 c 0,6,7
 311 870 311 870 250 870 c 0,8,9
 222 870 222 870 186 855 c 128,-1,10
 150 840 150 840 124 820 c 1,11,-1
 99 866 l 1,12,13
 135 893 135 893 184.5 910.5 c 128,-1,14
 234 928 234 928 278 928 c 128,-1,15
 322 928 322 928 354 910.5 c 128,-1,16
 386 893 386 893 386 852 c 0,17,18
 386 772 386 772 281 728 c 1,19,20
 324 723 324 723 350.5 697 c 128,-1,21
 377 671 377 671 377 630 c 0,22,23
 377 577.695652174 377 577.695652174 337 529 c 0,24,25
 288.68597561 470.182926829 288.68597561 470.182926829 183 442 c 0,26,27
 123 426 123 426 46 423 c 1,28,-1
 43 474 l 1,29,30
 164 480 164 480 232 519 c 128,-1,31
 300 558 300 558 300 618.5 c 128,-1,32
 300 679 300 679 201 679 c 2,33,-1
 190.5 679 l 1,0,-1
EndSplineSet
EndChar

StartChar: onesuperior
Encoding: 185 185 181
Width: 457
Flags: HMW
HStem: 434 59<72 190 266 353 64 190> 898 20G<276 323 323 323>
LayerCount: 2
Fore
SplineSet
353 434 m 1,0,-1
 64 434 l 1,1,-1
 72 493 l 1,2,-1
 190 493 l 1,3,-1
 236 838 l 1,4,-1
 116 803 l 1,5,-1
 106 852 l 1,6,7
 180 877 180 877 276 918 c 1,8,-1
 323 918 l 1,9,-1
 266 493 l 1,10,-1
 361 493 l 1,11,-1
 353 434 l 1,0,-1
EndSplineSet
EndChar

StartChar: onequarter
Encoding: 188 188 182
Width: 923
Flags: HMW
HStem: -22 21G<262 320 262 262> 0 169<710 733 596 786 710 710> 110 59<596 725 809 856> 248 59<51 168 244 332 43 168> 712 20G<254 301 301 301> 733 20G<658 718 718 718>
LayerCount: 2
Fore
SplineSet
320 -22 m 1,0,-1
 262 -22 l 1,1,2
 600 638 600 638 658 753 c 1,3,-1
 718 753 l 1,4,-1
 320 -22 l 1,0,-1
332 248 m 1,5,-1
 43 248 l 1,6,-1
 51 307 l 1,7,-1
 168 307 l 1,8,-1
 215 652 l 1,9,-1
 95 617 l 1,10,-1
 85 666 l 1,11,12
 179 698 179 698 254 732 c 1,13,-1
 301 732 l 1,14,-1
 244 307 l 1,15,-1
 339 307 l 1,16,-1
 332 248 l 1,5,-1
786 0 m 1,17,-1
 710 0 l 1,18,-1
 725 110 l 1,19,-1
 512 110 l 1,20,-1
 512 150 l 1,21,-1
 775 483 l 1,22,-1
 851 483 l 1,23,-1
 809 169 l 1,24,-1
 880 169 l 1,25,-1
 856 110 l 1,26,-1
 801 110 l 1,27,-1
 786 0 l 1,17,-1
733 169 m 1,28,-1
 749 289 l 1,29,30
 753.5 320.5 l 2,31,32
 757 345 757 345 759.5 359 c 128,-1,33
 762 373 762 373 766 398 c 1,34,35
 726 333 726 333 596 169 c 1,36,-1
 733 169 l 1,28,-1
EndSplineSet
EndChar

StartChar: onehalf
Encoding: 189 189 183
Width: 979
Flags: HMW
HStem: -22 21G<261 320 261 261> 0 72<689 876> 248 59<50 168 244 331 43 168> 431 63<767.5 807.5> 712 20G<253 301 301 301> 733 20G<657 717 717 717>
VStem: 852 84<321 388>
LayerCount: 2
Fore
SplineSet
331 248 m 1,0,-1
 43 248 l 1,1,-1
 50 307 l 1,2,-1
 168 307 l 1,3,-1
 214 652 l 1,4,-1
 95 617 l 1,5,-1
 84 666 l 1,6,7
 170 695 170 695 253 732 c 1,8,-1
 301 732 l 1,9,-1
 244 307 l 1,10,-1
 339 307 l 1,11,-1
 331 248 l 1,0,-1
320 -22 m 1,12,-1
 261 -22 l 1,13,14
 599 638 599 638 657 753 c 1,15,-1
 717 753 l 1,16,-1
 320 -22 l 1,12,-1
876 0 m 1,17,-1
 569 0 l 1,18,-1
 569 38 l 1,19,-1
 591 54 l 1,20,21
 645 97 645 97 695.5 142.5 c 128,-1,22
 746 188 746 188 799 256.5 c 128,-1,23
 852 325 852 325 852 370 c 0,24,25
 852 398 852 398 835 414.5 c 128,-1,26
 818 431 818 431 784 431 c 128,-1,27
 750 431 750 431 712 412.5 c 128,-1,28
 674 394 674 394 661 381 c 1,29,-1
 636 429 l 1,30,31
 723 494 723 494 812 494 c 0,32,33
 874 494 874 494 905 463.5 c 128,-1,34
 936 433 936 433 936 390.5 c 128,-1,35
 936 348 936 348 913 303 c 128,-1,36
 890 258 890 258 860 223.5 c 128,-1,37
 830 189 830 189 791 153.5 c 0,38,39
 735.578947368 103.052631579 735.578947368 103.052631579 689 72 c 1,40,-1
 903 72 l 1,41,-1
 876 0 l 1,17,-1
EndSplineSet
EndChar

StartChar: threequarters
Encoding: 190 190 184
Width: 920
Flags: HMW
HStem: -22 21G<258 317 258 258> 0 169<707 730 592 783 707 707> 110 59<592 722 806 853> 236 51<43 46> 470 20G<166 166.5> 492 249<191.5 302> 683 58<247 268> 733 20G<654 713 713 713>
VStem: 308 69
LayerCount: 2
Fore
SplineSet
190 492 m 2,0,-1
 168 490 l 1,1,-1
 166 490 l 1,2,-1
 166 537 l 1,3,4
 199 544 199 544 227.5 554.5 c 128,-1,5
 256 565 256 565 282 589 c 128,-1,6
 308 613 308 613 308 643 c 0,7,8
 308 683 308 683 250 683 c 0,9,10
 221 683 221 683 185.5 668 c 128,-1,11
 150 653 150 653 124 633 c 1,12,13
 109 659 109 659 100 679 c 1,14,15
 137 706 137 706 185.5 723.5 c 128,-1,16
 234 741 234 741 277.5 741 c 128,-1,17
 321 741 321 741 354 722.5 c 128,-1,18
 387 704 387 704 387 661 c 128,-1,19
 387 618 387 618 355 588 c 128,-1,20
 323 558 323 558 279 541 c 1,21,22
 323 536 323 536 350 510.5 c 128,-1,23
 377 485 377 485 377 444 c 0,24,25
 377 390.47826087 377 390.47826087 338 343 c 0,26,27
 256.765957447 244.106382979 256.765957447 244.106382979 46 236 c 1,28,-1
 43 287 l 1,29,30
 164 293 164 293 231.5 332 c 128,-1,31
 299 371 299 371 299 431.5 c 128,-1,32
 299 492 299 492 200 492 c 0,33,34
 195 492 195 492 190 492 c 2,0,-1
317 -22 m 1,35,-1
 258 -22 l 1,36,-1
 654 753 l 1,37,-1
 713 753 l 1,38,-1
 317 -22 l 1,35,-1
783 0 m 1,39,-1
 707 0 l 1,40,-1
 722 110 l 1,41,-1
 509 110 l 1,42,-1
 509 150 l 1,43,-1
 771 483 l 1,44,-1
 848 483 l 1,45,-1
 806 169 l 1,46,-1
 877 169 l 1,47,48
 862 135 862 135 853 110 c 1,49,-1
 798 110 l 1,50,-1
 783 0 l 1,39,-1
730 169 m 1,51,-1
 746 289 l 1,52,53
 751 340 751 340 763 398 c 1,54,55
 728 342 728 342 592 169 c 1,56,-1
 730 169 l 1,51,-1
EndSplineSet
EndChar

StartChar: Agrave
Encoding: 192 192 185
Width: 605
Flags: HMW
HStem: 0 21G<-6 75 -6 -6 464 561 464 464> 249 67<221 404 221 417 190 404> 704 20G<332 419 419 419> 890 20G<216 334 334 334>
LayerCount: 2
Fore
SplineSet
561 0 m 1,0,-1
 464 0 l 1,1,-1
 417 249 l 1,2,-1
 190 249 l 1,3,-1
 75 0 l 1,4,-1
 -6 0 l 1,5,-1
 332 724 l 1,6,-1
 419 724 l 1,7,-1
 561 0 l 1,0,-1
404 316 m 1,8,-1
 351 602 l 1,9,-1
 221 316 l 1,10,-1
 404 316 l 1,8,-1
416 763 m 1,11,-1
 343 763 l 1,12,-1
 216 910 l 1,13,-1
 334 910 l 1,14,-1
 416 763 l 1,11,-1
EndSplineSet
EndChar

StartChar: Aacute
Encoding: 193 193 186
Width: 605
Flags: HMW
HStem: 0 21G<-6 75 -6 -6 464 561 464 464> 249 67<221 404 221 417 190 404> 704 20G<332 419 419 419> 891 20G<429 558 558 558>
LayerCount: 2
Fore
SplineSet
561 0 m 1,0,-1
 464 0 l 1,1,-1
 417 249 l 1,2,-1
 190 249 l 1,3,-1
 75 0 l 1,4,-1
 -6 0 l 1,5,-1
 332 724 l 1,6,-1
 419 724 l 1,7,-1
 561 0 l 1,0,-1
404 316 m 1,8,-1
 351 602 l 1,9,-1
 221 316 l 1,10,-1
 404 316 l 1,8,-1
558 911 m 1,11,-1
 403 764 l 1,12,-1
 329 764 l 1,13,-1
 429 911 l 1,14,-1
 558 911 l 1,11,-1
EndSplineSet
EndChar

StartChar: Acircumflex
Encoding: 194 194 187
Width: 605
Flags: HMW
HStem: 0 21G<-6 75 -6 -6 464 561 464 464> 249 67<221 404 221 417 190 404> 704 20G<332 419 419 419> 893 20G<355 434 434 434>
LayerCount: 2
Fore
SplineSet
561 0 m 1,0,-1
 464 0 l 1,1,-1
 417 249 l 1,2,-1
 190 249 l 1,3,-1
 75 0 l 1,4,-1
 -6 0 l 1,5,-1
 332 724 l 1,6,-1
 419 724 l 1,7,-1
 561 0 l 1,0,-1
404 316 m 1,8,-1
 351 602 l 1,9,-1
 221 316 l 1,10,-1
 404 316 l 1,8,-1
514 763 m 1,11,-1
 449 763 l 1,12,-1
 385 842 l 1,13,-1
 302 763 l 1,14,-1
 237 763 l 1,15,-1
 355 913 l 1,16,-1
 434 913 l 1,17,-1
 514 763 l 1,11,-1
EndSplineSet
EndChar

StartChar: Atilde
Encoding: 195 195 188
Width: 605
Flags: HMW
HStem: 0 21G<-6 75 -6 -6 464 561 464 464> 249 67<221 404 221 417 190 404> 704 20G<332 419 419 419> 756 70<433 449.5> 794 32 794 70<308.5 323.5>
LayerCount: 2
Fore
SplineSet
561 0 m 1,0,-1
 464 0 l 1,1,-1
 417 249 l 1,2,-1
 190 249 l 1,3,-1
 75 0 l 1,4,-1
 -6 0 l 1,5,-1
 332 724 l 1,6,-1
 419 724 l 1,7,-1
 561 0 l 1,0,-1
404 316 m 1,8,-1
 351 602 l 1,9,-1
 221 316 l 1,10,-1
 404 316 l 1,8,-1
506 854 m 1,11,-1
 529 829 l 1,12,13
 521 810 521 810 506 792 c 0,14,15
 476 756 476 756 432 756 c 0,16,17
 405 756 405 756 364 775 c 128,-1,18
 323 794 323 794 298.5 794 c 0,19,20
 274 794 274 794 247 767 c 1,21,-1
 222 787 l 1,22,23
 231 809 231 809 246 825 c 0,24,25
 281 864 281 864 328 864 c 0,26,27
 355 864 355 864 395 845 c 128,-1,28
 435 826 435 826 456.5 826 c 0,29,30
 478 826 478 826 506 854 c 1,11,-1
EndSplineSet
EndChar

StartChar: Adieresis
Encoding: 196 196 189
Width: 605
Flags: HMW
HStem: 0 21G<-6 75 -6 -6 464 561 464 464> 249 67<221 404 221 417 190 404> 704 20G<332 419 419 419> 758 114<281.5 312.5 444.5 475.5>
VStem: 240 114<799.5 830.5> 403 114<799.5 830.5>
LayerCount: 2
Fore
SplineSet
561 0 m 1,0,-1
 464 0 l 1,1,-1
 417 249 l 1,2,-1
 190 249 l 1,3,-1
 75 0 l 1,4,-1
 -6 0 l 1,5,-1
 332 724 l 1,6,-1
 419 724 l 1,7,-1
 561 0 l 1,0,-1
404 316 m 1,8,-1
 351 602 l 1,9,-1
 221 316 l 1,10,-1
 404 316 l 1,8,-1
500.5 855.5 m 128,-1,12
 517 839 517 839 517 815.5 c 128,-1,13
 517 792 517 792 500 775 c 128,-1,14
 483 758 483 758 460 758 c 128,-1,15
 437 758 437 758 420 775 c 128,-1,16
 403 792 403 792 403 815 c 128,-1,17
 403 838 403 838 420 855 c 128,-1,18
 437 872 437 872 460.5 872 c 128,-1,11
 484 872 484 872 500.5 855.5 c 128,-1,12
337.5 855.5 m 128,-1,20
 354 839 354 839 354 815.5 c 128,-1,21
 354 792 354 792 337 775 c 128,-1,22
 320 758 320 758 297 758 c 128,-1,23
 274 758 274 758 257 775 c 128,-1,24
 240 792 240 792 240 815 c 128,-1,25
 240 838 240 838 257 855 c 128,-1,26
 274 872 274 872 297.5 872 c 128,-1,19
 321 872 321 872 337.5 855.5 c 128,-1,20
EndSplineSet
EndChar

StartChar: Aring
Encoding: 197 197 190
Width: 605
Flags: HMW
HStem: 0 21G<-6 75 -6 -6 464 561 464 464> 249 67<221 404 221 417 190 404> 704 20G<332 419 419 419> 705 51<366.5 393.5 366.5 408> 852 52<366.5 393.5>
VStem: 281 51<790.5 817.5> 428 52<790.5 817.5>
LayerCount: 2
Fore
SplineSet
561 0 m 1,0,-1
 464 0 l 1,1,-1
 417 249 l 1,2,-1
 190 249 l 1,3,-1
 75 0 l 1,4,-1
 -6 0 l 1,5,-1
 332 724 l 1,6,-1
 419 724 l 1,7,-1
 561 0 l 1,0,-1
404 316 m 1,8,-1
 351 602 l 1,9,-1
 221 316 l 1,10,-1
 404 316 l 1,8,-1
480 804 m 128,-1,12
 480 762 480 762 451 733.5 c 128,-1,13
 422 705 422 705 380 705 c 128,-1,14
 338 705 338 705 309.5 733.5 c 128,-1,15
 281 762 281 762 281 804 c 128,-1,16
 281 846 281 846 310 875 c 128,-1,17
 339 904 339 904 381 904 c 128,-1,18
 423 904 423 904 451.5 875 c 128,-1,11
 480 846 480 846 480 804 c 128,-1,12
428 804 m 128,-1,20
 428 824 428 824 414 838 c 128,-1,21
 400 852 400 852 380 852 c 128,-1,22
 360 852 360 852 346 838 c 128,-1,23
 332 824 332 824 332 804 c 128,-1,24
 332 784 332 784 346 770 c 128,-1,25
 360 756 360 756 380 756 c 128,-1,26
 400 756 400 756 414 770 c 128,-1,19
 428 784 428 784 428 804 c 128,-1,20
EndSplineSet
EndChar

StartChar: Ccedilla
Encoding: 199 199 191
Width: 585
Flags: HMW
HStem: -218 21G<227 227> -10 75<264 359.5> 665 69<319 441>
VStem: 45 97<229.5 373 229.5 407> 292 72<-136.5 -105.5>
LayerCount: 2
Fore
SplineSet
620 657 m 1,0,-1
 564 599 l 1,1,2
 508 665 508 665 413 665 c 0,3,4
 346 665 346 665 292 630 c 128,-1,5
 238 595 238 595 206.5 539 c 0,6,7
 142 424.333333333 142 424.333333333 142 292 c 0,8,9
 142 191 142 191 188.5 128 c 128,-1,10
 235 65 235 65 330.5 65 c 128,-1,11
 426 65 426 65 510 127 c 1,12,-1
 541 59 l 1,13,14
 443 -10 443 -10 316 -10 c 128,-1,15
 189 -10 189 -10 117 76.5 c 128,-1,16
 45 163 45 163 45 298 c 0,17,18
 45 410 45 410 87.5 507.5 c 128,-1,19
 130 605 130 605 218.5 669.5 c 128,-1,20
 307 734 307 734 430.5 734 c 128,-1,21
 554 734 554 734 620 657 c 1,0,-1
306 -46 m 1,22,23
 364 -64 364 -64 364 -115 c 0,24,25
 364 -196.923076923 364 -196.923076923 227 -218 c 1,26,-1
 220 -186 l 1,27,28
 244 -186 244 -186 268 -164 c 128,-1,29
 292 -142 292 -142 292 -119 c 0,30,31
 292 -87 292 -87 245 -71 c 1,32,-1
 291 8 l 1,33,-1
 336 8 l 1,34,-1
 306 -46 l 1,22,23
EndSplineSet
EndChar

StartChar: Egrave
Encoding: 200 200 192
Width: 500
Flags: HMW
HStem: 0 69<143 447> 337 68<189 421 179 431> 655 69<221 534 221 221> 890 20G<197 315 315 315>
LayerCount: 2
Fore
SplineSet
544 724 m 1,0,-1
 534 655 l 1,1,-1
 221 655 l 1,2,-1
 189 405 l 1,3,-1
 431 405 l 1,4,-1
 421 337 l 1,5,-1
 179 337 l 1,6,-1
 143 69 l 1,7,-1
 456 69 l 1,8,-1
 447 0 l 1,9,-1
 45 0 l 1,10,-1
 133 659 l 1,11,-1
 133 724 l 1,12,-1
 544 724 l 1,0,-1
397 763 m 1,13,-1
 324 763 l 1,14,-1
 197 910 l 1,15,-1
 315 910 l 1,16,-1
 397 763 l 1,13,-1
EndSplineSet
EndChar

StartChar: Eacute
Encoding: 201 201 193
Width: 500
Flags: HMW
HStem: 0 69<143 447> 337 68<189 421 179 431> 655 69<221 534 221 221> 891 20G<406 535 535 535>
LayerCount: 2
Fore
SplineSet
544 724 m 1,0,-1
 534 655 l 1,1,-1
 221 655 l 1,2,-1
 189 405 l 1,3,-1
 431 405 l 1,4,-1
 421 337 l 1,5,-1
 179 337 l 1,6,-1
 143 69 l 1,7,-1
 456 69 l 1,8,-1
 447 0 l 1,9,-1
 45 0 l 1,10,-1
 133 659 l 1,11,-1
 133 724 l 1,12,-1
 544 724 l 1,0,-1
535 911 m 1,13,-1
 380 764 l 1,14,-1
 306 764 l 1,15,-1
 406 911 l 1,16,-1
 535 911 l 1,13,-1
EndSplineSet
EndChar

StartChar: Ecircumflex
Encoding: 202 202 194
Width: 500
Flags: HMW
HStem: 0 69<143 447> 337 68<189 421 179 431> 655 69<221 534 221 221> 893 20G<332 411 411 411>
LayerCount: 2
Fore
SplineSet
544 724 m 1,0,-1
 534 655 l 1,1,-1
 221 655 l 1,2,-1
 189 405 l 1,3,-1
 431 405 l 1,4,-1
 421 337 l 1,5,-1
 179 337 l 1,6,-1
 143 69 l 1,7,-1
 456 69 l 1,8,-1
 447 0 l 1,9,-1
 45 0 l 1,10,-1
 133 659 l 1,11,-1
 133 724 l 1,12,-1
 544 724 l 1,0,-1
491 763 m 1,13,-1
 426 763 l 1,14,-1
 362 842 l 1,15,-1
 279 763 l 1,16,-1
 214 763 l 1,17,-1
 332 913 l 1,18,-1
 411 913 l 1,19,-1
 491 763 l 1,13,-1
EndSplineSet
EndChar

StartChar: Edieresis
Encoding: 203 203 195
Width: 500
Flags: HMW
HStem: 0 69<143 447> 337 68<189 421 179 431> 655 69<221 534 221 221> 758 114<257.5 288.5 420.5 451.5>
VStem: 216 114<799.5 830.5> 379 114<799.5 830.5>
LayerCount: 2
Fore
SplineSet
544 724 m 1,0,-1
 534 655 l 1,1,-1
 221 655 l 1,2,-1
 189 405 l 1,3,-1
 431 405 l 1,4,-1
 421 337 l 1,5,-1
 179 337 l 1,6,-1
 143 69 l 1,7,-1
 456 69 l 1,8,-1
 447 0 l 1,9,-1
 45 0 l 1,10,-1
 133 659 l 1,11,-1
 133 724 l 1,12,-1
 544 724 l 1,0,-1
476.5 855.5 m 128,-1,14
 493 839 493 839 493 815.5 c 128,-1,15
 493 792 493 792 476 775 c 128,-1,16
 459 758 459 758 436 758 c 128,-1,17
 413 758 413 758 396 775 c 128,-1,18
 379 792 379 792 379 815 c 128,-1,19
 379 838 379 838 396 855 c 128,-1,20
 413 872 413 872 436.5 872 c 128,-1,13
 460 872 460 872 476.5 855.5 c 128,-1,14
313.5 855.5 m 128,-1,22
 330 839 330 839 330 815.5 c 128,-1,23
 330 792 330 792 313 775 c 128,-1,24
 296 758 296 758 273 758 c 128,-1,25
 250 758 250 758 233 775 c 128,-1,26
 216 792 216 792 216 815 c 128,-1,27
 216 838 216 838 233 855 c 128,-1,28
 250 872 250 872 273.5 872 c 128,-1,21
 297 872 297 872 313.5 855.5 c 128,-1,22
EndSplineSet
EndChar

StartChar: Igrave
Encoding: 204 204 196
Width: 251
Flags: HMW
HStem: 0 21G<47 137 47 47> 704 20G<136 235 235 235> 891 20G<36 154 154 154>
LayerCount: 2
Fore
SplineSet
235 724 m 1,0,-1
 137 0 l 1,1,-1
 47 0 l 1,2,-1
 136 659 l 1,3,-1
 136 724 l 1,4,-1
 235 724 l 1,0,-1
236 764 m 1,5,-1
 163 764 l 1,6,-1
 36 911 l 1,7,-1
 154 911 l 1,8,-1
 236 764 l 1,5,-1
EndSplineSet
EndChar

StartChar: Iacute
Encoding: 205 205 197
Width: 251
Flags: HMW
HStem: 0 21G<47 137 47 47> 704 20G<136 235 235 235> 891 20G<239 368 368 368>
LayerCount: 2
Fore
SplineSet
235 724 m 1,0,-1
 137 0 l 1,1,-1
 47 0 l 1,2,-1
 136 659 l 1,3,-1
 136 724 l 1,4,-1
 235 724 l 1,0,-1
368 911 m 1,5,-1
 213 764 l 1,6,-1
 139 764 l 1,7,-1
 239 911 l 1,8,-1
 368 911 l 1,5,-1
EndSplineSet
EndChar

StartChar: Icircumflex
Encoding: 206 206 198
Width: 251
Flags: HMW
HStem: 0 21G<47 137 47 47> 704 20G<136 235 235 235> 893 20G<168 247 247 247>
LayerCount: 2
Fore
SplineSet
235 724 m 1,0,-1
 137 0 l 1,1,-1
 47 0 l 1,2,-1
 136 659 l 1,3,-1
 136 724 l 1,4,-1
 235 724 l 1,0,-1
327 763 m 1,5,-1
 262 763 l 1,6,-1
 198 842 l 1,7,-1
 115 763 l 1,8,-1
 50 763 l 1,9,-1
 168 913 l 1,10,-1
 247 913 l 1,11,-1
 327 763 l 1,5,-1
EndSplineSet
EndChar

StartChar: Idieresis
Encoding: 207 207 199
Width: 251
Flags: HMW
HStem: 0 21G<47 137 47 47> 704 20G<136 235 235 235> 759 114<93.5 124.5 256.5 287.5>
VStem: 52 114<800.5 831.5> 215 114<800.5 831.5>
LayerCount: 2
Fore
SplineSet
235 724 m 1,0,-1
 137 0 l 1,1,-1
 47 0 l 1,2,-1
 136 659 l 1,3,-1
 136 724 l 1,4,-1
 235 724 l 1,0,-1
312.5 856.5 m 128,-1,6
 329 840 329 840 329 816.5 c 128,-1,7
 329 793 329 793 312 776 c 128,-1,8
 295 759 295 759 272 759 c 128,-1,9
 249 759 249 759 232 776 c 128,-1,10
 215 793 215 793 215 816 c 128,-1,11
 215 839 215 839 232 856 c 128,-1,12
 249 873 249 873 272.5 873 c 128,-1,5
 296 873 296 873 312.5 856.5 c 128,-1,6
149.5 856.5 m 128,-1,14
 166 840 166 840 166 816.5 c 128,-1,15
 166 793 166 793 149 776 c 128,-1,16
 132 759 132 759 109 759 c 128,-1,17
 86 759 86 759 69 776 c 128,-1,18
 52 793 52 793 52 816 c 128,-1,19
 52 839 52 839 69 856 c 128,-1,20
 86 873 86 873 109.5 873 c 128,-1,13
 133 873 133 873 149.5 856.5 c 128,-1,14
EndSplineSet
EndChar

StartChar: Ntilde
Encoding: 209 209 200
Width: 674
Flags: HMW
HStem: -5 21G<502 559 502 502> 0 21G<45 119 45 45> 704 20G<134 248 248 248 584 657 657 657> 757 70<472 488.5> 795 32 795 70<347.5 362.5>
LayerCount: 2
Fore
SplineSet
657 724 m 1,0,-1
 559 -5 l 1,1,-1
 502 -5 l 1,2,-1
 201 612 l 1,3,-1
 119 0 l 1,4,-1
 45 0 l 1,5,-1
 134 659 l 1,6,-1
 134 724 l 1,7,-1
 248 724 l 1,8,-1
 510 183 l 1,9,-1
 584 724 l 1,10,-1
 657 724 l 1,0,-1
545 855 m 1,11,-1
 568 830 l 1,12,13
 560 811 560 811 545 793 c 0,14,15
 515 757 515 757 471 757 c 0,16,17
 444 757 444 757 403 776 c 128,-1,18
 362 795 362 795 337.5 795 c 0,19,20
 313 795 313 795 286 768 c 1,21,-1
 261 788 l 1,22,23
 270 810 270 810 285 826 c 0,24,25
 320 865 320 865 367 865 c 0,26,27
 394 865 394 865 434 846 c 128,-1,28
 474 827 474 827 495.5 827 c 0,29,30
 517 827 517 827 545 855 c 1,11,-1
EndSplineSet
EndChar

StartChar: Ograve
Encoding: 210 210 201
Width: 708
Flags: HMW
HStem: -10 69<249 410.5 249 425> 665 69<304.5 465> 665 245<304.5 382 264 465>
VStem: 45 95<233 370 233 395.5> 574 94<354 492>
LayerCount: 2
Fore
SplineSet
668 438 m 0,0,1
 668 264.897727273 668 264.897727273 577 131.5 c 0,2,3
 533 67 533 67 462 28.5 c 128,-1,4
 391 -10 391 -10 304 -10 c 0,5,6
 175 -10 175 -10 110 74 c 128,-1,7
 45 158 45 158 45 289 c 0,8,9
 45 458.793103448 45 458.793103448 134.5 591.5 c 0,10,11
 178 656 178 656 248.5 695 c 128,-1,12
 319 734 319 734 407 734 c 0,13,14
 538 734 538 734 603 652 c 128,-1,15
 668 570 668 570 668 438 c 0,0,1
574 433 m 0,16,17
 574 533 574 533 532.5 599 c 128,-1,18
 491 665 491 665 398 665 c 0,19,20
 344 665 344 665 299.5 641 c 128,-1,21
 255 617 255 617 226 579 c 128,-1,22
 197 541 197 541 177 491 c 0,23,24
 140 398.5 140 398.5 140 291 c 0,25,26
 140 197.384615385 140 197.384615385 177.5 132 c 0,27,28
 219.367647059 59 219.367647059 59 317 59 c 0,29,30
 384 59 384 59 435.5 94.5 c 128,-1,31
 487 130 487 130 516 187.5 c 0,32,33
 574 302.5 574 302.5 574 433 c 0,16,17
464 763 m 1,34,-1
 391 763 l 1,35,-1
 264 910 l 1,36,-1
 382 910 l 1,37,-1
 464 763 l 1,34,-1
EndSplineSet
EndChar

StartChar: Oacute
Encoding: 211 211 202
Width: 708
Flags: HMW
HStem: -10 69<249 410.5 249 425> 665 69<304.5 465> 665 245<304.5 604>
VStem: 45 95<233 370 233 395.5> 574 94<354 492>
LayerCount: 2
Fore
SplineSet
668 438 m 0,0,1
 668 264.897727273 668 264.897727273 577 131.5 c 0,2,3
 533 67 533 67 462 28.5 c 128,-1,4
 391 -10 391 -10 304 -10 c 0,5,6
 175 -10 175 -10 110 74 c 128,-1,7
 45 158 45 158 45 289 c 0,8,9
 45 458.793103448 45 458.793103448 134.5 591.5 c 0,10,11
 178 656 178 656 248.5 695 c 128,-1,12
 319 734 319 734 407 734 c 0,13,14
 538 734 538 734 603 652 c 128,-1,15
 668 570 668 570 668 438 c 0,0,1
574 433 m 0,16,17
 574 533 574 533 532.5 599 c 128,-1,18
 491 665 491 665 398 665 c 0,19,20
 344 665 344 665 299.5 641 c 128,-1,21
 255 617 255 617 226 579 c 128,-1,22
 197 541 197 541 177 491 c 0,23,24
 140 398.5 140 398.5 140 291 c 0,25,26
 140 197.384615385 140 197.384615385 177.5 132 c 0,27,28
 219.367647059 59 219.367647059 59 317 59 c 0,29,30
 384 59 384 59 435.5 94.5 c 128,-1,31
 487 130 487 130 516 187.5 c 0,32,33
 574 302.5 574 302.5 574 433 c 0,16,17
604 910 m 1,34,-1
 449 763 l 1,35,-1
 375 763 l 1,36,-1
 475 910 l 1,37,-1
 604 910 l 1,34,-1
EndSplineSet
EndChar

StartChar: Ocircumflex
Encoding: 212 212 203
Width: 708
Flags: HMW
HStem: -10 69<249 410.5 249 425> 665 69<304.5 465> 665 248<400 465>
VStem: 45 95<233 370 233 395.5> 574 94<354 492>
LayerCount: 2
Fore
SplineSet
668 438 m 0,0,1
 668 264.897727273 668 264.897727273 577 131.5 c 0,2,3
 533 67 533 67 462 28.5 c 128,-1,4
 391 -10 391 -10 304 -10 c 0,5,6
 175 -10 175 -10 110 74 c 128,-1,7
 45 158 45 158 45 289 c 0,8,9
 45 458.793103448 45 458.793103448 134.5 591.5 c 0,10,11
 178 656 178 656 248.5 695 c 128,-1,12
 319 734 319 734 407 734 c 0,13,14
 538 734 538 734 603 652 c 128,-1,15
 668 570 668 570 668 438 c 0,0,1
574 433 m 0,16,17
 574 533 574 533 532.5 599 c 128,-1,18
 491 665 491 665 398 665 c 0,19,20
 344 665 344 665 299.5 641 c 128,-1,21
 255 617 255 617 226 579 c 128,-1,22
 197 541 197 541 177 491 c 0,23,24
 140 398.5 140 398.5 140 291 c 0,25,26
 140 197.384615385 140 197.384615385 177.5 132 c 0,27,28
 219.367647059 59 219.367647059 59 317 59 c 0,29,30
 384 59 384 59 435.5 94.5 c 128,-1,31
 487 130 487 130 516 187.5 c 0,32,33
 574 302.5 574 302.5 574 433 c 0,16,17
559 763 m 1,34,-1
 494 763 l 1,35,-1
 430 842 l 1,36,-1
 347 763 l 1,37,-1
 282 763 l 1,38,-1
 400 913 l 1,39,-1
 479 913 l 1,40,-1
 559 763 l 1,34,-1
EndSplineSet
EndChar

StartChar: Otilde
Encoding: 213 213 204
Width: 708
Flags: HMW
HStem: -10 69<249 410.5 249 425> 665 69<304.5 465> 758 70<479 495.5> 796 32 796 70<354.5 369.5>
VStem: 45 95<233 370 233 395.5> 574 94<354 492>
LayerCount: 2
Fore
SplineSet
668 438 m 0,0,1
 668 264.897727273 668 264.897727273 577 131.5 c 0,2,3
 533 67 533 67 462 28.5 c 128,-1,4
 391 -10 391 -10 304 -10 c 0,5,6
 175 -10 175 -10 110 74 c 128,-1,7
 45 158 45 158 45 289 c 0,8,9
 45 458.793103448 45 458.793103448 134.5 591.5 c 0,10,11
 178 656 178 656 248.5 695 c 128,-1,12
 319 734 319 734 407 734 c 0,13,14
 538 734 538 734 603 652 c 128,-1,15
 668 570 668 570 668 438 c 0,0,1
574 433 m 0,16,17
 574 533 574 533 532.5 599 c 128,-1,18
 491 665 491 665 398 665 c 0,19,20
 344 665 344 665 299.5 641 c 128,-1,21
 255 617 255 617 226 579 c 128,-1,22
 197 541 197 541 177 491 c 0,23,24
 140 398.5 140 398.5 140 291 c 0,25,26
 140 197.384615385 140 197.384615385 177.5 132 c 0,27,28
 219.367647059 59 219.367647059 59 317 59 c 0,29,30
 384 59 384 59 435.5 94.5 c 128,-1,31
 487 130 487 130 516 187.5 c 0,32,33
 574 302.5 574 302.5 574 433 c 0,16,17
552 856 m 1,34,-1
 575 831 l 1,35,36
 567 812 567 812 552 794 c 0,37,38
 522 758 522 758 478 758 c 0,39,40
 451 758 451 758 410 777 c 128,-1,41
 369 796 369 796 344.5 796 c 128,-1,42
 320 796 320 796 293 769 c 1,43,-1
 268 789 l 1,44,45
 277 811 277 811 292 827 c 0,46,47
 327 866 327 866 374 866 c 0,48,49
 401 866 401 866 441 847 c 128,-1,50
 481 828 481 828 502.5 828 c 128,-1,51
 524 828 524 828 552 856 c 1,34,-1
EndSplineSet
EndChar

StartChar: Odieresis
Encoding: 214 214 205
Width: 708
Flags: HMW
HStem: -10 69<249 410.5 249 425> 665 69<304.5 465> 759 114<316.5 347.5 479.5 510.5>
VStem: 45 95<233 370 233 395.5> 275 114<800.5 831.5> 438 114<800.5 831.5> 574 94<354 492>
LayerCount: 2
Fore
SplineSet
668 438 m 0,0,1
 668 264.897727273 668 264.897727273 577 131.5 c 0,2,3
 533 67 533 67 462 28.5 c 128,-1,4
 391 -10 391 -10 304 -10 c 0,5,6
 175 -10 175 -10 110 74 c 128,-1,7
 45 158 45 158 45 289 c 0,8,9
 45 458.793103448 45 458.793103448 134.5 591.5 c 0,10,11
 178 656 178 656 248.5 695 c 128,-1,12
 319 734 319 734 407 734 c 0,13,14
 538 734 538 734 603 652 c 128,-1,15
 668 570 668 570 668 438 c 0,0,1
574 433 m 0,16,17
 574 533 574 533 532.5 599 c 128,-1,18
 491 665 491 665 398 665 c 0,19,20
 344 665 344 665 299.5 641 c 128,-1,21
 255 617 255 617 226 579 c 128,-1,22
 197 541 197 541 177 491 c 0,23,24
 140 398.5 140 398.5 140 291 c 0,25,26
 140 197.384615385 140 197.384615385 177.5 132 c 0,27,28
 219.367647059 59 219.367647059 59 317 59 c 0,29,30
 384 59 384 59 435.5 94.5 c 128,-1,31
 487 130 487 130 516 187.5 c 0,32,33
 574 302.5 574 302.5 574 433 c 0,16,17
535.5 856.5 m 128,-1,35
 552 840 552 840 552 816.5 c 128,-1,36
 552 793 552 793 535 776 c 128,-1,37
 518 759 518 759 495 759 c 128,-1,38
 472 759 472 759 455 776 c 128,-1,39
 438 793 438 793 438 816 c 128,-1,40
 438 839 438 839 455 856 c 128,-1,41
 472 873 472 873 495.5 873 c 128,-1,34
 519 873 519 873 535.5 856.5 c 128,-1,35
372.5 856.5 m 128,-1,43
 389 840 389 840 389 816.5 c 128,-1,44
 389 793 389 793 372 776 c 128,-1,45
 355 759 355 759 332 759 c 128,-1,46
 309 759 309 759 292 776 c 128,-1,47
 275 793 275 793 275 816 c 128,-1,48
 275 839 275 839 292 856 c 128,-1,49
 309 873 309 873 332.5 873 c 128,-1,42
 356 873 356 873 372.5 856.5 c 128,-1,43
EndSplineSet
EndChar

StartChar: Ugrave
Encoding: 217 217 206
Width: 638
Flags: HMW
HStem: -10 69<228 342 228 363> 704 20G<106 206 206 206 549 623 623 623> 890 20G<229 347 347 347>
VStem: 46 92<160 200>
LayerCount: 2
Fore
SplineSet
623 724 m 1,0,-1
 559 257 l 2,1,2
 542 136 542 136 472 63 c 128,-1,3
 402 -10 402 -10 277 -10 c 0,4,5
 152 -10 152 -10 99 45.5 c 128,-1,6
 46 101 46 101 46 192 c 0,7,8
 46 219 46 219 50 244 c 2,9,-1
 106 660 l 1,10,-1
 106 724 l 1,11,-1
 206 724 l 1,12,-1
 141 243 l 2,13,14
 138 219 138 219 138 200 c 0,15,16
 138 135 138 135 172 97 c 128,-1,17
 206 59 206 59 288 59 c 0,18,19
 370 59 370 59 422 112 c 128,-1,20
 474 165 474 165 486 258 c 2,21,-1
 549 724 l 1,22,-1
 623 724 l 1,0,-1
429 763 m 1,23,-1
 356 763 l 1,24,-1
 229 910 l 1,25,-1
 347 910 l 1,26,-1
 429 763 l 1,23,-1
EndSplineSet
EndChar

StartChar: Uacute
Encoding: 218 218 207
Width: 638
Flags: HMW
HStem: -10 69<228 342 228 363> 704 20G<106 206 206 206 549 623 623 623> 890 20G<448 577 577 577>
VStem: 46 92<160 200>
LayerCount: 2
Fore
SplineSet
623 724 m 1,0,-1
 559 257 l 2,1,2
 542 136 542 136 472 63 c 128,-1,3
 402 -10 402 -10 277 -10 c 0,4,5
 152 -10 152 -10 99 45.5 c 128,-1,6
 46 101 46 101 46 192 c 0,7,8
 46 219 46 219 50 244 c 2,9,-1
 106 660 l 1,10,-1
 106 724 l 1,11,-1
 206 724 l 1,12,-1
 141 243 l 2,13,14
 138 219 138 219 138 200 c 0,15,16
 138 135 138 135 172 97 c 128,-1,17
 206 59 206 59 288 59 c 0,18,19
 370 59 370 59 422 112 c 128,-1,20
 474 165 474 165 486 258 c 2,21,-1
 549 724 l 1,22,-1
 623 724 l 1,0,-1
577 910 m 1,23,-1
 422 763 l 1,24,-1
 348 763 l 1,25,-1
 448 910 l 1,26,-1
 577 910 l 1,23,-1
EndSplineSet
EndChar

StartChar: Ucircumflex
Encoding: 219 219 208
Width: 638
Flags: HMW
HStem: -10 69<228 342 228 363> 704 20G<106 206 206 206 549 623 623 623> 893 20G<360 439 439 439>
VStem: 46 92<160 200>
LayerCount: 2
Fore
SplineSet
623 724 m 1,0,-1
 559 257 l 2,1,2
 542 136 542 136 472 63 c 128,-1,3
 402 -10 402 -10 277 -10 c 0,4,5
 152 -10 152 -10 99 45.5 c 128,-1,6
 46 101 46 101 46 192 c 0,7,8
 46 219 46 219 50 244 c 2,9,-1
 106 660 l 1,10,-1
 106 724 l 1,11,-1
 206 724 l 1,12,-1
 141 243 l 2,13,14
 138 219 138 219 138 200 c 0,15,16
 138 135 138 135 172 97 c 128,-1,17
 206 59 206 59 288 59 c 0,18,19
 370 59 370 59 422 112 c 128,-1,20
 474 165 474 165 486 258 c 2,21,-1
 549 724 l 1,22,-1
 623 724 l 1,0,-1
519 763 m 1,23,-1
 454 763 l 1,24,-1
 390 842 l 1,25,-1
 307 763 l 1,26,-1
 242 763 l 1,27,-1
 360 913 l 1,28,-1
 439 913 l 1,29,-1
 519 763 l 1,23,-1
EndSplineSet
EndChar

StartChar: Udieresis
Encoding: 220 220 209
Width: 638
Flags: HMW
HStem: -10 69<228 342 228 363> 704 20G<106 206 206 206 549 623 623 623> 759 114<285.5 316.5 448.5 479.5>
VStem: 46 92<160 200> 244 114<800.5 831.5> 407 114<800.5 831.5>
LayerCount: 2
Fore
SplineSet
623 724 m 1,0,-1
 559 257 l 2,1,2
 542 136 542 136 472 63 c 128,-1,3
 402 -10 402 -10 277 -10 c 128,-1,4
 152 -10 152 -10 99 45.5 c 128,-1,5
 46 101 46 101 46 192 c 0,6,7
 46 219 46 219 50 244 c 2,8,-1
 106 660 l 1,9,-1
 106 724 l 1,10,-1
 206 724 l 1,11,-1
 141 243 l 2,12,13
 138 219 138 219 138 200 c 0,14,15
 138 135 138 135 172 97 c 128,-1,16
 206 59 206 59 288 59 c 128,-1,17
 370 59 370 59 422 112 c 128,-1,18
 474 165 474 165 486 258 c 2,19,-1
 549 724 l 1,20,-1
 623 724 l 1,0,-1
504.5 856.5 m 128,-1,22
 521 840 521 840 521 816.5 c 128,-1,23
 521 793 521 793 504 776 c 128,-1,24
 487 759 487 759 464 759 c 128,-1,25
 441 759 441 759 424 776 c 128,-1,26
 407 793 407 793 407 816 c 128,-1,27
 407 839 407 839 424 856 c 128,-1,28
 441 873 441 873 464.5 873 c 128,-1,21
 488 873 488 873 504.5 856.5 c 128,-1,22
341.5 856.5 m 128,-1,30
 358 840 358 840 358 816.5 c 128,-1,31
 358 793 358 793 341 776 c 128,-1,32
 324 759 324 759 301 759 c 128,-1,33
 278 759 278 759 261 776 c 128,-1,34
 244 793 244 793 244 816 c 128,-1,35
 244 839 244 839 261 856 c 128,-1,36
 278 873 278 873 301.5 873 c 128,-1,29
 325 873 325 873 341.5 856.5 c 128,-1,30
EndSplineSet
EndChar

StartChar: Yacute
Encoding: 221 221 210
Width: 477
Flags: HMW
HStem: 0 21G<151 242 151 151> 704 20G<42 145 145 145 454 538 538 538> 890 20G<363 492 492 492>
LayerCount: 2
Fore
SplineSet
538 724 m 1,0,-1
 290 358 l 1,1,-1
 242 0 l 1,2,-1
 151 0 l 1,3,-1
 199 359 l 1,4,-1
 42 724 l 1,5,-1
 145 724 l 1,6,-1
 267 444 l 1,7,-1
 454 724 l 1,8,-1
 538 724 l 1,0,-1
492 910 m 1,9,-1
 337 763 l 1,10,-1
 263 763 l 1,11,-1
 363 910 l 1,12,-1
 492 910 l 1,9,-1
EndSplineSet
EndChar

StartChar: dotlessi
Encoding: 305 305 211
Width: 227
Flags: HMW
HStem: 0 21G<40 128 40 40> 470 20G<98 186 186 186>
LayerCount: 2
Fore
SplineSet
186 490 m 1,0,-1
 128 58 l 1,1,-1
 128 0 l 1,2,-1
 40 0 l 1,3,-1
 98 433 l 1,4,-1
 98 490 l 1,5,-1
 186 490 l 1,0,-1
EndSplineSet
EndChar

StartChar: agrave
Encoding: 224 224 212
Width: 526
Flags: HMW
HStem: -13 62<178 224> 441 62<243 318.5> 475 20G<430 474 474 474> 704 20G<163 281 281 281>
VStem: 37 93<147.5 223 147.5 250> 346 70<74 97.5>
LayerCount: 2
Fore
SplineSet
489 62 m 1,0,-1
 500 12 l 1,1,2
 456 -11 456 -11 423 -11 c 128,-1,3
 390 -11 390 -11 368.5 13 c 128,-1,4
 347 37 347 37 346 74 c 1,5,-1
 342 74 l 1,6,7
 286 -13 286 -13 194 -13 c 0,8,9
 117 -13 117 -13 77 40.5 c 128,-1,10
 37 94 37 94 37 173 c 128,-1,11
 37 252 37 252 68.5 325.5 c 128,-1,12
 100 399 100 399 162 451 c 128,-1,13
 224 503 224 503 298.5 503 c 128,-1,14
 373 503 373 503 409 456 c 1,15,-1
 430 495 l 1,16,-1
 474 495 l 1,17,-1
 418 115 l 2,18,19
 416 101 416 101 416 94 c 0,20,21
 416 54 416 54 449 54 c 0,22,23
 465 54 465 54 489 62 c 1,0,-1
368 307 m 2,24,-1
 382 403 l 1,25,26
 349 441 349 441 298 441 c 128,-1,27
 247 441 247 441 205.5 393.5 c 128,-1,28
 164 346 164 346 147 287 c 128,-1,29
 130 228 130 228 130 176 c 128,-1,30
 130 124 130 124 148.5 86.5 c 128,-1,31
 167 49 167 49 210.5 49 c 128,-1,32
 254 49 254 49 287.5 87.5 c 0,33,34
 346.660647103 155.490594432 346.660647103 155.490594432 368 307 c 2,24,-1
363 577 m 1,35,-1
 290 577 l 1,36,-1
 163 724 l 1,37,-1
 281 724 l 1,38,-1
 363 577 l 1,35,-1
EndSplineSet
EndChar

StartChar: aacute
Encoding: 225 225 213
Width: 526
Flags: HMW
HStem: -13 62<178 224> 441 62<243 318.5> 475 20G<430 474 474 474> 704 20G<372 501 501 501>
VStem: 37 93<147.5 223 147.5 250> 346 70<74 97.5>
LayerCount: 2
Fore
SplineSet
489 62 m 1,0,-1
 500 12 l 1,1,2
 456 -11 456 -11 423 -11 c 128,-1,3
 390 -11 390 -11 368.5 13 c 128,-1,4
 347 37 347 37 346 74 c 1,5,-1
 342 74 l 1,6,7
 286 -13 286 -13 194 -13 c 0,8,9
 117 -13 117 -13 77 40.5 c 128,-1,10
 37 94 37 94 37 173 c 128,-1,11
 37 252 37 252 68.5 325.5 c 128,-1,12
 100 399 100 399 162 451 c 128,-1,13
 224 503 224 503 298.5 503 c 128,-1,14
 373 503 373 503 409 456 c 1,15,-1
 430 495 l 1,16,-1
 474 495 l 1,17,-1
 418 115 l 2,18,19
 416 101 416 101 416 94 c 0,20,21
 416 54 416 54 449 54 c 0,22,23
 465 54 465 54 489 62 c 1,0,-1
368 307 m 2,24,-1
 382 403 l 1,25,26
 349 441 349 441 298 441 c 128,-1,27
 247 441 247 441 205.5 393.5 c 128,-1,28
 164 346 164 346 147 287 c 128,-1,29
 130 228 130 228 130 176 c 128,-1,30
 130 124 130 124 148.5 86.5 c 128,-1,31
 167 49 167 49 210.5 49 c 128,-1,32
 254 49 254 49 287.5 87.5 c 0,33,34
 346.660647103 155.490594432 346.660647103 155.490594432 368 307 c 2,24,-1
501 724 m 1,35,-1
 346 577 l 1,36,-1
 272 577 l 1,37,-1
 372 724 l 1,38,-1
 501 724 l 1,35,-1
EndSplineSet
EndChar

StartChar: acircumflex
Encoding: 226 226 214
Width: 526
Flags: HMW
HStem: -13 62<178 224> 441 62<243 318.5> 475 20G<430 474 474 474> 704 20G<299 378 378 378>
VStem: 37 93<147.5 223 147.5 250> 346 70<74 97.5>
LayerCount: 2
Fore
SplineSet
489 62 m 1,0,-1
 500 12 l 1,1,2
 456 -11 456 -11 423 -11 c 128,-1,3
 390 -11 390 -11 368.5 13 c 128,-1,4
 347 37 347 37 346 74 c 1,5,-1
 342 74 l 1,6,7
 286 -13 286 -13 194 -13 c 0,8,9
 117 -13 117 -13 77 40.5 c 128,-1,10
 37 94 37 94 37 173 c 128,-1,11
 37 252 37 252 68.5 325.5 c 128,-1,12
 100 399 100 399 162 451 c 128,-1,13
 224 503 224 503 298.5 503 c 128,-1,14
 373 503 373 503 409 456 c 1,15,-1
 430 495 l 1,16,-1
 474 495 l 1,17,-1
 418 115 l 2,18,19
 416 101 416 101 416 94 c 0,20,21
 416 54 416 54 449 54 c 0,22,23
 465 54 465 54 489 62 c 1,0,-1
368 307 m 2,24,-1
 382 403 l 1,25,26
 349 441 349 441 298 441 c 128,-1,27
 247 441 247 441 205.5 393.5 c 128,-1,28
 164 346 164 346 147 287 c 128,-1,29
 130 228 130 228 130 176 c 128,-1,30
 130 124 130 124 148.5 86.5 c 128,-1,31
 167 49 167 49 210.5 49 c 128,-1,32
 254 49 254 49 287.5 87.5 c 0,33,34
 346.660647103 155.490594432 346.660647103 155.490594432 368 307 c 2,24,-1
458 574 m 1,35,-1
 393 574 l 1,36,-1
 329 653 l 1,37,-1
 246 574 l 1,38,-1
 181 574 l 1,39,-1
 299 724 l 1,40,-1
 378 724 l 1,41,-1
 458 574 l 1,35,-1
EndSplineSet
EndChar

StartChar: atilde
Encoding: 227 227 215
Width: 526
Flags: HMW
HStem: -13 62<178 224> 441 62<243 318.5> 475 20G<430 474 474 474> 615 70<377 393.5> 653 32 653 70<252.5 267.5>
VStem: 37 93<147.5 223 147.5 250> 346 70<74 97.5>
LayerCount: 2
Fore
SplineSet
489 62 m 1,0,-1
 500 12 l 1,1,2
 456 -11 456 -11 423 -11 c 128,-1,3
 390 -11 390 -11 368.5 13 c 128,-1,4
 347 37 347 37 346 74 c 1,5,-1
 342 74 l 1,6,7
 286 -13 286 -13 194 -13 c 0,8,9
 117 -13 117 -13 77 40.5 c 128,-1,10
 37 94 37 94 37 173 c 128,-1,11
 37 252 37 252 68.5 325.5 c 128,-1,12
 100 399 100 399 162 451 c 128,-1,13
 224 503 224 503 298.5 503 c 128,-1,14
 373 503 373 503 409 456 c 1,15,-1
 430 495 l 1,16,-1
 474 495 l 1,17,-1
 418 115 l 2,18,19
 416 101 416 101 416 94 c 0,20,21
 416 54 416 54 449 54 c 0,22,23
 465 54 465 54 489 62 c 1,0,-1
368 307 m 2,24,-1
 382 403 l 1,25,26
 349 441 349 441 298 441 c 128,-1,27
 247 441 247 441 205.5 393.5 c 128,-1,28
 164 346 164 346 147 287 c 128,-1,29
 130 228 130 228 130 176 c 128,-1,30
 130 124 130 124 148.5 86.5 c 128,-1,31
 167 49 167 49 210.5 49 c 128,-1,32
 254 49 254 49 287.5 87.5 c 0,33,34
 346.660647103 155.490594432 346.660647103 155.490594432 368 307 c 2,24,-1
450 713 m 1,35,-1
 473 688 l 1,36,37
 465 669 465 669 450 651 c 0,38,39
 420 615 420 615 376 615 c 0,40,41
 349 615 349 615 308 634 c 128,-1,42
 267 653 267 653 242.5 653 c 128,-1,43
 218 653 218 653 191 626 c 1,44,-1
 166 646 l 1,45,46
 175 668 175 668 190 684 c 0,47,48
 225 723 225 723 272 723 c 0,49,50
 299 723 299 723 339 704 c 128,-1,51
 379 685 379 685 400.5 685 c 128,-1,52
 422 685 422 685 450 713 c 1,35,-1
EndSplineSet
EndChar

StartChar: adieresis
Encoding: 228 228 216
Width: 526
Flags: HMW
HStem: -13 62<178 224> 441 62<243 318.5> 475 20G<430 474 474 474> 614 114<232.5 263.5 395.5 426.5>
VStem: 37 93<147.5 223 147.5 250> 191 114<655.5 686.5> 354 62 354 114<655.5 686.5>
LayerCount: 2
Fore
SplineSet
489 62 m 1,0,-1
 500 12 l 1,1,2
 456 -11 456 -11 423 -11 c 128,-1,3
 390 -11 390 -11 368.5 13 c 128,-1,4
 347 37 347 37 346 74 c 1,5,-1
 342 74 l 1,6,7
 286 -13 286 -13 194 -13 c 0,8,9
 117 -13 117 -13 77 40.5 c 128,-1,10
 37 94 37 94 37 173 c 128,-1,11
 37 252 37 252 68.5 325.5 c 128,-1,12
 100 399 100 399 162 451 c 128,-1,13
 224 503 224 503 298.5 503 c 128,-1,14
 373 503 373 503 409 456 c 1,15,-1
 430 495 l 1,16,-1
 474 495 l 1,17,-1
 418 115 l 2,18,19
 416 101 416 101 416 94 c 0,20,21
 416 54 416 54 449 54 c 0,22,23
 465 54 465 54 489 62 c 1,0,-1
368 307 m 2,24,-1
 382 403 l 1,25,26
 349 441 349 441 298 441 c 128,-1,27
 247 441 247 441 205.5 393.5 c 128,-1,28
 164 346 164 346 147 287 c 128,-1,29
 130 228 130 228 130 176 c 128,-1,30
 130 124 130 124 148.5 86.5 c 128,-1,31
 167 49 167 49 210.5 49 c 128,-1,32
 254 49 254 49 287.5 87.5 c 0,33,34
 346.660647103 155.490594432 346.660647103 155.490594432 368 307 c 2,24,-1
451.5 711.5 m 128,-1,36
 468 695 468 695 468 671.5 c 128,-1,37
 468 648 468 648 451 631 c 128,-1,38
 434 614 434 614 411 614 c 128,-1,39
 388 614 388 614 371 631 c 128,-1,40
 354 648 354 648 354 671 c 128,-1,41
 354 694 354 694 371 711 c 128,-1,42
 388 728 388 728 411.5 728 c 128,-1,35
 435 728 435 728 451.5 711.5 c 128,-1,36
288.5 711.5 m 128,-1,44
 305 695 305 695 305 671.5 c 128,-1,45
 305 648 305 648 288 631 c 128,-1,46
 271 614 271 614 248 614 c 128,-1,47
 225 614 225 614 208 631 c 128,-1,48
 191 648 191 648 191 671 c 128,-1,49
 191 694 191 694 208 711 c 128,-1,50
 225 728 225 728 248.5 728 c 128,-1,43
 272 728 272 728 288.5 711.5 c 128,-1,44
EndSplineSet
EndChar

StartChar: aring
Encoding: 229 229 217
Width: 526
Flags: HMW
HStem: -13 62<178 224> 441 62<243 318.5> 475 20G<430 474 474 474> 551 51<319.5 346.5 319.5 361> 698 52<319.5 346.5>
VStem: 37 93<147.5 223 147.5 250> 234 51<636.5 663.5 636.5 678> 346 70<74 97.5> 381 52<636.5 663.5>
LayerCount: 2
Fore
SplineSet
489 62 m 1,0,-1
 500 12 l 1,1,2
 456 -11 456 -11 423 -11 c 128,-1,3
 390 -11 390 -11 368.5 13 c 128,-1,4
 347 37 347 37 346 74 c 1,5,-1
 342 74 l 1,6,7
 286 -13 286 -13 194 -13 c 0,8,9
 117 -13 117 -13 77 40.5 c 128,-1,10
 37 94 37 94 37 173 c 128,-1,11
 37 252 37 252 68.5 325.5 c 128,-1,12
 100 399 100 399 162 451 c 128,-1,13
 224 503 224 503 298.5 503 c 128,-1,14
 373 503 373 503 409 456 c 1,15,-1
 430 495 l 1,16,-1
 474 495 l 1,17,-1
 418 115 l 2,18,19
 416 101 416 101 416 94 c 0,20,21
 416 54 416 54 449 54 c 0,22,23
 465 54 465 54 489 62 c 1,0,-1
368 307 m 2,24,-1
 382 403 l 1,25,26
 349 441 349 441 298 441 c 128,-1,27
 247 441 247 441 205.5 393.5 c 128,-1,28
 164 346 164 346 147 287 c 128,-1,29
 130 228 130 228 130 176 c 128,-1,30
 130 124 130 124 148.5 86.5 c 128,-1,31
 167 49 167 49 210.5 49 c 128,-1,32
 254 49 254 49 287.5 87.5 c 0,33,34
 346.660647103 155.490594432 346.660647103 155.490594432 368 307 c 2,24,-1
433 650 m 128,-1,36
 433 608 433 608 404 579.5 c 128,-1,37
 375 551 375 551 333 551 c 128,-1,38
 291 551 291 551 262.5 579.5 c 128,-1,39
 234 608 234 608 234 650 c 128,-1,40
 234 692 234 692 263 721 c 128,-1,41
 292 750 292 750 334 750 c 128,-1,42
 376 750 376 750 404.5 721 c 128,-1,35
 433 692 433 692 433 650 c 128,-1,36
381 650 m 128,-1,44
 381 670 381 670 367 684 c 128,-1,45
 353 698 353 698 333 698 c 128,-1,46
 313 698 313 698 299 684 c 128,-1,47
 285 670 285 670 285 650 c 128,-1,48
 285 630 285 630 299 616 c 128,-1,49
 313 602 313 602 333 602 c 128,-1,50
 353 602 353 602 367 616 c 128,-1,43
 381 630 381 630 381 650 c 128,-1,44
EndSplineSet
EndChar

StartChar: ccedilla
Encoding: 231 231 218
Width: 421
Flags: HMW
HStem: -218 21G<145 145> -13 69<193.5 254.5> 441 62<225.5 301>
VStem: 36 87<174 255 174 276.5> 210 72<-136.5 -105.5>
LayerCount: 2
Fore
SplineSet
430 452 m 1,0,-1
 380 397 l 1,1,2
 336 441 336 441 282.5 441 c 128,-1,3
 229 441 229 441 192 401 c 0,4,5
 123 326.405405405 123 326.405405405 123 210 c 0,6,7
 123 148 123 148 150.5 102 c 128,-1,8
 178 56 178 56 235.5 56 c 128,-1,9
 293 56 293 56 355 100 c 1,10,-1
 383 36 l 1,11,12
 333 9 333 9 300.5 -2 c 128,-1,13
 268 -13 268 -13 221 -13 c 0,14,15
 132 -13 132 -13 84 46 c 128,-1,16
 36 105 36 105 36 197 c 0,17,18
 36 322 36 322 107.5 412.5 c 128,-1,19
 179 503 179 503 297 503 c 0,20,21
 373 503 373 503 430 452 c 1,0,-1
224 -46 m 1,22,23
 282 -64 282 -64 282 -115 c 0,24,25
 282 -196.923076923 282 -196.923076923 145 -218 c 1,26,-1
 138 -186 l 1,27,28
 162 -186 162 -186 186 -164 c 128,-1,29
 210 -142 210 -142 210 -119 c 0,30,31
 210 -87 210 -87 163 -71 c 1,32,-1
 209 8 l 1,33,-1
 254 8 l 1,34,-1
 224 -46 l 1,22,23
EndSplineSet
EndChar

StartChar: egrave
Encoding: 232 232 219
Width: 464
Flags: HMW
HStem: -13 70<198.5 264> 202 58<122 151> 441 62<245 303.5> 704 20G<140 258 258 258>
VStem: 37 85<160.5 197 197 202 160.5 266.5> 344 84<370.5 407.5>
LayerCount: 2
Fore
SplineSet
428 397 m 0,0,1
 428 305 428 305 330 248 c 0,2,3
 255 204 255 204 122 202 c 1,4,-1
 122 197 l 2,5,6
 122 138 122 138 152 97.5 c 128,-1,7
 182 57 182 57 247 57 c 0,8,9
 312 57 312 57 378 102 c 1,10,-1
 407 43 l 1,11,12
 330 -13 330 -13 236.5 -13 c 0,13,14
 143 -13 143 -13 90 44 c 128,-1,15
 37 101 37 101 37 192 c 0,16,17
 37 312 37 312 110 407.5 c 128,-1,18
 183 503 183 503 300 503 c 0,19,20
 356 503 356 503 392 477 c 128,-1,21
 428 451 428 451 428 397 c 0,0,1
344 390 m 0,22,23
 344 441 344 441 286 441 c 0,24,25
 228 441 228 441 181 382 c 128,-1,26
 134 323 134 323 127 260 c 1,27,28
 221 260 221 260 275 293 c 0,29,30
 302 310 302 310 323 336.5 c 128,-1,31
 344 363 344 363 344 390 c 0,22,23
340 577 m 1,32,-1
 267 577 l 1,33,-1
 140 724 l 1,34,-1
 258 724 l 1,35,-1
 340 577 l 1,32,-1
EndSplineSet
EndChar

StartChar: eacute
Encoding: 233 233 220
Width: 464
Flags: HMW
HStem: -13 70<198.5 264> 202 58<122 151> 441 62<245 303.5> 704 20G<355 484 484 484>
VStem: 37 85<160.5 197 197 202 160.5 266.5> 344 84<370.5 407.5>
LayerCount: 2
Fore
SplineSet
428 397 m 0,0,1
 428 305 428 305 330 248 c 0,2,3
 255 204 255 204 122 202 c 1,4,-1
 122 197 l 2,5,6
 122 138 122 138 152 97.5 c 128,-1,7
 182 57 182 57 247 57 c 0,8,9
 312 57 312 57 378 102 c 1,10,-1
 407 43 l 1,11,12
 330 -13 330 -13 236.5 -13 c 0,13,14
 143 -13 143 -13 90 44 c 128,-1,15
 37 101 37 101 37 192 c 0,16,17
 37 312 37 312 110 407.5 c 128,-1,18
 183 503 183 503 300 503 c 0,19,20
 356 503 356 503 392 477 c 128,-1,21
 428 451 428 451 428 397 c 0,0,1
344 390 m 0,22,23
 344 441 344 441 286 441 c 0,24,25
 228 441 228 441 181 382 c 128,-1,26
 134 323 134 323 127 260 c 1,27,28
 221 260 221 260 275 293 c 0,29,30
 302 310 302 310 323 336.5 c 128,-1,31
 344 363 344 363 344 390 c 0,22,23
484 724 m 1,32,-1
 329 577 l 1,33,-1
 255 577 l 1,34,-1
 355 724 l 1,35,-1
 484 724 l 1,32,-1
EndSplineSet
EndChar

StartChar: ecircumflex
Encoding: 234 234 221
Width: 464
Flags: HMW
HStem: -13 70<198.5 264> 202 58<122 151> 441 62<245 303.5> 704 20G<264 343 343 343>
VStem: 37 85<160.5 197 197 202 160.5 266.5> 344 84<370.5 407.5>
LayerCount: 2
Fore
SplineSet
428 397 m 0,0,1
 428 305 428 305 330 248 c 0,2,3
 255 204 255 204 122 202 c 1,4,-1
 122 197 l 2,5,6
 122 138 122 138 152 97.5 c 128,-1,7
 182 57 182 57 247 57 c 0,8,9
 312 57 312 57 378 102 c 1,10,-1
 407 43 l 1,11,12
 330 -13 330 -13 236.5 -13 c 0,13,14
 143 -13 143 -13 90 44 c 128,-1,15
 37 101 37 101 37 192 c 0,16,17
 37 312 37 312 110 407.5 c 128,-1,18
 183 503 183 503 300 503 c 0,19,20
 356 503 356 503 392 477 c 128,-1,21
 428 451 428 451 428 397 c 0,0,1
344 390 m 0,22,23
 344 441 344 441 286 441 c 0,24,25
 228 441 228 441 181 382 c 128,-1,26
 134 323 134 323 127 260 c 1,27,28
 221 260 221 260 275 293 c 0,29,30
 302 310 302 310 323 336.5 c 128,-1,31
 344 363 344 363 344 390 c 0,22,23
423 574 m 1,32,-1
 358 574 l 1,33,-1
 294 653 l 1,34,-1
 211 574 l 1,35,-1
 146 574 l 1,36,-1
 264 724 l 1,37,-1
 343 724 l 1,38,-1
 423 574 l 1,32,-1
EndSplineSet
EndChar

StartChar: edieresis
Encoding: 235 235 222
Width: 464
Flags: HMW
HStem: -13 70<198.5 264> 202 58<122 151> 441 62<245 303.5> 614 114<187.5 218.5 350.5 381.5>
VStem: 37 85<160.5 197 197 202 160.5 266.5> 146 114<655.5 686.5> 309 119 344 84<370.5 407.5>
LayerCount: 2
Fore
SplineSet
428 397 m 0,0,1
 428 305 428 305 330 248 c 0,2,3
 255 204 255 204 122 202 c 1,4,-1
 122 197 l 2,5,6
 122 138 122 138 152 97.5 c 128,-1,7
 182 57 182 57 247 57 c 128,-1,8
 312 57 312 57 378 102 c 1,9,-1
 407 43 l 1,10,11
 330 -13 330 -13 236.5 -13 c 128,-1,12
 143 -13 143 -13 90 44 c 128,-1,13
 37 101 37 101 37 192 c 0,14,15
 37 312 37 312 110 407.5 c 128,-1,16
 183 503 183 503 300 503 c 0,17,18
 356 503 356 503 392 477 c 128,-1,19
 428 451 428 451 428 397 c 0,0,1
344 390 m 0,20,21
 344 441 344 441 286 441 c 128,-1,22
 228 441 228 441 181 382 c 128,-1,23
 134 323 134 323 127 260 c 1,24,25
 221 260 221 260 275 293 c 0,26,27
 302 310 302 310 323 336.5 c 128,-1,28
 344 363 344 363 344 390 c 0,20,21
406.5 711.5 m 128,-1,30
 423 695 423 695 423 671.5 c 128,-1,31
 423 648 423 648 406 631 c 128,-1,32
 389 614 389 614 366 614 c 128,-1,33
 343 614 343 614 326 631 c 128,-1,34
 309 648 309 648 309 671 c 128,-1,35
 309 694 309 694 326 711 c 128,-1,36
 343 728 343 728 366.5 728 c 128,-1,29
 390 728 390 728 406.5 711.5 c 128,-1,30
243.5 711.5 m 128,-1,38
 260 695 260 695 260 671.5 c 128,-1,39
 260 648 260 648 243 631 c 128,-1,40
 226 614 226 614 203 614 c 128,-1,41
 180 614 180 614 163 631 c 128,-1,42
 146 648 146 648 146 671 c 128,-1,43
 146 694 146 694 163 711 c 128,-1,44
 180 728 180 728 203.5 728 c 128,-1,37
 227 728 227 728 243.5 711.5 c 128,-1,38
EndSplineSet
EndChar

StartChar: igrave
Encoding: 236 236 223
Width: 227
Flags: HMW
HStem: 0 21G<40 128 40 40> 470 20G<98 186 186 186> 704 20G<-11 107 107 107>
LayerCount: 2
Fore
SplineSet
186 490 m 1,0,-1
 128 58 l 1,1,-1
 128 0 l 1,2,-1
 40 0 l 1,3,-1
 98 433 l 1,4,-1
 98 490 l 1,5,-1
 186 490 l 1,0,-1
189 577 m 1,6,-1
 116 577 l 1,7,-1
 -11 724 l 1,8,-1
 107 724 l 1,9,-1
 189 577 l 1,6,-1
EndSplineSet
EndChar

StartChar: iacute
Encoding: 237 237 224
Width: 227
Flags: HMW
HStem: 0 21G<40 128 40 40> 470 20G<98 186 186 186> 704 20G<205 334 334 334>
LayerCount: 2
Fore
SplineSet
186 490 m 1,0,-1
 128 58 l 1,1,-1
 128 0 l 1,2,-1
 40 0 l 1,3,-1
 98 433 l 1,4,-1
 98 490 l 1,5,-1
 186 490 l 1,0,-1
334 724 m 1,6,-1
 179 577 l 1,7,-1
 105 577 l 1,8,-1
 205 724 l 1,9,-1
 334 724 l 1,6,-1
EndSplineSet
EndChar

StartChar: icircumflex
Encoding: 238 238 225
Width: 227
Flags: HMW
HStem: 0 21G<40 128 40 40> 470 20G<98 186 186 186> 704 20G<128 207 207 207>
LayerCount: 2
Fore
SplineSet
186 490 m 1,0,-1
 128 58 l 1,1,-1
 128 0 l 1,2,-1
 40 0 l 1,3,-1
 98 433 l 1,4,-1
 98 490 l 1,5,-1
 186 490 l 1,0,-1
287 574 m 1,6,-1
 222 574 l 1,7,-1
 158 653 l 1,8,-1
 75 574 l 1,9,-1
 10 574 l 1,10,-1
 128 724 l 1,11,-1
 207 724 l 1,12,-1
 287 574 l 1,6,-1
EndSplineSet
EndChar

StartChar: idieresis
Encoding: 239 239 226
Width: 227
Flags: HMW
HStem: 0 21G<40 128 40 40> 470 20G<98 186 186 186> 614 114<52.5 83.5 215.5 246.5>
VStem: 11 117 174 114<655.5 686.5>
LayerCount: 2
Fore
SplineSet
186 490 m 1,0,-1
 128 58 l 1,1,-1
 128 0 l 1,2,-1
 40 0 l 1,3,-1
 98 433 l 1,4,-1
 98 490 l 1,5,-1
 186 490 l 1,0,-1
271.5 711.5 m 128,-1,7
 288 695 288 695 288 671.5 c 128,-1,8
 288 648 288 648 271 631 c 128,-1,9
 254 614 254 614 231 614 c 128,-1,10
 208 614 208 614 191 631 c 128,-1,11
 174 648 174 648 174 671 c 128,-1,12
 174 694 174 694 191 711 c 128,-1,13
 208 728 208 728 231.5 728 c 128,-1,6
 255 728 255 728 271.5 711.5 c 128,-1,7
108.5 711.5 m 128,-1,15
 125 695 125 695 125 671.5 c 128,-1,16
 125 648 125 648 108 631 c 128,-1,17
 91 614 91 614 68 614 c 128,-1,18
 45 614 45 614 28 631 c 128,-1,19
 11 648 11 648 11 671 c 128,-1,20
 11 694 11 694 28 711 c 128,-1,21
 45 728 45 728 68.5 728 c 128,-1,14
 92 728 92 728 108.5 711.5 c 128,-1,15
EndSplineSet
EndChar

StartChar: ntilde
Encoding: 241 241 227
Width: 494
Flags: HMW
HStem: 0 21G<41 121 41 41 327 415 327 327> 431 72<297 334.5> 620 70<365 381.5> 658 32 658 70<240.5 255.5>
VStem: 373 81<366.5 376.5>
LayerCount: 2
Fore
SplineSet
88 350 m 2,0,1
 92 375 92 375 92 416.5 c 128,-1,2
 92 458 92 458 76 490 c 1,3,-1
 164 500 l 1,4,5
 171 473 171 473 173 428 c 1,6,7
 259 503 259 503 330 503 c 0,8,9
 454 503 454 503 454 373 c 0,10,11
 454 353 454 353 451 329 c 2,12,-1
 415 58 l 1,13,-1
 415 0 l 1,14,-1
 327 0 l 1,15,-1
 368 303 l 1,16,17
 373 331 373 331 373 357 c 0,18,19
 373 431 373 431 308 431 c 0,20,21
 251 431 251 431 170 365 c 1,22,-1
 121 0 l 1,23,-1
 41 0 l 1,24,-1
 88 350 l 2,0,1
438 718 m 1,25,-1
 461 693 l 1,26,27
 453 674 453 674 438 656 c 0,28,29
 408 620 408 620 364 620 c 0,30,31
 337 620 337 620 296 639 c 128,-1,32
 255 658 255 658 230.5 658 c 128,-1,33
 206 658 206 658 179 631 c 1,34,-1
 154 651 l 1,35,36
 163 673 163 673 178 689 c 0,37,38
 213 728 213 728 260 728 c 0,39,40
 287 728 287 728 327 709 c 128,-1,41
 367 690 367 690 388.5 690 c 128,-1,42
 410 690 410 690 438 718 c 1,25,-1
EndSplineSet
EndChar

StartChar: ograve
Encoding: 242 242 228
Width: 508
Flags: HMW
HStem: -13 62<188.5 284 188.5 299.5> 441 62<225 321> 704 20G<135 253 253 253>
VStem: 37 85<168.5 249 168.5 272.5> 387 85<245 327.5>
LayerCount: 2
Fore
SplineSet
425 443 m 128,-1,1
 472 383 472 383 472 299.5 c 128,-1,2
 472 216 472 216 443 147 c 128,-1,3
 414 78 414 78 355 32.5 c 128,-1,4
 296 -13 296 -13 213.5 -13 c 128,-1,5
 131 -13 131 -13 84 47 c 128,-1,6
 37 107 37 107 37 191 c 128,-1,7
 37 275 37 275 65.5 343.5 c 128,-1,8
 94 412 94 412 152.5 457.5 c 128,-1,9
 211 503 211 503 294.5 503 c 128,-1,0
 378 503 378 503 425 443 c 128,-1,1
377.5 214 m 128,-1,11
 387 255 387 255 387 304 c 128,-1,12
 387 353 387 353 361.5 397 c 128,-1,13
 336 441 336 441 281 441 c 0,14,15
 241 441 241 441 209 417 c 128,-1,16
 177 393 177 393 159 356 c 0,17,18
 122 279.944444444 122 279.944444444 122 211.472222222 c 128,-1,19
 122 143 122 143 148 96 c 128,-1,20
 174 49 174 49 227 49 c 0,21,22
 268 49 268 49 300 73 c 128,-1,23
 332 97 332 97 350 135 c 128,-1,10
 368 173 368 173 377.5 214 c 128,-1,11
335 577 m 1,24,-1
 262 577 l 1,25,-1
 135 724 l 1,26,-1
 253 724 l 1,27,-1
 335 577 l 1,24,-1
EndSplineSet
EndChar

StartChar: oacute
Encoding: 243 243 229
Width: 508
Flags: HMW
HStem: -13 62<188.5 284 188.5 299.5> 441 62<225 321> 704 20G<354 483 483 483>
VStem: 37 85<168.5 249 168.5 272.5> 387 85<245 327.5>
LayerCount: 2
Fore
SplineSet
425 443 m 128,-1,1
 472 383 472 383 472 299.5 c 128,-1,2
 472 216 472 216 443 147 c 128,-1,3
 414 78 414 78 355 32.5 c 128,-1,4
 296 -13 296 -13 213.5 -13 c 128,-1,5
 131 -13 131 -13 84 47 c 128,-1,6
 37 107 37 107 37 191 c 128,-1,7
 37 275 37 275 65.5 343.5 c 128,-1,8
 94 412 94 412 152.5 457.5 c 128,-1,9
 211 503 211 503 294.5 503 c 128,-1,0
 378 503 378 503 425 443 c 128,-1,1
377.5 214 m 128,-1,11
 387 255 387 255 387 304 c 128,-1,12
 387 353 387 353 361.5 397 c 128,-1,13
 336 441 336 441 281 441 c 0,14,15
 241 441 241 441 209 417 c 128,-1,16
 177 393 177 393 159 356 c 0,17,18
 122 279.944444444 122 279.944444444 122 211.472222222 c 128,-1,19
 122 143 122 143 148 96 c 128,-1,20
 174 49 174 49 227 49 c 0,21,22
 268 49 268 49 300 73 c 128,-1,23
 332 97 332 97 350 135 c 128,-1,10
 368 173 368 173 377.5 214 c 128,-1,11
483 724 m 1,24,-1
 328 577 l 1,25,-1
 254 577 l 1,26,-1
 354 724 l 1,27,-1
 483 724 l 1,24,-1
EndSplineSet
EndChar

StartChar: ocircumflex
Encoding: 244 244 230
Width: 508
Flags: HMW
HStem: -13 62<188.5 284 188.5 299.5> 441 62<225 321> 704 20G<269 348 348 348>
VStem: 37 85<168.5 249 168.5 272.5> 387 85<245 327.5>
LayerCount: 2
Fore
SplineSet
425 443 m 128,-1,1
 472 383 472 383 472 299.5 c 128,-1,2
 472 216 472 216 443 147 c 128,-1,3
 414 78 414 78 355 32.5 c 128,-1,4
 296 -13 296 -13 213.5 -13 c 128,-1,5
 131 -13 131 -13 84 47 c 128,-1,6
 37 107 37 107 37 191 c 128,-1,7
 37 275 37 275 65.5 343.5 c 128,-1,8
 94 412 94 412 152.5 457.5 c 128,-1,9
 211 503 211 503 294.5 503 c 128,-1,0
 378 503 378 503 425 443 c 128,-1,1
377.5 214 m 128,-1,11
 387 255 387 255 387 304 c 128,-1,12
 387 353 387 353 361.5 397 c 128,-1,13
 336 441 336 441 281 441 c 0,14,15
 241 441 241 441 209 417 c 128,-1,16
 177 393 177 393 159 356 c 0,17,18
 122 279.944444444 122 279.944444444 122 211.472222222 c 128,-1,19
 122 143 122 143 148 96 c 128,-1,20
 174 49 174 49 227 49 c 0,21,22
 268 49 268 49 300 73 c 128,-1,23
 332 97 332 97 350 135 c 128,-1,10
 368 173 368 173 377.5 214 c 128,-1,11
428 574 m 1,24,-1
 363 574 l 1,25,-1
 299 653 l 1,26,-1
 216 574 l 1,27,-1
 151 574 l 1,28,-1
 269 724 l 1,29,-1
 348 724 l 1,30,-1
 428 574 l 1,24,-1
EndSplineSet
EndChar

StartChar: otilde
Encoding: 245 245 231
Width: 508
Flags: HMW
HStem: -13 62<188.5 284 188.5 299.5> 441 62<225 321> 618 70<358 374.5> 656 32 656 70<233.5 248.5>
VStem: 37 85<168.5 249 168.5 272.5> 387 85<245 327.5>
LayerCount: 2
Fore
SplineSet
425 443 m 128,-1,1
 472 383 472 383 472 299.5 c 128,-1,2
 472 216 472 216 443 147 c 128,-1,3
 414 78 414 78 355 32.5 c 128,-1,4
 296 -13 296 -13 213.5 -13 c 128,-1,5
 131 -13 131 -13 84 47 c 128,-1,6
 37 107 37 107 37 191 c 128,-1,7
 37 275 37 275 65.5 343.5 c 128,-1,8
 94 412 94 412 152.5 457.5 c 128,-1,9
 211 503 211 503 294.5 503 c 128,-1,0
 378 503 378 503 425 443 c 128,-1,1
377.5 214 m 128,-1,11
 387 255 387 255 387 304 c 128,-1,12
 387 353 387 353 361.5 397 c 128,-1,13
 336 441 336 441 281 441 c 0,14,15
 241 441 241 441 209 417 c 128,-1,16
 177 393 177 393 159 356 c 0,17,18
 122 279.944444444 122 279.944444444 122 211.472222222 c 128,-1,19
 122 143 122 143 148 96 c 128,-1,20
 174 49 174 49 227 49 c 0,21,22
 268 49 268 49 300 73 c 128,-1,23
 332 97 332 97 350 135 c 128,-1,10
 368 173 368 173 377.5 214 c 128,-1,11
431 716 m 1,24,-1
 454 691 l 1,25,26
 446 672 446 672 431 654 c 0,27,28
 401 618 401 618 357 618 c 0,29,30
 330 618 330 618 289 637 c 128,-1,31
 248 656 248 656 223.5 656 c 128,-1,32
 199 656 199 656 172 629 c 1,33,-1
 147 649 l 1,34,35
 156 671 156 671 171 687 c 0,36,37
 206 726 206 726 253 726 c 0,38,39
 280 726 280 726 320 707 c 128,-1,40
 360 688 360 688 381.5 688 c 128,-1,41
 403 688 403 688 431 716 c 1,24,-1
EndSplineSet
EndChar

StartChar: odieresis
Encoding: 246 246 232
Width: 508
Flags: HMW
HStem: -13 62<188.5 284 188.5 299.5> 441 62<225 321> 612 114<214.5 245.5 377.5 408.5>
VStem: 37 85<168.5 249 168.5 272.5> 173 114<653.5 684.5> 336 114<653.5 684.5> 387 85<245 327.5>
LayerCount: 2
Fore
SplineSet
425 443 m 128,-1,1
 472 383 472 383 472 299.5 c 128,-1,2
 472 216 472 216 443 147 c 128,-1,3
 414 78 414 78 355 32.5 c 128,-1,4
 296 -13 296 -13 213.5 -13 c 128,-1,5
 131 -13 131 -13 84 47 c 128,-1,6
 37 107 37 107 37 191 c 128,-1,7
 37 275 37 275 65.5 343.5 c 128,-1,8
 94 412 94 412 152.5 457.5 c 128,-1,9
 211 503 211 503 294.5 503 c 128,-1,0
 378 503 378 503 425 443 c 128,-1,1
377.5 214 m 128,-1,11
 387 255 387 255 387 304 c 128,-1,12
 387 353 387 353 361.5 397 c 128,-1,13
 336 441 336 441 281 441 c 0,14,15
 241 441 241 441 209 417 c 128,-1,16
 177 393 177 393 159 356 c 0,17,18
 122 279.944444444 122 279.944444444 122 211.472222222 c 128,-1,19
 122 143 122 143 148 96 c 128,-1,20
 174 49 174 49 227 49 c 0,21,22
 268 49 268 49 300 73 c 128,-1,23
 332 97 332 97 350 135 c 128,-1,10
 368 173 368 173 377.5 214 c 128,-1,11
433.5 709.5 m 128,-1,25
 450 693 450 693 450 669.5 c 128,-1,26
 450 646 450 646 433 629 c 128,-1,27
 416 612 416 612 393 612 c 128,-1,28
 370 612 370 612 353 629 c 128,-1,29
 336 646 336 646 336 669 c 128,-1,30
 336 692 336 692 353 709 c 128,-1,31
 370 726 370 726 393.5 726 c 128,-1,24
 417 726 417 726 433.5 709.5 c 128,-1,25
270.5 709.5 m 128,-1,33
 287 693 287 693 287 669.5 c 128,-1,34
 287 646 287 646 270 629 c 128,-1,35
 253 612 253 612 230 612 c 128,-1,36
 207 612 207 612 190 629 c 128,-1,37
 173 646 173 646 173 669 c 128,-1,38
 173 692 173 692 190 709 c 128,-1,39
 207 726 207 726 230.5 726 c 128,-1,32
 254 726 254 726 270.5 709.5 c 128,-1,33
EndSplineSet
EndChar

StartChar: ugrave
Encoding: 249 249 233
Width: 510
Flags: HMW
HStem: -13 62<167 216 167 219> -12 21G<390.5 415.5> 470 20G<81 168 168 168 368 456 456 456> 704 20G<112 230 230 230>
VStem: 40 82<101.5 125.5> 329 74<43.5 98.5>
LayerCount: 2
Fore
SplineSet
431 53 m 0,0,1
 452 53 452 53 472 63 c 1,2,-1
 483 11 l 1,3,4
 439.875 -12 439.875 -12 408.9375 -12 c 128,-1,5
 378 -12 378 -12 353.5 10 c 128,-1,6
 329 32 329 32 329 73 c 1,7,-1
 325 73 l 1,8,9
 274 -13 274 -13 168 -13 c 0,10,11
 103 -13 103 -13 71.5 22 c 128,-1,12
 40 57 40 57 40 119 c 0,13,14
 40 138 40 138 43 159 c 2,15,-1
 81 433 l 1,16,-1
 81 490 l 1,17,-1
 168 490 l 1,18,-1
 125 171 l 2,19,20
 122 148 122 148 122 130 c 0,21,22
 122 49 122 49 189 49 c 0,23,24
 235.714285714 49 235.714285714 49 277.5 94.5 c 0,25,26
 326.056451613 147.372580645 326.056451613 147.372580645 346 279 c 1,27,-1
 368 432 l 1,28,-1
 368 490 l 1,29,-1
 456 490 l 1,30,-1
 405 121 l 1,31,32
 403 99 403 99 403 95 c 0,33,34
 403 53 403 53 431 53 c 0,0,1
312 577 m 1,35,-1
 239 577 l 1,36,-1
 112 724 l 1,37,-1
 230 724 l 1,38,-1
 312 577 l 1,35,-1
EndSplineSet
EndChar

StartChar: uacute
Encoding: 250 250 234
Width: 510
Flags: HMW
HStem: -13 62<167 216 167 219> -12 21G<390.5 415.5> 470 20G<81 168 168 168 368 456 456 456> 704 20G<337 466 466 466>
VStem: 40 82<101.5 125.5> 329 74<43.5 98.5>
LayerCount: 2
Fore
SplineSet
431 53 m 0,0,1
 452 53 452 53 472 63 c 1,2,-1
 483 11 l 1,3,4
 439.875 -12 439.875 -12 408.9375 -12 c 128,-1,5
 378 -12 378 -12 353.5 10 c 128,-1,6
 329 32 329 32 329 73 c 1,7,-1
 325 73 l 1,8,9
 274 -13 274 -13 168 -13 c 0,10,11
 103 -13 103 -13 71.5 22 c 128,-1,12
 40 57 40 57 40 119 c 0,13,14
 40 138 40 138 43 159 c 2,15,-1
 81 433 l 1,16,-1
 81 490 l 1,17,-1
 168 490 l 1,18,-1
 125 171 l 2,19,20
 122 148 122 148 122 130 c 0,21,22
 122 49 122 49 189 49 c 0,23,24
 235.714285714 49 235.714285714 49 277.5 94.5 c 0,25,26
 326.056451613 147.372580645 326.056451613 147.372580645 346 279 c 1,27,-1
 368 432 l 1,28,-1
 368 490 l 1,29,-1
 456 490 l 1,30,-1
 405 121 l 1,31,32
 403 99 403 99 403 95 c 0,33,34
 403 53 403 53 431 53 c 0,0,1
466 724 m 1,35,-1
 311 577 l 1,36,-1
 237 577 l 1,37,-1
 337 724 l 1,38,-1
 466 724 l 1,35,-1
EndSplineSet
EndChar

StartChar: ucircumflex
Encoding: 251 251 235
Width: 510
Flags: HMW
HStem: -13 62<167 216 167 219> -12 21G<390.5 415.5> 470 20G<81 168 168 168 368 456 456 456> 704 20G<252 331 331 331>
VStem: 40 82<101.5 125.5> 329 74<43.5 98.5>
LayerCount: 2
Fore
SplineSet
431 53 m 0,0,1
 452 53 452 53 472 63 c 1,2,-1
 483 11 l 1,3,4
 439.875 -12 439.875 -12 408.9375 -12 c 128,-1,5
 378 -12 378 -12 353.5 10 c 128,-1,6
 329 32 329 32 329 73 c 1,7,-1
 325 73 l 1,8,9
 274 -13 274 -13 168 -13 c 0,10,11
 103 -13 103 -13 71.5 22 c 128,-1,12
 40 57 40 57 40 119 c 0,13,14
 40 138 40 138 43 159 c 2,15,-1
 81 433 l 1,16,-1
 81 490 l 1,17,-1
 168 490 l 1,18,-1
 125 171 l 2,19,20
 122 148 122 148 122 130 c 0,21,22
 122 49 122 49 189 49 c 0,23,24
 235.714285714 49 235.714285714 49 277.5 94.5 c 0,25,26
 326.056451613 147.372580645 326.056451613 147.372580645 346 279 c 1,27,-1
 368 432 l 1,28,-1
 368 490 l 1,29,-1
 456 490 l 1,30,-1
 405 121 l 1,31,32
 403 99 403 99 403 95 c 0,33,34
 403 53 403 53 431 53 c 0,0,1
411 574 m 1,35,-1
 346 574 l 1,36,-1
 282 653 l 1,37,-1
 199 574 l 1,38,-1
 134 574 l 1,39,-1
 252 724 l 1,40,-1
 331 724 l 1,41,-1
 411 574 l 1,35,-1
EndSplineSet
EndChar

StartChar: udieresis
Encoding: 252 252 236
Width: 510
Flags: HMW
HStem: -13 62<167 216 167 219> -12 21G<390.5 415.5> 470 20G<81 168 168 168 368 456 456 456> 614 114<189.5 220.5 352.5 383.5>
VStem: 40 82<101.5 125.5> 148 114<655.5 686.5> 311 114<655.5 686.5> 329 74<43.5 98.5>
LayerCount: 2
Fore
SplineSet
431 53 m 0,0,1
 452 53 452 53 472 63 c 1,2,-1
 483 11 l 1,3,4
 439.875 -12 439.875 -12 408.9375 -12 c 128,-1,5
 378 -12 378 -12 353.5 10 c 128,-1,6
 329 32 329 32 329 73 c 1,7,-1
 325 73 l 1,8,9
 274 -13 274 -13 168 -13 c 0,10,11
 103 -13 103 -13 71.5 22 c 128,-1,12
 40 57 40 57 40 119 c 0,13,14
 40 138 40 138 43 159 c 2,15,-1
 81 433 l 1,16,-1
 81 490 l 1,17,-1
 168 490 l 1,18,-1
 125 171 l 2,19,20
 122 148 122 148 122 130 c 0,21,22
 122 49 122 49 189 49 c 0,23,24
 235.714285714 49 235.714285714 49 277.5 94.5 c 0,25,26
 326.056451613 147.372580645 326.056451613 147.372580645 346 279 c 1,27,-1
 368 432 l 1,28,-1
 368 490 l 1,29,-1
 456 490 l 1,30,-1
 405 121 l 1,31,32
 403 99 403 99 403 95 c 0,33,34
 403 53 403 53 431 53 c 0,0,1
408.5 711.5 m 128,-1,36
 425 695 425 695 425 671.5 c 128,-1,37
 425 648 425 648 408 631 c 128,-1,38
 391 614 391 614 368 614 c 128,-1,39
 345 614 345 614 328 631 c 128,-1,40
 311 648 311 648 311 671 c 128,-1,41
 311 694 311 694 328 711 c 128,-1,42
 345 728 345 728 368.5 728 c 128,-1,35
 392 728 392 728 408.5 711.5 c 128,-1,36
245.5 711.5 m 128,-1,44
 262 695 262 695 262 671.5 c 128,-1,45
 262 648 262 648 245 631 c 128,-1,46
 228 614 228 614 205 614 c 128,-1,47
 182 614 182 614 165 631 c 128,-1,48
 148 648 148 648 148 671 c 128,-1,49
 148 694 148 694 165 711 c 128,-1,50
 182 728 182 728 205.5 728 c 128,-1,43
 229 728 229 728 245.5 711.5 c 128,-1,44
EndSplineSet
EndChar

StartChar: yacute
Encoding: 253 253 237
Width: 409
Flags: HMW
HStem: -230 66<-57 -3.5 -57 14> 470 20G<45 130 130 130 375 451 451 451> 704 20G<325 454 454 454>
LayerCount: 2
Fore
SplineSet
451 490 m 1,0,-1
 203 -51 l 2,1,2
 120 -230 120 -230 -46 -230 c 0,3,4
 -106 -230 -106 -230 -152 -203 c 1,5,-1
 -114 -143 l 1,6,7
 -69 -164 -69 -164 -41 -164 c 0,8,9
 76 -164 76 -164 135 -30 c 1,10,-1
 149 3 l 1,11,-1
 45 490 l 1,12,-1
 130 490 l 1,13,-1
 203 118 l 1,14,-1
 375 490 l 1,15,-1
 451 490 l 1,0,-1
454 724 m 1,16,-1
 299 577 l 1,17,-1
 225 577 l 1,18,-1
 325 724 l 1,19,-1
 454 724 l 1,16,-1
EndSplineSet
EndChar

StartChar: ydieresis
Encoding: 255 255 238
Width: 409
Flags: HMW
HStem: -230 66<-57 -3.5 -57 14> 470 20G<45 130 130 130 375 451 451 451> 613 114<165.5 196.5 328.5 359.5>
VStem: 124 114<654.5 685.5> 287 114<654.5 685.5>
LayerCount: 2
Fore
SplineSet
451 490 m 1,0,-1
 203 -51 l 2,1,2
 120 -230 120 -230 -46 -230 c 0,3,4
 -106 -230 -106 -230 -152 -203 c 1,5,-1
 -114 -143 l 1,6,7
 -69 -164 -69 -164 -41 -164 c 0,8,9
 76 -164 76 -164 135 -30 c 1,10,-1
 149 3 l 1,11,-1
 45 490 l 1,12,-1
 130 490 l 1,13,-1
 203 118 l 1,14,-1
 375 490 l 1,15,-1
 451 490 l 1,0,-1
384.5 710.5 m 128,-1,17
 401 694 401 694 401 670.5 c 128,-1,18
 401 647 401 647 384 630 c 128,-1,19
 367 613 367 613 344 613 c 128,-1,20
 321 613 321 613 304 630 c 128,-1,21
 287 647 287 647 287 670 c 128,-1,22
 287 693 287 693 304 710 c 128,-1,23
 321 727 321 727 344.5 727 c 128,-1,16
 368 727 368 727 384.5 710.5 c 128,-1,17
221.5 710.5 m 128,-1,25
 238 694 238 694 238 670.5 c 128,-1,26
 238 647 238 647 221 630 c 128,-1,27
 204 613 204 613 181 613 c 128,-1,28
 158 613 158 613 141 630 c 128,-1,29
 124 647 124 647 124 670 c 128,-1,30
 124 693 124 693 141 710 c 128,-1,31
 158 727 158 727 181.5 727 c 128,-1,24
 205 727 205 727 221.5 710.5 c 128,-1,25
EndSplineSet
EndChar

StartChar: Scaron
Encoding: 352 352 239
Width: 507
Flags: HMW
HStem: -10 69<176.5 250.5 176.5 275> 665 69<295.5 355.5> 915 20G<207 272 272 272 417 484 484 484>
VStem: 98 92<482 587.5 482 601> 364 94<168 284.5>
LayerCount: 2
Fore
SplineSet
498 687 m 1,0,-1
 456 619 l 1,1,2
 399 665 399 665 336.5 665 c 128,-1,3
 274 665 274 665 232 634 c 128,-1,4
 190 603 190 603 190 550 c 0,5,6
 190 485.632911392 190 485.632911392 284.5 433 c 0,7,8
 324 411 324 411 363.5 386 c 128,-1,9
 403 361 403 361 430.5 319 c 128,-1,10
 458 277 458 277 458 221 c 0,11,12
 458 119 458 119 385 54.5 c 128,-1,13
 312 -10 312 -10 209 -10 c 128,-1,14
 106 -10 106 -10 12 44 c 1,15,-1
 54 119 l 1,16,17
 102 85 102 85 132.5 72 c 128,-1,18
 163 59 163 59 217 59 c 128,-1,19
 271 59 271 59 317.5 104 c 128,-1,20
 364 149 364 149 364 208 c 0,21,22
 364 281.679487179 364 281.679487179 270 333.5 c 0,23,24
 231 355 231 355 192 378.5 c 128,-1,25
 153 402 153 402 125.5 441.5 c 128,-1,26
 98 481 98 481 98 535 c 0,27,28
 98 629 98 629 168 681.5 c 128,-1,29
 238 734 238 734 333 734 c 128,-1,30
 428 734 428 734 498 687 c 1,0,-1
484 935 m 1,31,-1
 361 764 l 1,32,-1
 280 764 l 1,33,-1
 207 935 l 1,34,-1
 272 935 l 1,35,-1
 330 836 l 1,36,-1
 417 935 l 1,37,-1
 484 935 l 1,31,-1
EndSplineSet
EndChar

StartChar: scaron
Encoding: 353 353 240
Width: 376
Flags: HMW
HStem: -13 62<133.5 174 133.5 199.5> 441 62<211.5 251.5> 704 20G<119 184 184 184 329 396 396 396>
VStem: 59 82<323 389 323 405.5> 248 83<102.5 177.5>
LayerCount: 2
Fore
SplineSet
361 470 m 1,0,-1
 327 410 l 1,1,2
 284 441 284 441 240.5 441 c 128,-1,3
 197 441 197 441 169 420.5 c 128,-1,4
 141 400 141 400 141 364 c 0,5,6
 141 325.589285714 141 325.589285714 208 288.5 c 0,7,8
 236 273 236 273 264 255 c 128,-1,9
 292 237 292 237 311.5 207.5 c 128,-1,10
 331 178 331 178 331 139 c 0,11,12
 331 67 331 67 279 27 c 128,-1,13
 227 -13 227 -13 150 -13 c 128,-1,14
 73 -13 73 -13 6 28 c 1,15,-1
 49 89 l 1,16,17
 97 49 97 49 143.5 49 c 128,-1,18
 190 49 190 49 219 70 c 128,-1,19
 248 91 248 91 248 123.5 c 128,-1,20
 248 156 248 156 228.5 176.5 c 128,-1,21
 209 197 209 197 181 212.5 c 128,-1,22
 153 228 153 228 125.5 245 c 128,-1,23
 98 262 98 262 78.5 290 c 128,-1,24
 59 318 59 318 59 354 c 0,25,26
 59 427 59 427 112 465 c 128,-1,27
 165 503 165 503 235.5 503 c 128,-1,28
 306 503 306 503 361 470 c 1,0,-1
396 724 m 1,29,-1
 273 553 l 1,30,-1
 192 553 l 1,31,-1
 119 724 l 1,32,-1
 184 724 l 1,33,-1
 242 625 l 1,34,-1
 329 724 l 1,35,-1
 396 724 l 1,29,-1
EndSplineSet
EndChar

StartChar: Ydieresis
Encoding: 376 376 241
Width: 477
Flags: HMW
HStem: 0 21G<151 242 151 151> 704 20G<42 145 145 145 454 538 538 538> 759 114<207.5 238.5 370.5 401.5>
VStem: 166 114<800.5 831.5> 329 114<800.5 831.5>
LayerCount: 2
Fore
SplineSet
538 724 m 1,0,-1
 290 358 l 1,1,-1
 242 0 l 1,2,-1
 151 0 l 1,3,-1
 199 359 l 1,4,-1
 42 724 l 1,5,-1
 145 724 l 1,6,-1
 267 444 l 1,7,-1
 454 724 l 1,8,-1
 538 724 l 1,0,-1
426.5 856.5 m 128,-1,10
 443 840 443 840 443 816.5 c 128,-1,11
 443 793 443 793 426 776 c 128,-1,12
 409 759 409 759 386 759 c 128,-1,13
 363 759 363 759 346 776 c 128,-1,14
 329 793 329 793 329 816 c 128,-1,15
 329 839 329 839 346 856 c 128,-1,16
 363 873 363 873 386.5 873 c 128,-1,9
 410 873 410 873 426.5 856.5 c 128,-1,10
263.5 856.5 m 128,-1,18
 280 840 280 840 280 816.5 c 128,-1,19
 280 793 280 793 263 776 c 128,-1,20
 246 759 246 759 223 759 c 128,-1,21
 200 759 200 759 183 776 c 128,-1,22
 166 793 166 793 166 816 c 128,-1,23
 166 839 166 839 183 856 c 128,-1,24
 200 873 200 873 223.5 873 c 128,-1,17
 247 873 247 873 263.5 856.5 c 128,-1,18
EndSplineSet
EndChar

StartChar: Zcaron
Encoding: 381 381 242
Width: 532
Flags: HMW
HStem: 0 69<99 454> 655 69<101 430 92 546> 915 20G<215 280 280 280 425 492 492 492>
LayerCount: 2
Fore
SplineSet
546 724 m 1,0,-1
 537 657 l 1,1,-1
 99 69 l 1,2,-1
 470 69 l 1,3,-1
 454 0 l 1,4,-1
 -17 0 l 1,5,-1
 -8 67 l 1,6,-1
 430 655 l 1,7,-1
 92 655 l 1,8,-1
 101 724 l 1,9,-1
 546 724 l 1,0,-1
492 935 m 1,10,-1
 369 764 l 1,11,-1
 288 764 l 1,12,-1
 215 935 l 1,13,-1
 280 935 l 1,14,-1
 338 836 l 1,15,-1
 425 935 l 1,16,-1
 492 935 l 1,10,-1
EndSplineSet
EndChar

StartChar: zcaron
Encoding: 382 382 243
Width: 433
Flags: HMW
HStem: 0 63<126 372> 427 63<100 313 91 423> 704 20G<148 213 213 213 358 425 425 425>
LayerCount: 2
Fore
SplineSet
423 443 m 1,0,-1
 126 63 l 1,1,-1
 382 63 l 1,2,-1
 372 0 l 1,3,-1
 18 0 l 1,4,-1
 18 48 l 1,5,-1
 313 427 l 1,6,-1
 91 427 l 1,7,-1
 100 490 l 1,8,-1
 423 490 l 1,9,-1
 423 443 l 1,0,-1
425 724 m 1,10,-1
 302 553 l 1,11,-1
 221 553 l 1,12,-1
 148 724 l 1,13,-1
 213 724 l 1,14,-1
 271 625 l 1,15,-1
 358 724 l 1,16,-1
 425 724 l 1,10,-1
EndSplineSet
EndChar

